<?xml version="1.0" encoding="utf-8" standalone="no"?>
<!DOCTYPE svg PUBLIC "-//W3C//DTD SVG 1.1//EN"
  "http://www.w3.org/Graphics/SVG/1.1/DTD/svg11.dtd">
<!-- Created with matplotlib (https://matplotlib.org/) -->
<svg height="576pt" version="1.1" viewBox="0 0 936 576" width="936pt" xmlns="http://www.w3.org/2000/svg" xmlns:xlink="http://www.w3.org/1999/xlink">
 <metadata>
  <rdf:RDF xmlns:cc="http://creativecommons.org/ns#" xmlns:dc="http://purl.org/dc/elements/1.1/" xmlns:rdf="http://www.w3.org/1999/02/22-rdf-syntax-ns#">
   <cc:Work>
    <dc:type rdf:resource="http://purl.org/dc/dcmitype/StillImage"/>
    <dc:date>2020-11-19T13:09:06.370888</dc:date>
    <dc:format>image/svg+xml</dc:format>
    <dc:creator>
     <cc:Agent>
      <dc:title>Matplotlib v3.3.2, https://matplotlib.org/</dc:title>
     </cc:Agent>
    </dc:creator>
   </cc:Work>
  </rdf:RDF>
 </metadata>
 <defs>
  <style type="text/css">*{stroke-linecap:butt;stroke-linejoin:round;}</style>
 </defs>
 <g id="figure_1">
  <g id="patch_1">
   <path d="M 0 576 
L 936 576 
L 936 0 
L 0 0 
z
" style="fill:none;"/>
  </g>
  <g id="axes_1">
   <g id="patch_2">
    <path d="M 59.013365 537.433198 
L 932.99976 537.433198 
L 932.99976 21.15774 
L 59.013365 21.15774 
z
" style="fill:#eeeeee;"/>
   </g>
   <g id="matplotlib.axis_1">
    <g id="xtick_1">
     <g id="line2d_1">
      <path clip-path="url(#p9c8420a460)" d="M 98.740019 537.433198 
L 98.740019 21.15774 
" style="fill:none;stroke:#ffffff;stroke-linecap:round;stroke-width:0.8;"/>
     </g>
     <g id="line2d_2"/>
     <g id="text_1">
      <!-- −3 -->
      <g style="fill:#262626;" transform="translate(88.420488 551.57101)scale(0.14 -0.14)">
       <defs>
        <path d="M 10.59375 35.5 
L 73.1875 35.5 
L 73.1875 27.203125 
L 10.59375 27.203125 
z
" id="DejaVuSans-8722"/>
        <path d="M 40.578125 39.3125 
Q 47.65625 37.796875 51.625 33 
Q 55.609375 28.21875 55.609375 21.1875 
Q 55.609375 10.40625 48.1875 4.484375 
Q 40.765625 -1.421875 27.09375 -1.421875 
Q 22.515625 -1.421875 17.65625 -0.515625 
Q 12.796875 0.390625 7.625 2.203125 
L 7.625 11.71875 
Q 11.71875 9.328125 16.59375 8.109375 
Q 21.484375 6.890625 26.8125 6.890625 
Q 36.078125 6.890625 40.9375 10.546875 
Q 45.796875 14.203125 45.796875 21.1875 
Q 45.796875 27.640625 41.28125 31.265625 
Q 36.765625 34.90625 28.71875 34.90625 
L 20.21875 34.90625 
L 20.21875 43.015625 
L 29.109375 43.015625 
Q 36.375 43.015625 40.234375 45.921875 
Q 44.09375 48.828125 44.09375 54.296875 
Q 44.09375 59.90625 40.109375 62.90625 
Q 36.140625 65.921875 28.71875 65.921875 
Q 24.65625 65.921875 20.015625 65.03125 
Q 15.375 64.15625 9.8125 62.3125 
L 9.8125 71.09375 
Q 15.4375 72.65625 20.34375 73.4375 
Q 25.25 74.21875 29.59375 74.21875 
Q 40.828125 74.21875 47.359375 69.109375 
Q 53.90625 64.015625 53.90625 55.328125 
Q 53.90625 49.265625 50.4375 45.09375 
Q 46.96875 40.921875 40.578125 39.3125 
z
" id="DejaVuSans-51"/>
       </defs>
       <use xlink:href="#DejaVuSans-8722"/>
       <use x="83.789062" xlink:href="#DejaVuSans-51"/>
      </g>
     </g>
    </g>
    <g id="xtick_2">
     <g id="line2d_3">
      <path clip-path="url(#p9c8420a460)" d="M 231.1622 537.433198 
L 231.1622 21.15774 
" style="fill:none;stroke:#ffffff;stroke-linecap:round;stroke-width:0.8;"/>
     </g>
     <g id="line2d_4"/>
     <g id="text_2">
      <!-- −2 -->
      <g style="fill:#262626;" transform="translate(220.842669 551.57101)scale(0.14 -0.14)">
       <defs>
        <path d="M 19.1875 8.296875 
L 53.609375 8.296875 
L 53.609375 0 
L 7.328125 0 
L 7.328125 8.296875 
Q 12.9375 14.109375 22.625 23.890625 
Q 32.328125 33.6875 34.8125 36.53125 
Q 39.546875 41.84375 41.421875 45.53125 
Q 43.3125 49.21875 43.3125 52.78125 
Q 43.3125 58.59375 39.234375 62.25 
Q 35.15625 65.921875 28.609375 65.921875 
Q 23.96875 65.921875 18.8125 64.3125 
Q 13.671875 62.703125 7.8125 59.421875 
L 7.8125 69.390625 
Q 13.765625 71.78125 18.9375 73 
Q 24.125 74.21875 28.421875 74.21875 
Q 39.75 74.21875 46.484375 68.546875 
Q 53.21875 62.890625 53.21875 53.421875 
Q 53.21875 48.921875 51.53125 44.890625 
Q 49.859375 40.875 45.40625 35.40625 
Q 44.1875 33.984375 37.640625 27.21875 
Q 31.109375 20.453125 19.1875 8.296875 
z
" id="DejaVuSans-50"/>
       </defs>
       <use xlink:href="#DejaVuSans-8722"/>
       <use x="83.789062" xlink:href="#DejaVuSans-50"/>
      </g>
     </g>
    </g>
    <g id="xtick_3">
     <g id="line2d_5">
      <path clip-path="url(#p9c8420a460)" d="M 363.584381 537.433198 
L 363.584381 21.15774 
" style="fill:none;stroke:#ffffff;stroke-linecap:round;stroke-width:0.8;"/>
     </g>
     <g id="line2d_6"/>
     <g id="text_3">
      <!-- −1 -->
      <g style="fill:#262626;" transform="translate(353.26485 551.57101)scale(0.14 -0.14)">
       <defs>
        <path d="M 12.40625 8.296875 
L 28.515625 8.296875 
L 28.515625 63.921875 
L 10.984375 60.40625 
L 10.984375 69.390625 
L 28.421875 72.90625 
L 38.28125 72.90625 
L 38.28125 8.296875 
L 54.390625 8.296875 
L 54.390625 0 
L 12.40625 0 
z
" id="DejaVuSans-49"/>
       </defs>
       <use xlink:href="#DejaVuSans-8722"/>
       <use x="83.789062" xlink:href="#DejaVuSans-49"/>
      </g>
     </g>
    </g>
    <g id="xtick_4">
     <g id="line2d_7">
      <path clip-path="url(#p9c8420a460)" d="M 496.006563 537.433198 
L 496.006563 21.15774 
" style="fill:none;stroke:#ffffff;stroke-linecap:round;stroke-width:0.8;"/>
     </g>
     <g id="line2d_8"/>
     <g id="text_4">
      <!-- 0 -->
      <g style="fill:#262626;" transform="translate(491.552813 551.57101)scale(0.14 -0.14)">
       <defs>
        <path d="M 31.78125 66.40625 
Q 24.171875 66.40625 20.328125 58.90625 
Q 16.5 51.421875 16.5 36.375 
Q 16.5 21.390625 20.328125 13.890625 
Q 24.171875 6.390625 31.78125 6.390625 
Q 39.453125 6.390625 43.28125 13.890625 
Q 47.125 21.390625 47.125 36.375 
Q 47.125 51.421875 43.28125 58.90625 
Q 39.453125 66.40625 31.78125 66.40625 
z
M 31.78125 74.21875 
Q 44.046875 74.21875 50.515625 64.515625 
Q 56.984375 54.828125 56.984375 36.375 
Q 56.984375 17.96875 50.515625 8.265625 
Q 44.046875 -1.421875 31.78125 -1.421875 
Q 19.53125 -1.421875 13.0625 8.265625 
Q 6.59375 17.96875 6.59375 36.375 
Q 6.59375 54.828125 13.0625 64.515625 
Q 19.53125 74.21875 31.78125 74.21875 
z
" id="DejaVuSans-48"/>
       </defs>
       <use xlink:href="#DejaVuSans-48"/>
      </g>
     </g>
    </g>
    <g id="xtick_5">
     <g id="line2d_9">
      <path clip-path="url(#p9c8420a460)" d="M 628.428744 537.433198 
L 628.428744 21.15774 
" style="fill:none;stroke:#ffffff;stroke-linecap:round;stroke-width:0.8;"/>
     </g>
     <g id="line2d_10"/>
     <g id="text_5">
      <!-- 1 -->
      <g style="fill:#262626;" transform="translate(623.974994 551.57101)scale(0.14 -0.14)">
       <use xlink:href="#DejaVuSans-49"/>
      </g>
     </g>
    </g>
    <g id="xtick_6">
     <g id="line2d_11">
      <path clip-path="url(#p9c8420a460)" d="M 760.850925 537.433198 
L 760.850925 21.15774 
" style="fill:none;stroke:#ffffff;stroke-linecap:round;stroke-width:0.8;"/>
     </g>
     <g id="line2d_12"/>
     <g id="text_6">
      <!-- 2 -->
      <g style="fill:#262626;" transform="translate(756.397175 551.57101)scale(0.14 -0.14)">
       <use xlink:href="#DejaVuSans-50"/>
      </g>
     </g>
    </g>
    <g id="xtick_7">
     <g id="line2d_13">
      <path clip-path="url(#p9c8420a460)" d="M 893.273106 537.433198 
L 893.273106 21.15774 
" style="fill:none;stroke:#ffffff;stroke-linecap:round;stroke-width:0.8;"/>
     </g>
     <g id="line2d_14"/>
     <g id="text_7">
      <!-- 3 -->
      <g style="fill:#262626;" transform="translate(888.819356 551.57101)scale(0.14 -0.14)">
       <use xlink:href="#DejaVuSans-51"/>
      </g>
     </g>
    </g>
    <g id="text_8">
     <!-- x (z-scores) -->
     <g style="fill:#262626;" transform="translate(452.633125 569.880229)scale(0.15 -0.15)">
      <defs>
       <path d="M 54.890625 54.6875 
L 35.109375 28.078125 
L 55.90625 0 
L 45.3125 0 
L 29.390625 21.484375 
L 13.484375 0 
L 2.875 0 
L 24.125 28.609375 
L 4.6875 54.6875 
L 15.28125 54.6875 
L 29.78125 35.203125 
L 44.28125 54.6875 
z
" id="DejaVuSans-120"/>
       <path id="DejaVuSans-32"/>
       <path d="M 31 75.875 
Q 24.46875 64.65625 21.28125 53.65625 
Q 18.109375 42.671875 18.109375 31.390625 
Q 18.109375 20.125 21.3125 9.0625 
Q 24.515625 -2 31 -13.1875 
L 23.1875 -13.1875 
Q 15.875 -1.703125 12.234375 9.375 
Q 8.59375 20.453125 8.59375 31.390625 
Q 8.59375 42.28125 12.203125 53.3125 
Q 15.828125 64.359375 23.1875 75.875 
z
" id="DejaVuSans-40"/>
       <path d="M 5.515625 54.6875 
L 48.1875 54.6875 
L 48.1875 46.484375 
L 14.40625 7.171875 
L 48.1875 7.171875 
L 48.1875 0 
L 4.296875 0 
L 4.296875 8.203125 
L 38.09375 47.515625 
L 5.515625 47.515625 
z
" id="DejaVuSans-122"/>
       <path d="M 4.890625 31.390625 
L 31.203125 31.390625 
L 31.203125 23.390625 
L 4.890625 23.390625 
z
" id="DejaVuSans-45"/>
       <path d="M 44.28125 53.078125 
L 44.28125 44.578125 
Q 40.484375 46.53125 36.375 47.5 
Q 32.28125 48.484375 27.875 48.484375 
Q 21.1875 48.484375 17.84375 46.4375 
Q 14.5 44.390625 14.5 40.28125 
Q 14.5 37.15625 16.890625 35.375 
Q 19.28125 33.59375 26.515625 31.984375 
L 29.59375 31.296875 
Q 39.15625 29.25 43.1875 25.515625 
Q 47.21875 21.78125 47.21875 15.09375 
Q 47.21875 7.46875 41.1875 3.015625 
Q 35.15625 -1.421875 24.609375 -1.421875 
Q 20.21875 -1.421875 15.453125 -0.5625 
Q 10.6875 0.296875 5.421875 2 
L 5.421875 11.28125 
Q 10.40625 8.6875 15.234375 7.390625 
Q 20.0625 6.109375 24.8125 6.109375 
Q 31.15625 6.109375 34.5625 8.28125 
Q 37.984375 10.453125 37.984375 14.40625 
Q 37.984375 18.0625 35.515625 20.015625 
Q 33.0625 21.96875 24.703125 23.78125 
L 21.578125 24.515625 
Q 13.234375 26.265625 9.515625 29.90625 
Q 5.8125 33.546875 5.8125 39.890625 
Q 5.8125 47.609375 11.28125 51.796875 
Q 16.75 56 26.8125 56 
Q 31.78125 56 36.171875 55.265625 
Q 40.578125 54.546875 44.28125 53.078125 
z
" id="DejaVuSans-115"/>
       <path d="M 48.78125 52.59375 
L 48.78125 44.1875 
Q 44.96875 46.296875 41.140625 47.34375 
Q 37.3125 48.390625 33.40625 48.390625 
Q 24.65625 48.390625 19.8125 42.84375 
Q 14.984375 37.3125 14.984375 27.296875 
Q 14.984375 17.28125 19.8125 11.734375 
Q 24.65625 6.203125 33.40625 6.203125 
Q 37.3125 6.203125 41.140625 7.25 
Q 44.96875 8.296875 48.78125 10.40625 
L 48.78125 2.09375 
Q 45.015625 0.34375 40.984375 -0.53125 
Q 36.96875 -1.421875 32.421875 -1.421875 
Q 20.0625 -1.421875 12.78125 6.34375 
Q 5.515625 14.109375 5.515625 27.296875 
Q 5.515625 40.671875 12.859375 48.328125 
Q 20.21875 56 33.015625 56 
Q 37.15625 56 41.109375 55.140625 
Q 45.0625 54.296875 48.78125 52.59375 
z
" id="DejaVuSans-99"/>
       <path d="M 30.609375 48.390625 
Q 23.390625 48.390625 19.1875 42.75 
Q 14.984375 37.109375 14.984375 27.296875 
Q 14.984375 17.484375 19.15625 11.84375 
Q 23.34375 6.203125 30.609375 6.203125 
Q 37.796875 6.203125 41.984375 11.859375 
Q 46.1875 17.53125 46.1875 27.296875 
Q 46.1875 37.015625 41.984375 42.703125 
Q 37.796875 48.390625 30.609375 48.390625 
z
M 30.609375 56 
Q 42.328125 56 49.015625 48.375 
Q 55.71875 40.765625 55.71875 27.296875 
Q 55.71875 13.875 49.015625 6.21875 
Q 42.328125 -1.421875 30.609375 -1.421875 
Q 18.84375 -1.421875 12.171875 6.21875 
Q 5.515625 13.875 5.515625 27.296875 
Q 5.515625 40.765625 12.171875 48.375 
Q 18.84375 56 30.609375 56 
z
" id="DejaVuSans-111"/>
       <path d="M 41.109375 46.296875 
Q 39.59375 47.171875 37.8125 47.578125 
Q 36.03125 48 33.890625 48 
Q 26.265625 48 22.1875 43.046875 
Q 18.109375 38.09375 18.109375 28.8125 
L 18.109375 0 
L 9.078125 0 
L 9.078125 54.6875 
L 18.109375 54.6875 
L 18.109375 46.1875 
Q 20.953125 51.171875 25.484375 53.578125 
Q 30.03125 56 36.53125 56 
Q 37.453125 56 38.578125 55.875 
Q 39.703125 55.765625 41.0625 55.515625 
z
" id="DejaVuSans-114"/>
       <path d="M 56.203125 29.59375 
L 56.203125 25.203125 
L 14.890625 25.203125 
Q 15.484375 15.921875 20.484375 11.0625 
Q 25.484375 6.203125 34.421875 6.203125 
Q 39.59375 6.203125 44.453125 7.46875 
Q 49.3125 8.734375 54.109375 11.28125 
L 54.109375 2.78125 
Q 49.265625 0.734375 44.1875 -0.34375 
Q 39.109375 -1.421875 33.890625 -1.421875 
Q 20.796875 -1.421875 13.15625 6.1875 
Q 5.515625 13.8125 5.515625 26.8125 
Q 5.515625 40.234375 12.765625 48.109375 
Q 20.015625 56 32.328125 56 
Q 43.359375 56 49.78125 48.890625 
Q 56.203125 41.796875 56.203125 29.59375 
z
M 47.21875 32.234375 
Q 47.125 39.59375 43.09375 43.984375 
Q 39.0625 48.390625 32.421875 48.390625 
Q 24.90625 48.390625 20.390625 44.140625 
Q 15.875 39.890625 15.1875 32.171875 
z
" id="DejaVuSans-101"/>
       <path d="M 8.015625 75.875 
L 15.828125 75.875 
Q 23.140625 64.359375 26.78125 53.3125 
Q 30.421875 42.28125 30.421875 31.390625 
Q 30.421875 20.453125 26.78125 9.375 
Q 23.140625 -1.703125 15.828125 -13.1875 
L 8.015625 -13.1875 
Q 14.5 -2 17.703125 9.0625 
Q 20.90625 20.125 20.90625 31.390625 
Q 20.90625 42.671875 17.703125 53.65625 
Q 14.5 64.65625 8.015625 75.875 
z
" id="DejaVuSans-41"/>
      </defs>
      <use xlink:href="#DejaVuSans-120"/>
      <use x="59.179688" xlink:href="#DejaVuSans-32"/>
      <use x="90.966797" xlink:href="#DejaVuSans-40"/>
      <use x="129.980469" xlink:href="#DejaVuSans-122"/>
      <use x="182.470703" xlink:href="#DejaVuSans-45"/>
      <use x="218.554688" xlink:href="#DejaVuSans-115"/>
      <use x="270.654297" xlink:href="#DejaVuSans-99"/>
      <use x="325.634766" xlink:href="#DejaVuSans-111"/>
      <use x="386.816406" xlink:href="#DejaVuSans-114"/>
      <use x="425.679688" xlink:href="#DejaVuSans-101"/>
      <use x="487.203125" xlink:href="#DejaVuSans-115"/>
      <use x="539.302734" xlink:href="#DejaVuSans-41"/>
     </g>
    </g>
   </g>
   <g id="matplotlib.axis_2">
    <g id="ytick_1">
     <g id="line2d_15">
      <path clip-path="url(#p9c8420a460)" d="M 59.013365 473.125816 
L 932.99976 473.125816 
" style="fill:none;stroke:#ffffff;stroke-linecap:round;stroke-width:0.8;"/>
     </g>
     <g id="line2d_16"/>
     <g id="text_9">
      <!-- −7.5 -->
      <g style="fill:#262626;" transform="translate(21.517427 478.444722)scale(0.14 -0.14)">
       <defs>
        <path d="M 8.203125 72.90625 
L 55.078125 72.90625 
L 55.078125 68.703125 
L 28.609375 0 
L 18.3125 0 
L 43.21875 64.59375 
L 8.203125 64.59375 
z
" id="DejaVuSans-55"/>
        <path d="M 10.6875 12.40625 
L 21 12.40625 
L 21 0 
L 10.6875 0 
z
" id="DejaVuSans-46"/>
        <path d="M 10.796875 72.90625 
L 49.515625 72.90625 
L 49.515625 64.59375 
L 19.828125 64.59375 
L 19.828125 46.734375 
Q 21.96875 47.46875 24.109375 47.828125 
Q 26.265625 48.1875 28.421875 48.1875 
Q 40.625 48.1875 47.75 41.5 
Q 54.890625 34.8125 54.890625 23.390625 
Q 54.890625 11.625 47.5625 5.09375 
Q 40.234375 -1.421875 26.90625 -1.421875 
Q 22.3125 -1.421875 17.546875 -0.640625 
Q 12.796875 0.140625 7.71875 1.703125 
L 7.71875 11.625 
Q 12.109375 9.234375 16.796875 8.0625 
Q 21.484375 6.890625 26.703125 6.890625 
Q 35.15625 6.890625 40.078125 11.328125 
Q 45.015625 15.765625 45.015625 23.390625 
Q 45.015625 31 40.078125 35.4375 
Q 35.15625 39.890625 26.703125 39.890625 
Q 22.75 39.890625 18.8125 39.015625 
Q 14.890625 38.140625 10.796875 36.28125 
z
" id="DejaVuSans-53"/>
       </defs>
       <use xlink:href="#DejaVuSans-8722"/>
       <use x="83.789062" xlink:href="#DejaVuSans-55"/>
       <use x="147.412109" xlink:href="#DejaVuSans-46"/>
       <use x="179.199219" xlink:href="#DejaVuSans-53"/>
      </g>
     </g>
    </g>
    <g id="ytick_2">
     <g id="line2d_17">
      <path clip-path="url(#p9c8420a460)" d="M 59.013365 405.310421 
L 932.99976 405.310421 
" style="fill:none;stroke:#ffffff;stroke-linecap:round;stroke-width:0.8;"/>
     </g>
     <g id="line2d_18"/>
     <g id="text_10">
      <!-- −5.0 -->
      <g style="fill:#262626;" transform="translate(21.517427 410.629327)scale(0.14 -0.14)">
       <use xlink:href="#DejaVuSans-8722"/>
       <use x="83.789062" xlink:href="#DejaVuSans-53"/>
       <use x="147.412109" xlink:href="#DejaVuSans-46"/>
       <use x="179.199219" xlink:href="#DejaVuSans-48"/>
      </g>
     </g>
    </g>
    <g id="ytick_3">
     <g id="line2d_19">
      <path clip-path="url(#p9c8420a460)" d="M 59.013365 337.495026 
L 932.99976 337.495026 
" style="fill:none;stroke:#ffffff;stroke-linecap:round;stroke-width:0.8;"/>
     </g>
     <g id="line2d_20"/>
     <g id="text_11">
      <!-- −2.5 -->
      <g style="fill:#262626;" transform="translate(21.517427 342.813933)scale(0.14 -0.14)">
       <use xlink:href="#DejaVuSans-8722"/>
       <use x="83.789062" xlink:href="#DejaVuSans-50"/>
       <use x="147.412109" xlink:href="#DejaVuSans-46"/>
       <use x="179.199219" xlink:href="#DejaVuSans-53"/>
      </g>
     </g>
    </g>
    <g id="ytick_4">
     <g id="line2d_21">
      <path clip-path="url(#p9c8420a460)" d="M 59.013365 269.679632 
L 932.99976 269.679632 
" style="fill:none;stroke:#ffffff;stroke-linecap:round;stroke-width:0.8;"/>
     </g>
     <g id="line2d_22"/>
     <g id="text_12">
      <!-- 0.0 -->
      <g style="fill:#262626;" transform="translate(33.24899 274.998538)scale(0.14 -0.14)">
       <use xlink:href="#DejaVuSans-48"/>
       <use x="63.623047" xlink:href="#DejaVuSans-46"/>
       <use x="95.410156" xlink:href="#DejaVuSans-48"/>
      </g>
     </g>
    </g>
    <g id="ytick_5">
     <g id="line2d_23">
      <path clip-path="url(#p9c8420a460)" d="M 59.013365 201.864237 
L 932.99976 201.864237 
" style="fill:none;stroke:#ffffff;stroke-linecap:round;stroke-width:0.8;"/>
     </g>
     <g id="line2d_24"/>
     <g id="text_13">
      <!-- 2.5 -->
      <g style="fill:#262626;" transform="translate(33.24899 207.183143)scale(0.14 -0.14)">
       <use xlink:href="#DejaVuSans-50"/>
       <use x="63.623047" xlink:href="#DejaVuSans-46"/>
       <use x="95.410156" xlink:href="#DejaVuSans-53"/>
      </g>
     </g>
    </g>
    <g id="ytick_6">
     <g id="line2d_25">
      <path clip-path="url(#p9c8420a460)" d="M 59.013365 134.048842 
L 932.99976 134.048842 
" style="fill:none;stroke:#ffffff;stroke-linecap:round;stroke-width:0.8;"/>
     </g>
     <g id="line2d_26"/>
     <g id="text_14">
      <!-- 5.0 -->
      <g style="fill:#262626;" transform="translate(33.24899 139.367748)scale(0.14 -0.14)">
       <use xlink:href="#DejaVuSans-53"/>
       <use x="63.623047" xlink:href="#DejaVuSans-46"/>
       <use x="95.410156" xlink:href="#DejaVuSans-48"/>
      </g>
     </g>
    </g>
    <g id="ytick_7">
     <g id="line2d_27">
      <path clip-path="url(#p9c8420a460)" d="M 59.013365 66.233447 
L 932.99976 66.233447 
" style="fill:none;stroke:#ffffff;stroke-linecap:round;stroke-width:0.8;"/>
     </g>
     <g id="line2d_28"/>
     <g id="text_15">
      <!-- 7.5 -->
      <g style="fill:#262626;" transform="translate(33.24899 71.552353)scale(0.14 -0.14)">
       <use xlink:href="#DejaVuSans-55"/>
       <use x="63.623047" xlink:href="#DejaVuSans-46"/>
       <use x="95.410156" xlink:href="#DejaVuSans-53"/>
      </g>
     </g>
    </g>
    <g id="text_16">
     <!-- Fitted y (z-scores) -->
     <g style="fill:#262626;" transform="translate(14.397896 346.162656)rotate(-90)scale(0.15 -0.15)">
      <defs>
       <path d="M 9.8125 72.90625 
L 51.703125 72.90625 
L 51.703125 64.59375 
L 19.671875 64.59375 
L 19.671875 43.109375 
L 48.578125 43.109375 
L 48.578125 34.8125 
L 19.671875 34.8125 
L 19.671875 0 
L 9.8125 0 
z
" id="DejaVuSans-70"/>
       <path d="M 9.421875 54.6875 
L 18.40625 54.6875 
L 18.40625 0 
L 9.421875 0 
z
M 9.421875 75.984375 
L 18.40625 75.984375 
L 18.40625 64.59375 
L 9.421875 64.59375 
z
" id="DejaVuSans-105"/>
       <path d="M 18.3125 70.21875 
L 18.3125 54.6875 
L 36.8125 54.6875 
L 36.8125 47.703125 
L 18.3125 47.703125 
L 18.3125 18.015625 
Q 18.3125 11.328125 20.140625 9.421875 
Q 21.96875 7.515625 27.59375 7.515625 
L 36.8125 7.515625 
L 36.8125 0 
L 27.59375 0 
Q 17.1875 0 13.234375 3.875 
Q 9.28125 7.765625 9.28125 18.015625 
L 9.28125 47.703125 
L 2.6875 47.703125 
L 2.6875 54.6875 
L 9.28125 54.6875 
L 9.28125 70.21875 
z
" id="DejaVuSans-116"/>
       <path d="M 45.40625 46.390625 
L 45.40625 75.984375 
L 54.390625 75.984375 
L 54.390625 0 
L 45.40625 0 
L 45.40625 8.203125 
Q 42.578125 3.328125 38.25 0.953125 
Q 33.9375 -1.421875 27.875 -1.421875 
Q 17.96875 -1.421875 11.734375 6.484375 
Q 5.515625 14.40625 5.515625 27.296875 
Q 5.515625 40.1875 11.734375 48.09375 
Q 17.96875 56 27.875 56 
Q 33.9375 56 38.25 53.625 
Q 42.578125 51.265625 45.40625 46.390625 
z
M 14.796875 27.296875 
Q 14.796875 17.390625 18.875 11.75 
Q 22.953125 6.109375 30.078125 6.109375 
Q 37.203125 6.109375 41.296875 11.75 
Q 45.40625 17.390625 45.40625 27.296875 
Q 45.40625 37.203125 41.296875 42.84375 
Q 37.203125 48.484375 30.078125 48.484375 
Q 22.953125 48.484375 18.875 42.84375 
Q 14.796875 37.203125 14.796875 27.296875 
z
" id="DejaVuSans-100"/>
       <path d="M 32.171875 -5.078125 
Q 28.375 -14.84375 24.75 -17.8125 
Q 21.140625 -20.796875 15.09375 -20.796875 
L 7.90625 -20.796875 
L 7.90625 -13.28125 
L 13.1875 -13.28125 
Q 16.890625 -13.28125 18.9375 -11.515625 
Q 21 -9.765625 23.484375 -3.21875 
L 25.09375 0.875 
L 2.984375 54.6875 
L 12.5 54.6875 
L 29.59375 11.921875 
L 46.6875 54.6875 
L 56.203125 54.6875 
z
" id="DejaVuSans-121"/>
      </defs>
      <use xlink:href="#DejaVuSans-70"/>
      <use x="50.269531" xlink:href="#DejaVuSans-105"/>
      <use x="78.052734" xlink:href="#DejaVuSans-116"/>
      <use x="117.261719" xlink:href="#DejaVuSans-116"/>
      <use x="156.470703" xlink:href="#DejaVuSans-101"/>
      <use x="217.994141" xlink:href="#DejaVuSans-100"/>
      <use x="281.470703" xlink:href="#DejaVuSans-32"/>
      <use x="313.257812" xlink:href="#DejaVuSans-121"/>
      <use x="372.4375" xlink:href="#DejaVuSans-32"/>
      <use x="404.224609" xlink:href="#DejaVuSans-40"/>
      <use x="443.238281" xlink:href="#DejaVuSans-122"/>
      <use x="495.728516" xlink:href="#DejaVuSans-45"/>
      <use x="531.8125" xlink:href="#DejaVuSans-115"/>
      <use x="583.912109" xlink:href="#DejaVuSans-99"/>
      <use x="638.892578" xlink:href="#DejaVuSans-111"/>
      <use x="700.074219" xlink:href="#DejaVuSans-114"/>
      <use x="738.9375" xlink:href="#DejaVuSans-101"/>
      <use x="800.460938" xlink:href="#DejaVuSans-115"/>
      <use x="852.560547" xlink:href="#DejaVuSans-41"/>
     </g>
    </g>
   </g>
   <g id="line2d_29">
    <path clip-path="url(#p9c8420a460)" d="M 98.740019 348.31563 
L 893.273106 219.467576 
L 893.273106 219.467576 
" style="fill:none;stroke:#0000ff;stroke-linecap:round;stroke-opacity:0.4;stroke-width:1.5;"/>
   </g>
   <g id="line2d_30">
    <path clip-path="url(#p9c8420a460)" d="M 98.740019 291.267944 
L 893.273106 318.737109 
L 893.273106 318.737109 
" style="fill:none;stroke:#0000ff;stroke-linecap:round;stroke-opacity:0.4;stroke-width:1.5;"/>
   </g>
   <g id="line2d_31">
    <path clip-path="url(#p9c8420a460)" d="M 98.740019 240.220924 
L 893.273106 226.353935 
L 893.273106 226.353935 
" style="fill:none;stroke:#0000ff;stroke-linecap:round;stroke-opacity:0.4;stroke-width:1.5;"/>
   </g>
   <g id="line2d_32">
    <path clip-path="url(#p9c8420a460)" d="M 98.740019 286.748703 
L 893.273106 317.707312 
L 893.273106 317.707312 
" style="fill:none;stroke:#0000ff;stroke-linecap:round;stroke-opacity:0.4;stroke-width:1.5;"/>
   </g>
   <g id="line2d_33">
    <path clip-path="url(#p9c8420a460)" d="M 98.740019 341.090413 
L 893.273106 152.627276 
L 893.273106 152.627276 
" style="fill:none;stroke:#0000ff;stroke-linecap:round;stroke-opacity:0.4;stroke-width:1.5;"/>
   </g>
   <g id="line2d_34">
    <path clip-path="url(#p9c8420a460)" d="M 98.740019 187.269968 
L 893.273106 396.719413 
L 893.273106 396.719413 
" style="fill:none;stroke:#0000ff;stroke-linecap:round;stroke-opacity:0.4;stroke-width:1.5;"/>
   </g>
   <g id="line2d_35">
    <path clip-path="url(#p9c8420a460)" d="M 98.740019 288.436777 
L 893.273106 176.182066 
L 893.273106 176.182066 
" style="fill:none;stroke:#0000ff;stroke-linecap:round;stroke-opacity:0.4;stroke-width:1.5;"/>
   </g>
   <g id="line2d_36">
    <path clip-path="url(#p9c8420a460)" d="M 98.740019 184.894074 
L 893.273106 283.871708 
L 893.273106 283.871708 
" style="fill:none;stroke:#0000ff;stroke-linecap:round;stroke-opacity:0.4;stroke-width:1.5;"/>
   </g>
   <g id="line2d_37">
    <path clip-path="url(#p9c8420a460)" d="M 98.740019 159.760588 
L 893.273106 347.274963 
L 893.273106 347.274963 
" style="fill:none;stroke:#0000ff;stroke-linecap:round;stroke-opacity:0.4;stroke-width:1.5;"/>
   </g>
   <g id="line2d_38">
    <path clip-path="url(#p9c8420a460)" d="M 98.740019 315.480275 
L 893.273106 198.763873 
L 893.273106 198.763873 
" style="fill:none;stroke:#0000ff;stroke-linecap:round;stroke-opacity:0.4;stroke-width:1.5;"/>
   </g>
   <g id="line2d_39">
    <path clip-path="url(#p9c8420a460)" d="M 98.740019 412.095521 
L 893.273106 106.653804 
L 893.273106 106.653804 
" style="fill:none;stroke:#0000ff;stroke-linecap:round;stroke-opacity:0.4;stroke-width:1.5;"/>
   </g>
   <g id="line2d_40">
    <path clip-path="url(#p9c8420a460)" d="M 98.740019 179.702085 
L 893.273106 325.695649 
L 893.273106 325.695649 
" style="fill:none;stroke:#0000ff;stroke-linecap:round;stroke-opacity:0.4;stroke-width:1.5;"/>
   </g>
   <g id="line2d_41">
    <path clip-path="url(#p9c8420a460)" d="M 98.740019 261.977005 
L 893.273106 293.743193 
L 893.273106 293.743193 
" style="fill:none;stroke:#0000ff;stroke-linecap:round;stroke-opacity:0.4;stroke-width:1.5;"/>
   </g>
   <g id="line2d_42">
    <path clip-path="url(#p9c8420a460)" d="M 98.740019 326.322749 
L 893.273106 147.56019 
L 893.273106 147.56019 
" style="fill:none;stroke:#0000ff;stroke-linecap:round;stroke-opacity:0.4;stroke-width:1.5;"/>
   </g>
   <g id="line2d_43">
    <path clip-path="url(#p9c8420a460)" d="M 98.740019 215.173835 
L 893.273106 389.970782 
L 893.273106 389.970782 
" style="fill:none;stroke:#0000ff;stroke-linecap:round;stroke-opacity:0.4;stroke-width:1.5;"/>
   </g>
   <g id="line2d_44">
    <path clip-path="url(#p9c8420a460)" d="M 98.740019 333.928471 
L 893.273106 139.388564 
L 893.273106 139.388564 
" style="fill:none;stroke:#0000ff;stroke-linecap:round;stroke-opacity:0.4;stroke-width:1.5;"/>
   </g>
   <g id="line2d_45">
    <path clip-path="url(#p9c8420a460)" d="M 98.740019 194.329183 
L 893.273106 412.48859 
L 893.273106 412.48859 
" style="fill:none;stroke:#0000ff;stroke-linecap:round;stroke-opacity:0.4;stroke-width:1.5;"/>
   </g>
   <g id="line2d_46">
    <path clip-path="url(#p9c8420a460)" d="M 98.740019 312.610008 
L 893.273106 170.872249 
L 893.273106 170.872249 
" style="fill:none;stroke:#0000ff;stroke-linecap:round;stroke-opacity:0.4;stroke-width:1.5;"/>
   </g>
   <g id="line2d_47">
    <path clip-path="url(#p9c8420a460)" d="M 98.740019 80.973096 
L 893.273106 432.90406 
L 893.273106 432.90406 
" style="fill:none;stroke:#0000ff;stroke-linecap:round;stroke-opacity:0.4;stroke-width:1.5;"/>
   </g>
   <g id="line2d_48">
    <path clip-path="url(#p9c8420a460)" d="M 98.740019 179.621485 
L 893.273106 350.312555 
L 893.273106 350.312555 
" style="fill:none;stroke:#0000ff;stroke-linecap:round;stroke-opacity:0.4;stroke-width:1.5;"/>
   </g>
   <g id="line2d_49">
    <path clip-path="url(#p9c8420a460)" d="M 98.740019 214.677404 
L 893.273106 315.880693 
L 893.273106 315.880693 
" style="fill:none;stroke:#0000ff;stroke-linecap:round;stroke-opacity:0.4;stroke-width:1.5;"/>
   </g>
   <g id="line2d_50">
    <path clip-path="url(#p9c8420a460)" d="M 98.740019 244.221835 
L 893.273106 330.320151 
L 893.273106 330.320151 
" style="fill:none;stroke:#0000ff;stroke-linecap:round;stroke-opacity:0.4;stroke-width:1.5;"/>
   </g>
   <g id="line2d_51">
    <path clip-path="url(#p9c8420a460)" d="M 98.740019 279.188992 
L 893.273106 272.271782 
L 893.273106 272.271782 
" style="fill:none;stroke:#0000ff;stroke-linecap:round;stroke-opacity:0.4;stroke-width:1.5;"/>
   </g>
   <g id="line2d_52">
    <path clip-path="url(#p9c8420a460)" d="M 98.740019 267.761754 
L 893.273106 258.98728 
L 893.273106 258.98728 
" style="fill:none;stroke:#0000ff;stroke-linecap:round;stroke-opacity:0.4;stroke-width:1.5;"/>
   </g>
   <g id="line2d_53">
    <path clip-path="url(#p9c8420a460)" d="M 98.740019 295.805621 
L 893.273106 292.682658 
L 893.273106 292.682658 
" style="fill:none;stroke:#0000ff;stroke-linecap:round;stroke-opacity:0.4;stroke-width:1.5;"/>
   </g>
   <g id="line2d_54">
    <path clip-path="url(#p9c8420a460)" d="M 98.740019 230.211815 
L 893.273106 267.694259 
L 893.273106 267.694259 
" style="fill:none;stroke:#0000ff;stroke-linecap:round;stroke-opacity:0.4;stroke-width:1.5;"/>
   </g>
   <g id="line2d_55">
    <path clip-path="url(#p9c8420a460)" d="M 98.740019 239.251635 
L 893.273106 324.26071 
L 893.273106 324.26071 
" style="fill:none;stroke:#0000ff;stroke-linecap:round;stroke-opacity:0.4;stroke-width:1.5;"/>
   </g>
   <g id="line2d_56">
    <path clip-path="url(#p9c8420a460)" d="M 98.740019 246.391869 
L 893.273106 261.604164 
L 893.273106 261.604164 
" style="fill:none;stroke:#0000ff;stroke-linecap:round;stroke-opacity:0.4;stroke-width:1.5;"/>
   </g>
   <g id="line2d_57">
    <path clip-path="url(#p9c8420a460)" d="M 98.740019 255.453973 
L 893.273106 346.792632 
L 893.273106 346.792632 
" style="fill:none;stroke:#0000ff;stroke-linecap:round;stroke-opacity:0.4;stroke-width:1.5;"/>
   </g>
   <g id="line2d_58">
    <path clip-path="url(#p9c8420a460)" d="M 98.740019 275.705366 
L 893.273106 343.080415 
L 893.273106 343.080415 
" style="fill:none;stroke:#0000ff;stroke-linecap:round;stroke-opacity:0.4;stroke-width:1.5;"/>
   </g>
   <g id="line2d_59">
    <path clip-path="url(#p9c8420a460)" d="M 98.740019 260.895859 
L 893.273106 198.764168 
L 893.273106 198.764168 
" style="fill:none;stroke:#0000ff;stroke-linecap:round;stroke-opacity:0.4;stroke-width:1.5;"/>
   </g>
   <g id="line2d_60">
    <path clip-path="url(#p9c8420a460)" d="M 98.740019 329.337106 
L 893.273106 324.029832 
L 893.273106 324.029832 
" style="fill:none;stroke:#0000ff;stroke-linecap:round;stroke-opacity:0.4;stroke-width:1.5;"/>
   </g>
   <g id="line2d_61">
    <path clip-path="url(#p9c8420a460)" d="M 98.740019 165.754388 
L 893.273106 282.705929 
L 893.273106 282.705929 
" style="fill:none;stroke:#0000ff;stroke-linecap:round;stroke-opacity:0.4;stroke-width:1.5;"/>
   </g>
   <g id="line2d_62">
    <path clip-path="url(#p9c8420a460)" d="M 98.740019 142.413288 
L 893.273106 370.987617 
L 893.273106 370.987617 
" style="fill:none;stroke:#0000ff;stroke-linecap:round;stroke-opacity:0.4;stroke-width:1.5;"/>
   </g>
   <g id="line2d_63">
    <path clip-path="url(#p9c8420a460)" d="M 98.740019 356.264173 
L 893.273106 172.541693 
L 893.273106 172.541693 
" style="fill:none;stroke:#0000ff;stroke-linecap:round;stroke-opacity:0.4;stroke-width:1.5;"/>
   </g>
   <g id="line2d_64">
    <path clip-path="url(#p9c8420a460)" d="M 98.740019 44.624806 
L 893.273106 429.138456 
L 893.273106 429.138456 
" style="fill:none;stroke:#0000ff;stroke-linecap:round;stroke-opacity:0.4;stroke-width:1.5;"/>
   </g>
   <g id="line2d_65">
    <path clip-path="url(#p9c8420a460)" d="M 98.740019 196.102904 
L 893.273106 352.581916 
L 893.273106 352.581916 
" style="fill:none;stroke:#0000ff;stroke-linecap:round;stroke-opacity:0.4;stroke-width:1.5;"/>
   </g>
   <g id="line2d_66">
    <path clip-path="url(#p9c8420a460)" d="M 98.740019 133.994701 
L 893.273106 375.014565 
L 893.273106 375.014565 
" style="fill:none;stroke:#0000ff;stroke-linecap:round;stroke-opacity:0.4;stroke-width:1.5;"/>
   </g>
   <g id="line2d_67">
    <path clip-path="url(#p9c8420a460)" d="M 98.740019 401.408543 
L 893.273106 168.230738 
L 893.273106 168.230738 
" style="fill:none;stroke:#0000ff;stroke-linecap:round;stroke-opacity:0.4;stroke-width:1.5;"/>
   </g>
   <g id="line2d_68">
    <path clip-path="url(#p9c8420a460)" d="M 98.740019 99.556235 
L 893.273106 406.243464 
L 893.273106 406.243464 
" style="fill:none;stroke:#0000ff;stroke-linecap:round;stroke-opacity:0.4;stroke-width:1.5;"/>
   </g>
   <g id="line2d_69">
    <path clip-path="url(#p9c8420a460)" d="M 98.740019 106.897879 
L 893.273106 354.867305 
L 893.273106 354.867305 
" style="fill:none;stroke:#0000ff;stroke-linecap:round;stroke-opacity:0.4;stroke-width:1.5;"/>
   </g>
   <g id="line2d_70">
    <path clip-path="url(#p9c8420a460)" d="M 98.740019 155.44782 
L 893.273106 385.528882 
L 893.273106 385.528882 
" style="fill:none;stroke:#0000ff;stroke-linecap:round;stroke-opacity:0.4;stroke-width:1.5;"/>
   </g>
   <g id="line2d_71">
    <path clip-path="url(#p9c8420a460)" d="M 98.740019 379.900276 
L 893.273106 157.573833 
L 893.273106 157.573833 
" style="fill:none;stroke:#0000ff;stroke-linecap:round;stroke-opacity:0.4;stroke-width:1.5;"/>
   </g>
   <g id="line2d_72">
    <path clip-path="url(#p9c8420a460)" d="M 98.740019 219.287139 
L 893.273106 212.903451 
L 893.273106 212.903451 
" style="fill:none;stroke:#0000ff;stroke-linecap:round;stroke-opacity:0.4;stroke-width:1.5;"/>
   </g>
   <g id="line2d_73">
    <path clip-path="url(#p9c8420a460)" d="M 98.740019 160.468112 
L 893.273106 273.498315 
L 893.273106 273.498315 
" style="fill:none;stroke:#0000ff;stroke-linecap:round;stroke-opacity:0.4;stroke-width:1.5;"/>
   </g>
   <g id="line2d_74">
    <path clip-path="url(#p9c8420a460)" d="M 98.740019 203.358324 
L 893.273106 367.356385 
L 893.273106 367.356385 
" style="fill:none;stroke:#0000ff;stroke-linecap:round;stroke-opacity:0.4;stroke-width:1.5;"/>
   </g>
   <g id="line2d_75">
    <path clip-path="url(#p9c8420a460)" d="M 98.740019 214.602098 
L 893.273106 339.098289 
L 893.273106 339.098289 
" style="fill:none;stroke:#0000ff;stroke-linecap:round;stroke-opacity:0.4;stroke-width:1.5;"/>
   </g>
   <g id="line2d_76">
    <path clip-path="url(#p9c8420a460)" d="M 98.740019 236.800024 
L 893.273106 287.112135 
L 893.273106 287.112135 
" style="fill:none;stroke:#0000ff;stroke-linecap:round;stroke-opacity:0.4;stroke-width:1.5;"/>
   </g>
   <g id="line2d_77">
    <path clip-path="url(#p9c8420a460)" d="M 98.740019 299.336774 
L 893.273106 255.941514 
L 893.273106 255.941514 
" style="fill:none;stroke:#0000ff;stroke-linecap:round;stroke-opacity:0.4;stroke-width:1.5;"/>
   </g>
   <g id="line2d_78">
    <path clip-path="url(#p9c8420a460)" d="M 98.740019 236.243703 
L 893.273106 312.229962 
L 893.273106 312.229962 
" style="fill:none;stroke:#0000ff;stroke-linecap:round;stroke-opacity:0.4;stroke-width:1.5;"/>
   </g>
   <g id="line2d_79">
    <path clip-path="url(#p9c8420a460)" d="M 98.740019 315.539002 
L 893.273106 127.871337 
L 893.273106 127.871337 
" style="fill:none;stroke:#0000ff;stroke-linecap:round;stroke-opacity:0.4;stroke-width:1.5;"/>
   </g>
   <g id="line2d_80">
    <path clip-path="url(#p9c8420a460)" d="M 98.740019 362.424899 
L 893.273106 198.492048 
L 893.273106 198.492048 
" style="fill:none;stroke:#0000ff;stroke-linecap:round;stroke-opacity:0.4;stroke-width:1.5;"/>
   </g>
   <g id="line2d_81">
    <path clip-path="url(#p9c8420a460)" d="M 98.740019 393.957205 
L 893.273106 147.76333 
L 893.273106 147.76333 
" style="fill:none;stroke:#0000ff;stroke-linecap:round;stroke-opacity:0.4;stroke-width:1.5;"/>
   </g>
   <g id="line2d_82">
    <path clip-path="url(#p9c8420a460)" d="M 98.740019 409.924535 
L 893.273106 156.886255 
L 893.273106 156.886255 
" style="fill:none;stroke:#0000ff;stroke-linecap:round;stroke-opacity:0.4;stroke-width:1.5;"/>
   </g>
   <g id="line2d_83">
    <path clip-path="url(#p9c8420a460)" d="M 98.740019 268.318281 
L 893.273106 297.101663 
L 893.273106 297.101663 
" style="fill:none;stroke:#0000ff;stroke-linecap:round;stroke-opacity:0.4;stroke-width:1.5;"/>
   </g>
   <g id="line2d_84">
    <path clip-path="url(#p9c8420a460)" d="M 98.740019 297.840527 
L 893.273106 232.246414 
L 893.273106 232.246414 
" style="fill:none;stroke:#0000ff;stroke-linecap:round;stroke-opacity:0.4;stroke-width:1.5;"/>
   </g>
   <g id="line2d_85">
    <path clip-path="url(#p9c8420a460)" d="M 98.740019 242.976 
L 893.273106 306.373005 
L 893.273106 306.373005 
" style="fill:none;stroke:#0000ff;stroke-linecap:round;stroke-opacity:0.4;stroke-width:1.5;"/>
   </g>
   <g id="line2d_86">
    <path clip-path="url(#p9c8420a460)" d="M 98.740019 301.895434 
L 893.273106 249.775622 
L 893.273106 249.775622 
" style="fill:none;stroke:#0000ff;stroke-linecap:round;stroke-opacity:0.4;stroke-width:1.5;"/>
   </g>
   <g id="line2d_87">
    <path clip-path="url(#p9c8420a460)" d="M 98.740019 207.239813 
L 893.273106 281.950493 
L 893.273106 281.950493 
" style="fill:none;stroke:#0000ff;stroke-linecap:round;stroke-opacity:0.4;stroke-width:1.5;"/>
   </g>
   <g id="line2d_88">
    <path clip-path="url(#p9c8420a460)" d="M 98.740019 432.6804 
L 893.273106 65.958576 
L 893.273106 65.958576 
" style="fill:none;stroke:#0000ff;stroke-linecap:round;stroke-opacity:0.4;stroke-width:1.5;"/>
   </g>
   <g id="line2d_89">
    <path clip-path="url(#p9c8420a460)" d="M 98.740019 88.128145 
L 893.273106 369.069386 
L 893.273106 369.069386 
" style="fill:none;stroke:#0000ff;stroke-linecap:round;stroke-opacity:0.4;stroke-width:1.5;"/>
   </g>
   <g id="line2d_90">
    <path clip-path="url(#p9c8420a460)" d="M 98.740019 320.709528 
L 893.273106 302.856123 
L 893.273106 302.856123 
" style="fill:none;stroke:#0000ff;stroke-linecap:round;stroke-opacity:0.4;stroke-width:1.5;"/>
   </g>
   <g id="line2d_91">
    <path clip-path="url(#p9c8420a460)" d="M 98.740019 157.722281 
L 893.273106 372.599133 
L 893.273106 372.599133 
" style="fill:none;stroke:#0000ff;stroke-linecap:round;stroke-opacity:0.4;stroke-width:1.5;"/>
   </g>
   <g id="line2d_92">
    <path clip-path="url(#p9c8420a460)" d="M 98.740019 386.983562 
L 893.273106 160.295673 
L 893.273106 160.295673 
" style="fill:none;stroke:#0000ff;stroke-linecap:round;stroke-opacity:0.4;stroke-width:1.5;"/>
   </g>
   <g id="line2d_93">
    <path clip-path="url(#p9c8420a460)" d="M 98.740019 223.351155 
L 893.273106 241.12601 
L 893.273106 241.12601 
" style="fill:none;stroke:#0000ff;stroke-linecap:round;stroke-opacity:0.4;stroke-width:1.5;"/>
   </g>
   <g id="line2d_94">
    <path clip-path="url(#p9c8420a460)" d="M 98.740019 310.944923 
L 893.273106 296.721494 
L 893.273106 296.721494 
" style="fill:none;stroke:#0000ff;stroke-linecap:round;stroke-opacity:0.4;stroke-width:1.5;"/>
   </g>
   <g id="line2d_95">
    <path clip-path="url(#p9c8420a460)" d="M 98.740019 276.923489 
L 893.273106 257.436204 
L 893.273106 257.436204 
" style="fill:none;stroke:#0000ff;stroke-linecap:round;stroke-opacity:0.4;stroke-width:1.5;"/>
   </g>
   <g id="line2d_96">
    <path clip-path="url(#p9c8420a460)" d="M 98.740019 209.899543 
L 893.273106 394.554951 
L 893.273106 394.554951 
" style="fill:none;stroke:#0000ff;stroke-linecap:round;stroke-opacity:0.4;stroke-width:1.5;"/>
   </g>
   <g id="line2d_97">
    <path clip-path="url(#p9c8420a460)" d="M 98.740019 388.477711 
L 893.273106 144.183637 
L 893.273106 144.183637 
" style="fill:none;stroke:#0000ff;stroke-linecap:round;stroke-opacity:0.4;stroke-width:1.5;"/>
   </g>
   <g id="line2d_98">
    <path clip-path="url(#p9c8420a460)" d="M 98.740019 301.601196 
L 893.273106 178.856449 
L 893.273106 178.856449 
" style="fill:none;stroke:#0000ff;stroke-linecap:round;stroke-opacity:0.4;stroke-width:1.5;"/>
   </g>
   <g id="line2d_99">
    <path clip-path="url(#p9c8420a460)" d="M 98.740019 258.741328 
L 893.273106 268.116026 
L 893.273106 268.116026 
" style="fill:none;stroke:#0000ff;stroke-linecap:round;stroke-opacity:0.4;stroke-width:1.5;"/>
   </g>
   <g id="line2d_100">
    <path clip-path="url(#p9c8420a460)" d="M 98.740019 304.279424 
L 893.273106 268.214738 
L 893.273106 268.214738 
" style="fill:none;stroke:#0000ff;stroke-linecap:round;stroke-opacity:0.4;stroke-width:1.5;"/>
   </g>
   <g id="line2d_101">
    <path clip-path="url(#p9c8420a460)" d="M 98.740019 276.74078 
L 893.273106 190.729758 
L 893.273106 190.729758 
" style="fill:none;stroke:#0000ff;stroke-linecap:round;stroke-opacity:0.4;stroke-width:1.5;"/>
   </g>
   <g id="line2d_102">
    <path clip-path="url(#p9c8420a460)" d="M 98.740019 207.433083 
L 893.273106 404.084966 
L 893.273106 404.084966 
" style="fill:none;stroke:#0000ff;stroke-linecap:round;stroke-opacity:0.4;stroke-width:1.5;"/>
   </g>
   <g id="line2d_103">
    <path clip-path="url(#p9c8420a460)" d="M 98.740019 197.71826 
L 893.273106 337.040547 
L 893.273106 337.040547 
" style="fill:none;stroke:#0000ff;stroke-linecap:round;stroke-opacity:0.4;stroke-width:1.5;"/>
   </g>
   <g id="line2d_104">
    <path clip-path="url(#p9c8420a460)" d="M 98.740019 255.621581 
L 893.273106 293.817927 
L 893.273106 293.817927 
" style="fill:none;stroke:#0000ff;stroke-linecap:round;stroke-opacity:0.4;stroke-width:1.5;"/>
   </g>
   <g id="line2d_105">
    <path clip-path="url(#p9c8420a460)" d="M 98.740019 203.950399 
L 893.273106 294.399725 
L 893.273106 294.399725 
" style="fill:none;stroke:#0000ff;stroke-linecap:round;stroke-opacity:0.4;stroke-width:1.5;"/>
   </g>
   <g id="line2d_106">
    <path clip-path="url(#p9c8420a460)" d="M 98.740019 324.587927 
L 893.273106 282.370595 
L 893.273106 282.370595 
" style="fill:none;stroke:#0000ff;stroke-linecap:round;stroke-opacity:0.4;stroke-width:1.5;"/>
   </g>
   <g id="line2d_107">
    <path clip-path="url(#p9c8420a460)" d="M 98.740019 270.166708 
L 893.273106 210.093626 
L 893.273106 210.093626 
" style="fill:none;stroke:#0000ff;stroke-linecap:round;stroke-opacity:0.4;stroke-width:1.5;"/>
   </g>
   <g id="line2d_108">
    <path clip-path="url(#p9c8420a460)" d="M 98.740019 265.936454 
L 893.273106 332.671886 
L 893.273106 332.671886 
" style="fill:none;stroke:#0000ff;stroke-linecap:round;stroke-opacity:0.4;stroke-width:1.5;"/>
   </g>
   <g id="line2d_109">
    <path clip-path="url(#p9c8420a460)" d="M 98.740019 285.892346 
L 893.273106 155.94464 
L 893.273106 155.94464 
" style="fill:none;stroke:#0000ff;stroke-linecap:round;stroke-opacity:0.4;stroke-width:1.5;"/>
   </g>
   <g id="line2d_110">
    <path clip-path="url(#p9c8420a460)" d="M 98.740019 260.416406 
L 893.273106 375.33352 
L 893.273106 375.33352 
" style="fill:none;stroke:#0000ff;stroke-linecap:round;stroke-opacity:0.4;stroke-width:1.5;"/>
   </g>
   <g id="line2d_111">
    <path clip-path="url(#p9c8420a460)" d="M 98.740019 309.954405 
L 893.273106 356.421133 
L 893.273106 356.421133 
" style="fill:none;stroke:#0000ff;stroke-linecap:round;stroke-opacity:0.4;stroke-width:1.5;"/>
   </g>
   <g id="line2d_112">
    <path clip-path="url(#p9c8420a460)" d="M 98.740019 293.82189 
L 893.273106 178.175108 
L 893.273106 178.175108 
" style="fill:none;stroke:#0000ff;stroke-linecap:round;stroke-opacity:0.4;stroke-width:1.5;"/>
   </g>
   <g id="line2d_113">
    <path clip-path="url(#p9c8420a460)" d="M 98.740019 218.90222 
L 893.273106 376.612907 
L 893.273106 376.612907 
" style="fill:none;stroke:#0000ff;stroke-linecap:round;stroke-opacity:0.4;stroke-width:1.5;"/>
   </g>
   <g id="line2d_114">
    <path clip-path="url(#p9c8420a460)" d="M 98.740019 289.312486 
L 893.273106 207.272737 
L 893.273106 207.272737 
" style="fill:none;stroke:#0000ff;stroke-linecap:round;stroke-opacity:0.4;stroke-width:1.5;"/>
   </g>
   <g id="line2d_115">
    <path clip-path="url(#p9c8420a460)" d="M 98.740019 250.238589 
L 893.273106 333.626589 
L 893.273106 333.626589 
" style="fill:none;stroke:#0000ff;stroke-linecap:round;stroke-opacity:0.4;stroke-width:1.5;"/>
   </g>
   <g id="line2d_116">
    <path clip-path="url(#p9c8420a460)" d="M 98.740019 404.579935 
L 893.273106 106.532499 
L 893.273106 106.532499 
" style="fill:none;stroke:#0000ff;stroke-linecap:round;stroke-opacity:0.4;stroke-width:1.5;"/>
   </g>
   <g id="line2d_117">
    <path clip-path="url(#p9c8420a460)" d="M 98.740019 347.444265 
L 893.273106 167.050365 
L 893.273106 167.050365 
" style="fill:none;stroke:#0000ff;stroke-linecap:round;stroke-opacity:0.4;stroke-width:1.5;"/>
   </g>
   <g id="line2d_118">
    <path clip-path="url(#p9c8420a460)" d="M 98.740019 187.787946 
L 893.273106 374.286959 
L 893.273106 374.286959 
" style="fill:none;stroke:#0000ff;stroke-linecap:round;stroke-opacity:0.4;stroke-width:1.5;"/>
   </g>
   <g id="line2d_119">
    <path clip-path="url(#p9c8420a460)" d="M 98.740019 141.045107 
L 893.273106 513.966131 
L 893.273106 513.966131 
" style="fill:none;stroke:#0000ff;stroke-linecap:round;stroke-opacity:0.4;stroke-width:1.5;"/>
   </g>
   <g id="line2d_120">
    <path clip-path="url(#p9c8420a460)" d="M 98.740019 427.20769 
L 893.273106 45.643924 
L 893.273106 45.643924 
" style="fill:none;stroke:#0000ff;stroke-linecap:round;stroke-opacity:0.4;stroke-width:1.5;"/>
   </g>
   <g id="line2d_121">
    <path clip-path="url(#p9c8420a460)" d="M 98.740019 204.392523 
L 893.273106 373.315402 
L 893.273106 373.315402 
" style="fill:none;stroke:#0000ff;stroke-linecap:round;stroke-opacity:0.4;stroke-width:1.5;"/>
   </g>
   <g id="line2d_122">
    <path clip-path="url(#p9c8420a460)" d="M 98.740019 274.656735 
L 893.273106 200.706289 
L 893.273106 200.706289 
" style="fill:none;stroke:#0000ff;stroke-linecap:round;stroke-opacity:0.4;stroke-width:1.5;"/>
   </g>
   <g id="line2d_123">
    <path clip-path="url(#p9c8420a460)" d="M 98.740019 325.478149 
L 893.273106 207.688581 
L 893.273106 207.688581 
" style="fill:none;stroke:#0000ff;stroke-linecap:round;stroke-opacity:0.4;stroke-width:1.5;"/>
   </g>
   <g id="line2d_124">
    <path clip-path="url(#p9c8420a460)" d="M 98.740019 346.175106 
L 893.273106 250.537944 
L 893.273106 250.537944 
" style="fill:none;stroke:#0000ff;stroke-linecap:round;stroke-opacity:0.4;stroke-width:1.5;"/>
   </g>
   <g id="line2d_125">
    <path clip-path="url(#p9c8420a460)" d="M 98.740019 161.575833 
L 893.273106 373.367361 
L 893.273106 373.367361 
" style="fill:none;stroke:#0000ff;stroke-linecap:round;stroke-opacity:0.4;stroke-width:1.5;"/>
   </g>
   <g id="line2d_126">
    <path clip-path="url(#p9c8420a460)" d="M 98.740019 284.295782 
L 893.273106 239.899735 
L 893.273106 239.899735 
" style="fill:none;stroke:#0000ff;stroke-linecap:round;stroke-opacity:0.4;stroke-width:1.5;"/>
   </g>
   <g id="line2d_127">
    <path clip-path="url(#p9c8420a460)" d="M 98.740019 341.039883 
L 893.273106 231.271572 
L 893.273106 231.271572 
" style="fill:none;stroke:#0000ff;stroke-linecap:round;stroke-opacity:0.4;stroke-width:1.5;"/>
   </g>
   <g id="line2d_128">
    <path clip-path="url(#p9c8420a460)" d="M 98.740019 323.746501 
L 893.273106 208.685454 
L 893.273106 208.685454 
" style="fill:none;stroke:#0000ff;stroke-linecap:round;stroke-opacity:0.4;stroke-width:1.5;"/>
   </g>
   <g id="patch_3">
    <path d="M 59.013365 537.433198 
L 59.013365 21.15774 
" style="fill:none;"/>
   </g>
   <g id="patch_4">
    <path d="M 932.99976 537.433198 
L 932.99976 21.15774 
" style="fill:none;"/>
   </g>
   <g id="patch_5">
    <path d="M 59.013365 537.433198 
L 932.99976 537.433198 
" style="fill:none;"/>
   </g>
   <g id="patch_6">
    <path d="M 59.013365 21.15774 
L 932.99976 21.15774 
" style="fill:none;"/>
   </g>
   <g id="text_17">
    <!-- Prior predictive checks - - Weakly regularizing priors -->
    <g style="fill:#262626;" transform="translate(290.001563 15.15774)scale(0.16 -0.16)">
     <defs>
      <path d="M 19.671875 64.796875 
L 19.671875 37.40625 
L 32.078125 37.40625 
Q 38.96875 37.40625 42.71875 40.96875 
Q 46.484375 44.53125 46.484375 51.125 
Q 46.484375 57.671875 42.71875 61.234375 
Q 38.96875 64.796875 32.078125 64.796875 
z
M 9.8125 72.90625 
L 32.078125 72.90625 
Q 44.34375 72.90625 50.609375 67.359375 
Q 56.890625 61.8125 56.890625 51.125 
Q 56.890625 40.328125 50.609375 34.8125 
Q 44.34375 29.296875 32.078125 29.296875 
L 19.671875 29.296875 
L 19.671875 0 
L 9.8125 0 
z
" id="DejaVuSans-80"/>
      <path d="M 18.109375 8.203125 
L 18.109375 -20.796875 
L 9.078125 -20.796875 
L 9.078125 54.6875 
L 18.109375 54.6875 
L 18.109375 46.390625 
Q 20.953125 51.265625 25.265625 53.625 
Q 29.59375 56 35.59375 56 
Q 45.5625 56 51.78125 48.09375 
Q 58.015625 40.1875 58.015625 27.296875 
Q 58.015625 14.40625 51.78125 6.484375 
Q 45.5625 -1.421875 35.59375 -1.421875 
Q 29.59375 -1.421875 25.265625 0.953125 
Q 20.953125 3.328125 18.109375 8.203125 
z
M 48.6875 27.296875 
Q 48.6875 37.203125 44.609375 42.84375 
Q 40.53125 48.484375 33.40625 48.484375 
Q 26.265625 48.484375 22.1875 42.84375 
Q 18.109375 37.203125 18.109375 27.296875 
Q 18.109375 17.390625 22.1875 11.75 
Q 26.265625 6.109375 33.40625 6.109375 
Q 40.53125 6.109375 44.609375 11.75 
Q 48.6875 17.390625 48.6875 27.296875 
z
" id="DejaVuSans-112"/>
      <path d="M 2.984375 54.6875 
L 12.5 54.6875 
L 29.59375 8.796875 
L 46.6875 54.6875 
L 56.203125 54.6875 
L 35.6875 0 
L 23.484375 0 
z
" id="DejaVuSans-118"/>
      <path d="M 54.890625 33.015625 
L 54.890625 0 
L 45.90625 0 
L 45.90625 32.71875 
Q 45.90625 40.484375 42.875 44.328125 
Q 39.84375 48.1875 33.796875 48.1875 
Q 26.515625 48.1875 22.3125 43.546875 
Q 18.109375 38.921875 18.109375 30.90625 
L 18.109375 0 
L 9.078125 0 
L 9.078125 75.984375 
L 18.109375 75.984375 
L 18.109375 46.1875 
Q 21.34375 51.125 25.703125 53.5625 
Q 30.078125 56 35.796875 56 
Q 45.21875 56 50.046875 50.171875 
Q 54.890625 44.34375 54.890625 33.015625 
z
" id="DejaVuSans-104"/>
      <path d="M 9.078125 75.984375 
L 18.109375 75.984375 
L 18.109375 31.109375 
L 44.921875 54.6875 
L 56.390625 54.6875 
L 27.390625 29.109375 
L 57.625 0 
L 45.90625 0 
L 18.109375 26.703125 
L 18.109375 0 
L 9.078125 0 
z
" id="DejaVuSans-107"/>
      <path d="M 3.328125 72.90625 
L 13.28125 72.90625 
L 28.609375 11.28125 
L 43.890625 72.90625 
L 54.984375 72.90625 
L 70.3125 11.28125 
L 85.59375 72.90625 
L 95.609375 72.90625 
L 77.296875 0 
L 64.890625 0 
L 49.515625 63.28125 
L 33.984375 0 
L 21.578125 0 
z
" id="DejaVuSans-87"/>
      <path d="M 34.28125 27.484375 
Q 23.390625 27.484375 19.1875 25 
Q 14.984375 22.515625 14.984375 16.5 
Q 14.984375 11.71875 18.140625 8.90625 
Q 21.296875 6.109375 26.703125 6.109375 
Q 34.1875 6.109375 38.703125 11.40625 
Q 43.21875 16.703125 43.21875 25.484375 
L 43.21875 27.484375 
z
M 52.203125 31.203125 
L 52.203125 0 
L 43.21875 0 
L 43.21875 8.296875 
Q 40.140625 3.328125 35.546875 0.953125 
Q 30.953125 -1.421875 24.3125 -1.421875 
Q 15.921875 -1.421875 10.953125 3.296875 
Q 6 8.015625 6 15.921875 
Q 6 25.140625 12.171875 29.828125 
Q 18.359375 34.515625 30.609375 34.515625 
L 43.21875 34.515625 
L 43.21875 35.40625 
Q 43.21875 41.609375 39.140625 45 
Q 35.0625 48.390625 27.6875 48.390625 
Q 23 48.390625 18.546875 47.265625 
Q 14.109375 46.140625 10.015625 43.890625 
L 10.015625 52.203125 
Q 14.9375 54.109375 19.578125 55.046875 
Q 24.21875 56 28.609375 56 
Q 40.484375 56 46.34375 49.84375 
Q 52.203125 43.703125 52.203125 31.203125 
z
" id="DejaVuSans-97"/>
      <path d="M 9.421875 75.984375 
L 18.40625 75.984375 
L 18.40625 0 
L 9.421875 0 
z
" id="DejaVuSans-108"/>
      <path d="M 45.40625 27.984375 
Q 45.40625 37.75 41.375 43.109375 
Q 37.359375 48.484375 30.078125 48.484375 
Q 22.859375 48.484375 18.828125 43.109375 
Q 14.796875 37.75 14.796875 27.984375 
Q 14.796875 18.265625 18.828125 12.890625 
Q 22.859375 7.515625 30.078125 7.515625 
Q 37.359375 7.515625 41.375 12.890625 
Q 45.40625 18.265625 45.40625 27.984375 
z
M 54.390625 6.78125 
Q 54.390625 -7.171875 48.1875 -13.984375 
Q 42 -20.796875 29.203125 -20.796875 
Q 24.46875 -20.796875 20.265625 -20.09375 
Q 16.0625 -19.390625 12.109375 -17.921875 
L 12.109375 -9.1875 
Q 16.0625 -11.328125 19.921875 -12.34375 
Q 23.78125 -13.375 27.78125 -13.375 
Q 36.625 -13.375 41.015625 -8.765625 
Q 45.40625 -4.15625 45.40625 5.171875 
L 45.40625 9.625 
Q 42.625 4.78125 38.28125 2.390625 
Q 33.9375 0 27.875 0 
Q 17.828125 0 11.671875 7.65625 
Q 5.515625 15.328125 5.515625 27.984375 
Q 5.515625 40.671875 11.671875 48.328125 
Q 17.828125 56 27.875 56 
Q 33.9375 56 38.28125 53.609375 
Q 42.625 51.21875 45.40625 46.390625 
L 45.40625 54.6875 
L 54.390625 54.6875 
z
" id="DejaVuSans-103"/>
      <path d="M 8.5 21.578125 
L 8.5 54.6875 
L 17.484375 54.6875 
L 17.484375 21.921875 
Q 17.484375 14.15625 20.5 10.265625 
Q 23.53125 6.390625 29.59375 6.390625 
Q 36.859375 6.390625 41.078125 11.03125 
Q 45.3125 15.671875 45.3125 23.6875 
L 45.3125 54.6875 
L 54.296875 54.6875 
L 54.296875 0 
L 45.3125 0 
L 45.3125 8.40625 
Q 42.046875 3.421875 37.71875 1 
Q 33.40625 -1.421875 27.6875 -1.421875 
Q 18.265625 -1.421875 13.375 4.4375 
Q 8.5 10.296875 8.5 21.578125 
z
M 31.109375 56 
z
" id="DejaVuSans-117"/>
      <path d="M 54.890625 33.015625 
L 54.890625 0 
L 45.90625 0 
L 45.90625 32.71875 
Q 45.90625 40.484375 42.875 44.328125 
Q 39.84375 48.1875 33.796875 48.1875 
Q 26.515625 48.1875 22.3125 43.546875 
Q 18.109375 38.921875 18.109375 30.90625 
L 18.109375 0 
L 9.078125 0 
L 9.078125 54.6875 
L 18.109375 54.6875 
L 18.109375 46.1875 
Q 21.34375 51.125 25.703125 53.5625 
Q 30.078125 56 35.796875 56 
Q 45.21875 56 50.046875 50.171875 
Q 54.890625 44.34375 54.890625 33.015625 
z
" id="DejaVuSans-110"/>
     </defs>
     <use xlink:href="#DejaVuSans-80"/>
     <use x="58.552734" xlink:href="#DejaVuSans-114"/>
     <use x="99.666016" xlink:href="#DejaVuSans-105"/>
     <use x="127.449219" xlink:href="#DejaVuSans-111"/>
     <use x="188.630859" xlink:href="#DejaVuSans-114"/>
     <use x="229.744141" xlink:href="#DejaVuSans-32"/>
     <use x="261.53125" xlink:href="#DejaVuSans-112"/>
     <use x="325.007812" xlink:href="#DejaVuSans-114"/>
     <use x="363.871094" xlink:href="#DejaVuSans-101"/>
     <use x="425.394531" xlink:href="#DejaVuSans-100"/>
     <use x="488.871094" xlink:href="#DejaVuSans-105"/>
     <use x="516.654297" xlink:href="#DejaVuSans-99"/>
     <use x="571.634766" xlink:href="#DejaVuSans-116"/>
     <use x="610.84375" xlink:href="#DejaVuSans-105"/>
     <use x="638.626953" xlink:href="#DejaVuSans-118"/>
     <use x="697.806641" xlink:href="#DejaVuSans-101"/>
     <use x="759.330078" xlink:href="#DejaVuSans-32"/>
     <use x="791.117188" xlink:href="#DejaVuSans-99"/>
     <use x="846.097656" xlink:href="#DejaVuSans-104"/>
     <use x="909.476562" xlink:href="#DejaVuSans-101"/>
     <use x="971" xlink:href="#DejaVuSans-99"/>
     <use x="1025.980469" xlink:href="#DejaVuSans-107"/>
     <use x="1083.890625" xlink:href="#DejaVuSans-115"/>
     <use x="1135.990234" xlink:href="#DejaVuSans-32"/>
     <use x="1167.777344" xlink:href="#DejaVuSans-45"/>
     <use x="1203.861328" xlink:href="#DejaVuSans-45"/>
     <use x="1239.945312" xlink:href="#DejaVuSans-32"/>
     <use x="1271.732422" xlink:href="#DejaVuSans-87"/>
     <use x="1364.734375" xlink:href="#DejaVuSans-101"/>
     <use x="1426.257812" xlink:href="#DejaVuSans-97"/>
     <use x="1487.537109" xlink:href="#DejaVuSans-107"/>
     <use x="1545.447266" xlink:href="#DejaVuSans-108"/>
     <use x="1573.230469" xlink:href="#DejaVuSans-121"/>
     <use x="1632.410156" xlink:href="#DejaVuSans-32"/>
     <use x="1664.197266" xlink:href="#DejaVuSans-114"/>
     <use x="1703.060547" xlink:href="#DejaVuSans-101"/>
     <use x="1764.583984" xlink:href="#DejaVuSans-103"/>
     <use x="1828.060547" xlink:href="#DejaVuSans-117"/>
     <use x="1891.439453" xlink:href="#DejaVuSans-108"/>
     <use x="1919.222656" xlink:href="#DejaVuSans-97"/>
     <use x="1980.501953" xlink:href="#DejaVuSans-114"/>
     <use x="2021.615234" xlink:href="#DejaVuSans-105"/>
     <use x="2049.398438" xlink:href="#DejaVuSans-122"/>
     <use x="2101.888672" xlink:href="#DejaVuSans-105"/>
     <use x="2129.671875" xlink:href="#DejaVuSans-110"/>
     <use x="2193.050781" xlink:href="#DejaVuSans-103"/>
     <use x="2256.527344" xlink:href="#DejaVuSans-32"/>
     <use x="2288.314453" xlink:href="#DejaVuSans-112"/>
     <use x="2351.791016" xlink:href="#DejaVuSans-114"/>
     <use x="2392.904297" xlink:href="#DejaVuSans-105"/>
     <use x="2420.6875" xlink:href="#DejaVuSans-111"/>
     <use x="2481.869141" xlink:href="#DejaVuSans-114"/>
     <use x="2522.982422" xlink:href="#DejaVuSans-115"/>
    </g>
   </g>
  </g>
 </g>
 <defs>
  <clipPath id="p9c8420a460">
   <rect height="516.275458" width="873.986395" x="59.013365" y="21.15774"/>
  </clipPath>
 </defs>
</svg>
