<?xml version="1.0" encoding="utf-8" standalone="no"?>
<!DOCTYPE svg PUBLIC "-//W3C//DTD SVG 1.1//EN"
  "http://www.w3.org/Graphics/SVG/1.1/DTD/svg11.dtd">
<!-- Created with matplotlib (https://matplotlib.org/) -->
<svg height="626.4pt" version="1.1" viewBox="0 0 432 626.4" width="432pt" xmlns="http://www.w3.org/2000/svg" xmlns:xlink="http://www.w3.org/1999/xlink">
 <metadata>
  <rdf:RDF xmlns:cc="http://creativecommons.org/ns#" xmlns:dc="http://purl.org/dc/elements/1.1/" xmlns:rdf="http://www.w3.org/1999/02/22-rdf-syntax-ns#">
   <cc:Work>
    <dc:type rdf:resource="http://purl.org/dc/dcmitype/StillImage"/>
    <dc:date>2020-11-11T13:44:32.103358</dc:date>
    <dc:format>image/svg+xml</dc:format>
    <dc:creator>
     <cc:Agent>
      <dc:title>Matplotlib v3.3.2, https://matplotlib.org/</dc:title>
     </cc:Agent>
    </dc:creator>
   </cc:Work>
  </rdf:RDF>
 </metadata>
 <defs>
  <style type="text/css">*{stroke-linecap:butt;stroke-linejoin:round;}</style>
 </defs>
 <g id="figure_1">
  <g id="patch_1">
   <path d="M 0 626.4 
L 432 626.4 
L 432 0 
L 0 0 
z
" style="fill:#ffffff;"/>
  </g>
  <g id="axes_1">
   <g id="patch_2">
    <path d="M 67.573053 606.350385 
L 428.99976 606.350385 
L 428.99976 21.15774 
L 67.573053 21.15774 
z
" style="fill:#eeeeee;"/>
   </g>
   <g id="matplotlib.axis_1">
    <g id="xtick_1">
     <g id="line2d_1">
      <path clip-path="url(#p340b979ada)" d="M 84.383379 606.350385 
L 84.383379 21.15774 
" style="fill:none;stroke:#ffffff;stroke-linecap:round;stroke-width:0.8;"/>
     </g>
     <g id="line2d_2"/>
     <g id="text_1">
      <!-- −1.5 -->
      <g style="fill:#262626;" transform="translate(67.38541 620.488197)scale(0.14 -0.14)">
       <defs>
        <path d="M 10.59375 35.5 
L 73.1875 35.5 
L 73.1875 27.203125 
L 10.59375 27.203125 
z
" id="DejaVuSans-8722"/>
        <path d="M 12.40625 8.296875 
L 28.515625 8.296875 
L 28.515625 63.921875 
L 10.984375 60.40625 
L 10.984375 69.390625 
L 28.421875 72.90625 
L 38.28125 72.90625 
L 38.28125 8.296875 
L 54.390625 8.296875 
L 54.390625 0 
L 12.40625 0 
z
" id="DejaVuSans-49"/>
        <path d="M 10.6875 12.40625 
L 21 12.40625 
L 21 0 
L 10.6875 0 
z
" id="DejaVuSans-46"/>
        <path d="M 10.796875 72.90625 
L 49.515625 72.90625 
L 49.515625 64.59375 
L 19.828125 64.59375 
L 19.828125 46.734375 
Q 21.96875 47.46875 24.109375 47.828125 
Q 26.265625 48.1875 28.421875 48.1875 
Q 40.625 48.1875 47.75 41.5 
Q 54.890625 34.8125 54.890625 23.390625 
Q 54.890625 11.625 47.5625 5.09375 
Q 40.234375 -1.421875 26.90625 -1.421875 
Q 22.3125 -1.421875 17.546875 -0.640625 
Q 12.796875 0.140625 7.71875 1.703125 
L 7.71875 11.625 
Q 12.109375 9.234375 16.796875 8.0625 
Q 21.484375 6.890625 26.703125 6.890625 
Q 35.15625 6.890625 40.078125 11.328125 
Q 45.015625 15.765625 45.015625 23.390625 
Q 45.015625 31 40.078125 35.4375 
Q 35.15625 39.890625 26.703125 39.890625 
Q 22.75 39.890625 18.8125 39.015625 
Q 14.890625 38.140625 10.796875 36.28125 
z
" id="DejaVuSans-53"/>
       </defs>
       <use xlink:href="#DejaVuSans-8722"/>
       <use x="83.789062" xlink:href="#DejaVuSans-49"/>
       <use x="147.412109" xlink:href="#DejaVuSans-46"/>
       <use x="179.199219" xlink:href="#DejaVuSans-53"/>
      </g>
     </g>
    </g>
    <g id="xtick_2">
     <g id="line2d_3">
      <path clip-path="url(#p340b979ada)" d="M 136.146512 606.350385 
L 136.146512 21.15774 
" style="fill:none;stroke:#ffffff;stroke-linecap:round;stroke-width:0.8;"/>
     </g>
     <g id="line2d_4"/>
     <g id="text_2">
      <!-- −1.0 -->
      <g style="fill:#262626;" transform="translate(119.148543 620.488197)scale(0.14 -0.14)">
       <defs>
        <path d="M 31.78125 66.40625 
Q 24.171875 66.40625 20.328125 58.90625 
Q 16.5 51.421875 16.5 36.375 
Q 16.5 21.390625 20.328125 13.890625 
Q 24.171875 6.390625 31.78125 6.390625 
Q 39.453125 6.390625 43.28125 13.890625 
Q 47.125 21.390625 47.125 36.375 
Q 47.125 51.421875 43.28125 58.90625 
Q 39.453125 66.40625 31.78125 66.40625 
z
M 31.78125 74.21875 
Q 44.046875 74.21875 50.515625 64.515625 
Q 56.984375 54.828125 56.984375 36.375 
Q 56.984375 17.96875 50.515625 8.265625 
Q 44.046875 -1.421875 31.78125 -1.421875 
Q 19.53125 -1.421875 13.0625 8.265625 
Q 6.59375 17.96875 6.59375 36.375 
Q 6.59375 54.828125 13.0625 64.515625 
Q 19.53125 74.21875 31.78125 74.21875 
z
" id="DejaVuSans-48"/>
       </defs>
       <use xlink:href="#DejaVuSans-8722"/>
       <use x="83.789062" xlink:href="#DejaVuSans-49"/>
       <use x="147.412109" xlink:href="#DejaVuSans-46"/>
       <use x="179.199219" xlink:href="#DejaVuSans-48"/>
      </g>
     </g>
    </g>
    <g id="xtick_3">
     <g id="line2d_5">
      <path clip-path="url(#p340b979ada)" d="M 187.909644 606.350385 
L 187.909644 21.15774 
" style="fill:none;stroke:#ffffff;stroke-linecap:round;stroke-width:0.8;"/>
     </g>
     <g id="line2d_6"/>
     <g id="text_3">
      <!-- −0.5 -->
      <g style="fill:#262626;" transform="translate(170.911676 620.488197)scale(0.14 -0.14)">
       <use xlink:href="#DejaVuSans-8722"/>
       <use x="83.789062" xlink:href="#DejaVuSans-48"/>
       <use x="147.412109" xlink:href="#DejaVuSans-46"/>
       <use x="179.199219" xlink:href="#DejaVuSans-53"/>
      </g>
     </g>
    </g>
    <g id="xtick_4">
     <g id="line2d_7">
      <path clip-path="url(#p340b979ada)" d="M 239.672777 606.350385 
L 239.672777 21.15774 
" style="fill:none;stroke:#ffffff;stroke-linecap:round;stroke-width:0.8;"/>
     </g>
     <g id="line2d_8"/>
     <g id="text_4">
      <!-- 0.0 -->
      <g style="fill:#262626;" transform="translate(228.540589 620.488197)scale(0.14 -0.14)">
       <use xlink:href="#DejaVuSans-48"/>
       <use x="63.623047" xlink:href="#DejaVuSans-46"/>
       <use x="95.410156" xlink:href="#DejaVuSans-48"/>
      </g>
     </g>
    </g>
    <g id="xtick_5">
     <g id="line2d_9">
      <path clip-path="url(#p340b979ada)" d="M 291.43591 606.350385 
L 291.43591 21.15774 
" style="fill:none;stroke:#ffffff;stroke-linecap:round;stroke-width:0.8;"/>
     </g>
     <g id="line2d_10"/>
     <g id="text_5">
      <!-- 0.5 -->
      <g style="fill:#262626;" transform="translate(280.303722 620.488197)scale(0.14 -0.14)">
       <use xlink:href="#DejaVuSans-48"/>
       <use x="63.623047" xlink:href="#DejaVuSans-46"/>
       <use x="95.410156" xlink:href="#DejaVuSans-53"/>
      </g>
     </g>
    </g>
    <g id="xtick_6">
     <g id="line2d_11">
      <path clip-path="url(#p340b979ada)" d="M 343.199042 606.350385 
L 343.199042 21.15774 
" style="fill:none;stroke:#ffffff;stroke-linecap:round;stroke-width:0.8;"/>
     </g>
     <g id="line2d_12"/>
     <g id="text_6">
      <!-- 1.0 -->
      <g style="fill:#262626;" transform="translate(332.066855 620.488197)scale(0.14 -0.14)">
       <use xlink:href="#DejaVuSans-49"/>
       <use x="63.623047" xlink:href="#DejaVuSans-46"/>
       <use x="95.410156" xlink:href="#DejaVuSans-48"/>
      </g>
     </g>
    </g>
    <g id="xtick_7">
     <g id="line2d_13">
      <path clip-path="url(#p340b979ada)" d="M 394.962175 606.350385 
L 394.962175 21.15774 
" style="fill:none;stroke:#ffffff;stroke-linecap:round;stroke-width:0.8;"/>
     </g>
     <g id="line2d_14"/>
     <g id="text_7">
      <!-- 1.5 -->
      <g style="fill:#262626;" transform="translate(383.829987 620.488197)scale(0.14 -0.14)">
       <use xlink:href="#DejaVuSans-49"/>
       <use x="63.623047" xlink:href="#DejaVuSans-46"/>
       <use x="95.410156" xlink:href="#DejaVuSans-53"/>
      </g>
     </g>
    </g>
   </g>
   <g id="matplotlib.axis_2">
    <g id="ytick_1">
     <g id="text_8">
      <!-- sigma -->
      <g style="fill:#262626;" transform="translate(21.78649 600.627921)scale(0.14 -0.14)">
       <defs>
        <path d="M 44.28125 53.078125 
L 44.28125 44.578125 
Q 40.484375 46.53125 36.375 47.5 
Q 32.28125 48.484375 27.875 48.484375 
Q 21.1875 48.484375 17.84375 46.4375 
Q 14.5 44.390625 14.5 40.28125 
Q 14.5 37.15625 16.890625 35.375 
Q 19.28125 33.59375 26.515625 31.984375 
L 29.59375 31.296875 
Q 39.15625 29.25 43.1875 25.515625 
Q 47.21875 21.78125 47.21875 15.09375 
Q 47.21875 7.46875 41.1875 3.015625 
Q 35.15625 -1.421875 24.609375 -1.421875 
Q 20.21875 -1.421875 15.453125 -0.5625 
Q 10.6875 0.296875 5.421875 2 
L 5.421875 11.28125 
Q 10.40625 8.6875 15.234375 7.390625 
Q 20.0625 6.109375 24.8125 6.109375 
Q 31.15625 6.109375 34.5625 8.28125 
Q 37.984375 10.453125 37.984375 14.40625 
Q 37.984375 18.0625 35.515625 20.015625 
Q 33.0625 21.96875 24.703125 23.78125 
L 21.578125 24.515625 
Q 13.234375 26.265625 9.515625 29.90625 
Q 5.8125 33.546875 5.8125 39.890625 
Q 5.8125 47.609375 11.28125 51.796875 
Q 16.75 56 26.8125 56 
Q 31.78125 56 36.171875 55.265625 
Q 40.578125 54.546875 44.28125 53.078125 
z
" id="DejaVuSans-115"/>
        <path d="M 9.421875 54.6875 
L 18.40625 54.6875 
L 18.40625 0 
L 9.421875 0 
z
M 9.421875 75.984375 
L 18.40625 75.984375 
L 18.40625 64.59375 
L 9.421875 64.59375 
z
" id="DejaVuSans-105"/>
        <path d="M 45.40625 27.984375 
Q 45.40625 37.75 41.375 43.109375 
Q 37.359375 48.484375 30.078125 48.484375 
Q 22.859375 48.484375 18.828125 43.109375 
Q 14.796875 37.75 14.796875 27.984375 
Q 14.796875 18.265625 18.828125 12.890625 
Q 22.859375 7.515625 30.078125 7.515625 
Q 37.359375 7.515625 41.375 12.890625 
Q 45.40625 18.265625 45.40625 27.984375 
z
M 54.390625 6.78125 
Q 54.390625 -7.171875 48.1875 -13.984375 
Q 42 -20.796875 29.203125 -20.796875 
Q 24.46875 -20.796875 20.265625 -20.09375 
Q 16.0625 -19.390625 12.109375 -17.921875 
L 12.109375 -9.1875 
Q 16.0625 -11.328125 19.921875 -12.34375 
Q 23.78125 -13.375 27.78125 -13.375 
Q 36.625 -13.375 41.015625 -8.765625 
Q 45.40625 -4.15625 45.40625 5.171875 
L 45.40625 9.625 
Q 42.625 4.78125 38.28125 2.390625 
Q 33.9375 0 27.875 0 
Q 17.828125 0 11.671875 7.65625 
Q 5.515625 15.328125 5.515625 27.984375 
Q 5.515625 40.671875 11.671875 48.328125 
Q 17.828125 56 27.875 56 
Q 33.9375 56 38.28125 53.609375 
Q 42.625 51.21875 45.40625 46.390625 
L 45.40625 54.6875 
L 54.390625 54.6875 
z
" id="DejaVuSans-103"/>
        <path d="M 52 44.1875 
Q 55.375 50.25 60.0625 53.125 
Q 64.75 56 71.09375 56 
Q 79.640625 56 84.28125 50.015625 
Q 88.921875 44.046875 88.921875 33.015625 
L 88.921875 0 
L 79.890625 0 
L 79.890625 32.71875 
Q 79.890625 40.578125 77.09375 44.375 
Q 74.3125 48.1875 68.609375 48.1875 
Q 61.625 48.1875 57.5625 43.546875 
Q 53.515625 38.921875 53.515625 30.90625 
L 53.515625 0 
L 44.484375 0 
L 44.484375 32.71875 
Q 44.484375 40.625 41.703125 44.40625 
Q 38.921875 48.1875 33.109375 48.1875 
Q 26.21875 48.1875 22.15625 43.53125 
Q 18.109375 38.875 18.109375 30.90625 
L 18.109375 0 
L 9.078125 0 
L 9.078125 54.6875 
L 18.109375 54.6875 
L 18.109375 46.1875 
Q 21.1875 51.21875 25.484375 53.609375 
Q 29.78125 56 35.6875 56 
Q 41.65625 56 45.828125 52.96875 
Q 50 49.953125 52 44.1875 
z
" id="DejaVuSans-109"/>
        <path d="M 34.28125 27.484375 
Q 23.390625 27.484375 19.1875 25 
Q 14.984375 22.515625 14.984375 16.5 
Q 14.984375 11.71875 18.140625 8.90625 
Q 21.296875 6.109375 26.703125 6.109375 
Q 34.1875 6.109375 38.703125 11.40625 
Q 43.21875 16.703125 43.21875 25.484375 
L 43.21875 27.484375 
z
M 52.203125 31.203125 
L 52.203125 0 
L 43.21875 0 
L 43.21875 8.296875 
Q 40.140625 3.328125 35.546875 0.953125 
Q 30.953125 -1.421875 24.3125 -1.421875 
Q 15.921875 -1.421875 10.953125 3.296875 
Q 6 8.015625 6 15.921875 
Q 6 25.140625 12.171875 29.828125 
Q 18.359375 34.515625 30.609375 34.515625 
L 43.21875 34.515625 
L 43.21875 35.40625 
Q 43.21875 41.609375 39.140625 45 
Q 35.0625 48.390625 27.6875 48.390625 
Q 23 48.390625 18.546875 47.265625 
Q 14.109375 46.140625 10.015625 43.890625 
L 10.015625 52.203125 
Q 14.9375 54.109375 19.578125 55.046875 
Q 24.21875 56 28.609375 56 
Q 40.484375 56 46.34375 49.84375 
Q 52.203125 43.703125 52.203125 31.203125 
z
" id="DejaVuSans-97"/>
       </defs>
       <use xlink:href="#DejaVuSans-115"/>
       <use x="52.099609" xlink:href="#DejaVuSans-105"/>
       <use x="79.882812" xlink:href="#DejaVuSans-103"/>
       <use x="143.359375" xlink:href="#DejaVuSans-109"/>
       <use x="240.771484" xlink:href="#DejaVuSans-97"/>
      </g>
     </g>
    </g>
    <g id="ytick_2">
     <g id="text_9">
      <!-- beta -->
      <g style="fill:#262626;" transform="translate(32.503052 567.503809)scale(0.14 -0.14)">
       <defs>
        <path d="M 48.6875 27.296875 
Q 48.6875 37.203125 44.609375 42.84375 
Q 40.53125 48.484375 33.40625 48.484375 
Q 26.265625 48.484375 22.1875 42.84375 
Q 18.109375 37.203125 18.109375 27.296875 
Q 18.109375 17.390625 22.1875 11.75 
Q 26.265625 6.109375 33.40625 6.109375 
Q 40.53125 6.109375 44.609375 11.75 
Q 48.6875 17.390625 48.6875 27.296875 
z
M 18.109375 46.390625 
Q 20.953125 51.265625 25.265625 53.625 
Q 29.59375 56 35.59375 56 
Q 45.5625 56 51.78125 48.09375 
Q 58.015625 40.1875 58.015625 27.296875 
Q 58.015625 14.40625 51.78125 6.484375 
Q 45.5625 -1.421875 35.59375 -1.421875 
Q 29.59375 -1.421875 25.265625 0.953125 
Q 20.953125 3.328125 18.109375 8.203125 
L 18.109375 0 
L 9.078125 0 
L 9.078125 75.984375 
L 18.109375 75.984375 
z
" id="DejaVuSans-98"/>
        <path d="M 56.203125 29.59375 
L 56.203125 25.203125 
L 14.890625 25.203125 
Q 15.484375 15.921875 20.484375 11.0625 
Q 25.484375 6.203125 34.421875 6.203125 
Q 39.59375 6.203125 44.453125 7.46875 
Q 49.3125 8.734375 54.109375 11.28125 
L 54.109375 2.78125 
Q 49.265625 0.734375 44.1875 -0.34375 
Q 39.109375 -1.421875 33.890625 -1.421875 
Q 20.796875 -1.421875 13.15625 6.1875 
Q 5.515625 13.8125 5.515625 26.8125 
Q 5.515625 40.234375 12.765625 48.109375 
Q 20.015625 56 32.328125 56 
Q 43.359375 56 49.78125 48.890625 
Q 56.203125 41.796875 56.203125 29.59375 
z
M 47.21875 32.234375 
Q 47.125 39.59375 43.09375 43.984375 
Q 39.0625 48.390625 32.421875 48.390625 
Q 24.90625 48.390625 20.390625 44.140625 
Q 15.875 39.890625 15.1875 32.171875 
z
" id="DejaVuSans-101"/>
        <path d="M 18.3125 70.21875 
L 18.3125 54.6875 
L 36.8125 54.6875 
L 36.8125 47.703125 
L 18.3125 47.703125 
L 18.3125 18.015625 
Q 18.3125 11.328125 20.140625 9.421875 
Q 21.96875 7.515625 27.59375 7.515625 
L 36.8125 7.515625 
L 36.8125 0 
L 27.59375 0 
Q 17.1875 0 13.234375 3.875 
Q 9.28125 7.765625 9.28125 18.015625 
L 9.28125 47.703125 
L 2.6875 47.703125 
L 2.6875 54.6875 
L 9.28125 54.6875 
L 9.28125 70.21875 
z
" id="DejaVuSans-116"/>
       </defs>
       <use xlink:href="#DejaVuSans-98"/>
       <use x="63.476562" xlink:href="#DejaVuSans-101"/>
       <use x="125" xlink:href="#DejaVuSans-116"/>
       <use x="164.208984" xlink:href="#DejaVuSans-97"/>
      </g>
     </g>
    </g>
    <g id="ytick_3">
     <g id="text_10">
      <!-- alpha 24 -->
      <g style="fill:#262626;" transform="translate(3.00024 534.379697)scale(0.14 -0.14)">
       <defs>
        <path d="M 9.421875 75.984375 
L 18.40625 75.984375 
L 18.40625 0 
L 9.421875 0 
z
" id="DejaVuSans-108"/>
        <path d="M 18.109375 8.203125 
L 18.109375 -20.796875 
L 9.078125 -20.796875 
L 9.078125 54.6875 
L 18.109375 54.6875 
L 18.109375 46.390625 
Q 20.953125 51.265625 25.265625 53.625 
Q 29.59375 56 35.59375 56 
Q 45.5625 56 51.78125 48.09375 
Q 58.015625 40.1875 58.015625 27.296875 
Q 58.015625 14.40625 51.78125 6.484375 
Q 45.5625 -1.421875 35.59375 -1.421875 
Q 29.59375 -1.421875 25.265625 0.953125 
Q 20.953125 3.328125 18.109375 8.203125 
z
M 48.6875 27.296875 
Q 48.6875 37.203125 44.609375 42.84375 
Q 40.53125 48.484375 33.40625 48.484375 
Q 26.265625 48.484375 22.1875 42.84375 
Q 18.109375 37.203125 18.109375 27.296875 
Q 18.109375 17.390625 22.1875 11.75 
Q 26.265625 6.109375 33.40625 6.109375 
Q 40.53125 6.109375 44.609375 11.75 
Q 48.6875 17.390625 48.6875 27.296875 
z
" id="DejaVuSans-112"/>
        <path d="M 54.890625 33.015625 
L 54.890625 0 
L 45.90625 0 
L 45.90625 32.71875 
Q 45.90625 40.484375 42.875 44.328125 
Q 39.84375 48.1875 33.796875 48.1875 
Q 26.515625 48.1875 22.3125 43.546875 
Q 18.109375 38.921875 18.109375 30.90625 
L 18.109375 0 
L 9.078125 0 
L 9.078125 75.984375 
L 18.109375 75.984375 
L 18.109375 46.1875 
Q 21.34375 51.125 25.703125 53.5625 
Q 30.078125 56 35.796875 56 
Q 45.21875 56 50.046875 50.171875 
Q 54.890625 44.34375 54.890625 33.015625 
z
" id="DejaVuSans-104"/>
        <path id="DejaVuSans-32"/>
        <path d="M 19.1875 8.296875 
L 53.609375 8.296875 
L 53.609375 0 
L 7.328125 0 
L 7.328125 8.296875 
Q 12.9375 14.109375 22.625 23.890625 
Q 32.328125 33.6875 34.8125 36.53125 
Q 39.546875 41.84375 41.421875 45.53125 
Q 43.3125 49.21875 43.3125 52.78125 
Q 43.3125 58.59375 39.234375 62.25 
Q 35.15625 65.921875 28.609375 65.921875 
Q 23.96875 65.921875 18.8125 64.3125 
Q 13.671875 62.703125 7.8125 59.421875 
L 7.8125 69.390625 
Q 13.765625 71.78125 18.9375 73 
Q 24.125 74.21875 28.421875 74.21875 
Q 39.75 74.21875 46.484375 68.546875 
Q 53.21875 62.890625 53.21875 53.421875 
Q 53.21875 48.921875 51.53125 44.890625 
Q 49.859375 40.875 45.40625 35.40625 
Q 44.1875 33.984375 37.640625 27.21875 
Q 31.109375 20.453125 19.1875 8.296875 
z
" id="DejaVuSans-50"/>
        <path d="M 37.796875 64.3125 
L 12.890625 25.390625 
L 37.796875 25.390625 
z
M 35.203125 72.90625 
L 47.609375 72.90625 
L 47.609375 25.390625 
L 58.015625 25.390625 
L 58.015625 17.1875 
L 47.609375 17.1875 
L 47.609375 0 
L 37.796875 0 
L 37.796875 17.1875 
L 4.890625 17.1875 
L 4.890625 26.703125 
z
" id="DejaVuSans-52"/>
       </defs>
       <use xlink:href="#DejaVuSans-97"/>
       <use x="61.279297" xlink:href="#DejaVuSans-108"/>
       <use x="89.0625" xlink:href="#DejaVuSans-112"/>
       <use x="152.539062" xlink:href="#DejaVuSans-104"/>
       <use x="215.917969" xlink:href="#DejaVuSans-97"/>
       <use x="277.197266" xlink:href="#DejaVuSans-32"/>
       <use x="308.984375" xlink:href="#DejaVuSans-50"/>
       <use x="372.607422" xlink:href="#DejaVuSans-52"/>
      </g>
     </g>
    </g>
    <g id="ytick_4">
     <g id="text_11">
      <!-- alpha 23 -->
      <g style="fill:#262626;" transform="translate(3.00024 514.137184)scale(0.14 -0.14)">
       <defs>
        <path d="M 40.578125 39.3125 
Q 47.65625 37.796875 51.625 33 
Q 55.609375 28.21875 55.609375 21.1875 
Q 55.609375 10.40625 48.1875 4.484375 
Q 40.765625 -1.421875 27.09375 -1.421875 
Q 22.515625 -1.421875 17.65625 -0.515625 
Q 12.796875 0.390625 7.625 2.203125 
L 7.625 11.71875 
Q 11.71875 9.328125 16.59375 8.109375 
Q 21.484375 6.890625 26.8125 6.890625 
Q 36.078125 6.890625 40.9375 10.546875 
Q 45.796875 14.203125 45.796875 21.1875 
Q 45.796875 27.640625 41.28125 31.265625 
Q 36.765625 34.90625 28.71875 34.90625 
L 20.21875 34.90625 
L 20.21875 43.015625 
L 29.109375 43.015625 
Q 36.375 43.015625 40.234375 45.921875 
Q 44.09375 48.828125 44.09375 54.296875 
Q 44.09375 59.90625 40.109375 62.90625 
Q 36.140625 65.921875 28.71875 65.921875 
Q 24.65625 65.921875 20.015625 65.03125 
Q 15.375 64.15625 9.8125 62.3125 
L 9.8125 71.09375 
Q 15.4375 72.65625 20.34375 73.4375 
Q 25.25 74.21875 29.59375 74.21875 
Q 40.828125 74.21875 47.359375 69.109375 
Q 53.90625 64.015625 53.90625 55.328125 
Q 53.90625 49.265625 50.4375 45.09375 
Q 46.96875 40.921875 40.578125 39.3125 
z
" id="DejaVuSans-51"/>
       </defs>
       <use xlink:href="#DejaVuSans-97"/>
       <use x="61.279297" xlink:href="#DejaVuSans-108"/>
       <use x="89.0625" xlink:href="#DejaVuSans-112"/>
       <use x="152.539062" xlink:href="#DejaVuSans-104"/>
       <use x="215.917969" xlink:href="#DejaVuSans-97"/>
       <use x="277.197266" xlink:href="#DejaVuSans-32"/>
       <use x="308.984375" xlink:href="#DejaVuSans-50"/>
       <use x="372.607422" xlink:href="#DejaVuSans-51"/>
      </g>
     </g>
    </g>
    <g id="ytick_5">
     <g id="text_12">
      <!-- alpha 22 -->
      <g style="fill:#262626;" transform="translate(3.00024 493.894671)scale(0.14 -0.14)">
       <use xlink:href="#DejaVuSans-97"/>
       <use x="61.279297" xlink:href="#DejaVuSans-108"/>
       <use x="89.0625" xlink:href="#DejaVuSans-112"/>
       <use x="152.539062" xlink:href="#DejaVuSans-104"/>
       <use x="215.917969" xlink:href="#DejaVuSans-97"/>
       <use x="277.197266" xlink:href="#DejaVuSans-32"/>
       <use x="308.984375" xlink:href="#DejaVuSans-50"/>
       <use x="372.607422" xlink:href="#DejaVuSans-50"/>
      </g>
     </g>
    </g>
    <g id="ytick_6">
     <g id="text_13">
      <!-- alpha 21 -->
      <g style="fill:#262626;" transform="translate(3.00024 473.652158)scale(0.14 -0.14)">
       <use xlink:href="#DejaVuSans-97"/>
       <use x="61.279297" xlink:href="#DejaVuSans-108"/>
       <use x="89.0625" xlink:href="#DejaVuSans-112"/>
       <use x="152.539062" xlink:href="#DejaVuSans-104"/>
       <use x="215.917969" xlink:href="#DejaVuSans-97"/>
       <use x="277.197266" xlink:href="#DejaVuSans-32"/>
       <use x="308.984375" xlink:href="#DejaVuSans-50"/>
       <use x="372.607422" xlink:href="#DejaVuSans-49"/>
      </g>
     </g>
    </g>
    <g id="ytick_7">
     <g id="text_14">
      <!-- alpha 20 -->
      <g style="fill:#262626;" transform="translate(3.00024 453.409645)scale(0.14 -0.14)">
       <use xlink:href="#DejaVuSans-97"/>
       <use x="61.279297" xlink:href="#DejaVuSans-108"/>
       <use x="89.0625" xlink:href="#DejaVuSans-112"/>
       <use x="152.539062" xlink:href="#DejaVuSans-104"/>
       <use x="215.917969" xlink:href="#DejaVuSans-97"/>
       <use x="277.197266" xlink:href="#DejaVuSans-32"/>
       <use x="308.984375" xlink:href="#DejaVuSans-50"/>
       <use x="372.607422" xlink:href="#DejaVuSans-48"/>
      </g>
     </g>
    </g>
    <g id="ytick_8">
     <g id="text_15">
      <!-- alpha 19 -->
      <g style="fill:#262626;" transform="translate(3.00024 433.167132)scale(0.14 -0.14)">
       <defs>
        <path d="M 10.984375 1.515625 
L 10.984375 10.5 
Q 14.703125 8.734375 18.5 7.8125 
Q 22.3125 6.890625 25.984375 6.890625 
Q 35.75 6.890625 40.890625 13.453125 
Q 46.046875 20.015625 46.78125 33.40625 
Q 43.953125 29.203125 39.59375 26.953125 
Q 35.25 24.703125 29.984375 24.703125 
Q 19.046875 24.703125 12.671875 31.3125 
Q 6.296875 37.9375 6.296875 49.421875 
Q 6.296875 60.640625 12.9375 67.421875 
Q 19.578125 74.21875 30.609375 74.21875 
Q 43.265625 74.21875 49.921875 64.515625 
Q 56.59375 54.828125 56.59375 36.375 
Q 56.59375 19.140625 48.40625 8.859375 
Q 40.234375 -1.421875 26.421875 -1.421875 
Q 22.703125 -1.421875 18.890625 -0.6875 
Q 15.09375 0.046875 10.984375 1.515625 
z
M 30.609375 32.421875 
Q 37.25 32.421875 41.125 36.953125 
Q 45.015625 41.5 45.015625 49.421875 
Q 45.015625 57.28125 41.125 61.84375 
Q 37.25 66.40625 30.609375 66.40625 
Q 23.96875 66.40625 20.09375 61.84375 
Q 16.21875 57.28125 16.21875 49.421875 
Q 16.21875 41.5 20.09375 36.953125 
Q 23.96875 32.421875 30.609375 32.421875 
z
" id="DejaVuSans-57"/>
       </defs>
       <use xlink:href="#DejaVuSans-97"/>
       <use x="61.279297" xlink:href="#DejaVuSans-108"/>
       <use x="89.0625" xlink:href="#DejaVuSans-112"/>
       <use x="152.539062" xlink:href="#DejaVuSans-104"/>
       <use x="215.917969" xlink:href="#DejaVuSans-97"/>
       <use x="277.197266" xlink:href="#DejaVuSans-32"/>
       <use x="308.984375" xlink:href="#DejaVuSans-49"/>
       <use x="372.607422" xlink:href="#DejaVuSans-57"/>
      </g>
     </g>
    </g>
    <g id="ytick_9">
     <g id="text_16">
      <!-- alpha 18 -->
      <g style="fill:#262626;" transform="translate(3.00024 412.924619)scale(0.14 -0.14)">
       <defs>
        <path d="M 31.78125 34.625 
Q 24.75 34.625 20.71875 30.859375 
Q 16.703125 27.09375 16.703125 20.515625 
Q 16.703125 13.921875 20.71875 10.15625 
Q 24.75 6.390625 31.78125 6.390625 
Q 38.8125 6.390625 42.859375 10.171875 
Q 46.921875 13.96875 46.921875 20.515625 
Q 46.921875 27.09375 42.890625 30.859375 
Q 38.875 34.625 31.78125 34.625 
z
M 21.921875 38.8125 
Q 15.578125 40.375 12.03125 44.71875 
Q 8.5 49.078125 8.5 55.328125 
Q 8.5 64.0625 14.71875 69.140625 
Q 20.953125 74.21875 31.78125 74.21875 
Q 42.671875 74.21875 48.875 69.140625 
Q 55.078125 64.0625 55.078125 55.328125 
Q 55.078125 49.078125 51.53125 44.71875 
Q 48 40.375 41.703125 38.8125 
Q 48.828125 37.15625 52.796875 32.3125 
Q 56.78125 27.484375 56.78125 20.515625 
Q 56.78125 9.90625 50.3125 4.234375 
Q 43.84375 -1.421875 31.78125 -1.421875 
Q 19.734375 -1.421875 13.25 4.234375 
Q 6.78125 9.90625 6.78125 20.515625 
Q 6.78125 27.484375 10.78125 32.3125 
Q 14.796875 37.15625 21.921875 38.8125 
z
M 18.3125 54.390625 
Q 18.3125 48.734375 21.84375 45.5625 
Q 25.390625 42.390625 31.78125 42.390625 
Q 38.140625 42.390625 41.71875 45.5625 
Q 45.3125 48.734375 45.3125 54.390625 
Q 45.3125 60.0625 41.71875 63.234375 
Q 38.140625 66.40625 31.78125 66.40625 
Q 25.390625 66.40625 21.84375 63.234375 
Q 18.3125 60.0625 18.3125 54.390625 
z
" id="DejaVuSans-56"/>
       </defs>
       <use xlink:href="#DejaVuSans-97"/>
       <use x="61.279297" xlink:href="#DejaVuSans-108"/>
       <use x="89.0625" xlink:href="#DejaVuSans-112"/>
       <use x="152.539062" xlink:href="#DejaVuSans-104"/>
       <use x="215.917969" xlink:href="#DejaVuSans-97"/>
       <use x="277.197266" xlink:href="#DejaVuSans-32"/>
       <use x="308.984375" xlink:href="#DejaVuSans-49"/>
       <use x="372.607422" xlink:href="#DejaVuSans-56"/>
      </g>
     </g>
    </g>
    <g id="ytick_10">
     <g id="text_17">
      <!-- alpha 17 -->
      <g style="fill:#262626;" transform="translate(3.00024 392.682106)scale(0.14 -0.14)">
       <defs>
        <path d="M 8.203125 72.90625 
L 55.078125 72.90625 
L 55.078125 68.703125 
L 28.609375 0 
L 18.3125 0 
L 43.21875 64.59375 
L 8.203125 64.59375 
z
" id="DejaVuSans-55"/>
       </defs>
       <use xlink:href="#DejaVuSans-97"/>
       <use x="61.279297" xlink:href="#DejaVuSans-108"/>
       <use x="89.0625" xlink:href="#DejaVuSans-112"/>
       <use x="152.539062" xlink:href="#DejaVuSans-104"/>
       <use x="215.917969" xlink:href="#DejaVuSans-97"/>
       <use x="277.197266" xlink:href="#DejaVuSans-32"/>
       <use x="308.984375" xlink:href="#DejaVuSans-49"/>
       <use x="372.607422" xlink:href="#DejaVuSans-55"/>
      </g>
     </g>
    </g>
    <g id="ytick_11">
     <g id="text_18">
      <!-- alpha 16 -->
      <g style="fill:#262626;" transform="translate(3.00024 372.439594)scale(0.14 -0.14)">
       <defs>
        <path d="M 33.015625 40.375 
Q 26.375 40.375 22.484375 35.828125 
Q 18.609375 31.296875 18.609375 23.390625 
Q 18.609375 15.53125 22.484375 10.953125 
Q 26.375 6.390625 33.015625 6.390625 
Q 39.65625 6.390625 43.53125 10.953125 
Q 47.40625 15.53125 47.40625 23.390625 
Q 47.40625 31.296875 43.53125 35.828125 
Q 39.65625 40.375 33.015625 40.375 
z
M 52.59375 71.296875 
L 52.59375 62.3125 
Q 48.875 64.0625 45.09375 64.984375 
Q 41.3125 65.921875 37.59375 65.921875 
Q 27.828125 65.921875 22.671875 59.328125 
Q 17.53125 52.734375 16.796875 39.40625 
Q 19.671875 43.65625 24.015625 45.921875 
Q 28.375 48.1875 33.59375 48.1875 
Q 44.578125 48.1875 50.953125 41.515625 
Q 57.328125 34.859375 57.328125 23.390625 
Q 57.328125 12.15625 50.6875 5.359375 
Q 44.046875 -1.421875 33.015625 -1.421875 
Q 20.359375 -1.421875 13.671875 8.265625 
Q 6.984375 17.96875 6.984375 36.375 
Q 6.984375 53.65625 15.1875 63.9375 
Q 23.390625 74.21875 37.203125 74.21875 
Q 40.921875 74.21875 44.703125 73.484375 
Q 48.484375 72.75 52.59375 71.296875 
z
" id="DejaVuSans-54"/>
       </defs>
       <use xlink:href="#DejaVuSans-97"/>
       <use x="61.279297" xlink:href="#DejaVuSans-108"/>
       <use x="89.0625" xlink:href="#DejaVuSans-112"/>
       <use x="152.539062" xlink:href="#DejaVuSans-104"/>
       <use x="215.917969" xlink:href="#DejaVuSans-97"/>
       <use x="277.197266" xlink:href="#DejaVuSans-32"/>
       <use x="308.984375" xlink:href="#DejaVuSans-49"/>
       <use x="372.607422" xlink:href="#DejaVuSans-54"/>
      </g>
     </g>
    </g>
    <g id="ytick_12">
     <g id="text_19">
      <!-- alpha 15 -->
      <g style="fill:#262626;" transform="translate(3.00024 352.197081)scale(0.14 -0.14)">
       <use xlink:href="#DejaVuSans-97"/>
       <use x="61.279297" xlink:href="#DejaVuSans-108"/>
       <use x="89.0625" xlink:href="#DejaVuSans-112"/>
       <use x="152.539062" xlink:href="#DejaVuSans-104"/>
       <use x="215.917969" xlink:href="#DejaVuSans-97"/>
       <use x="277.197266" xlink:href="#DejaVuSans-32"/>
       <use x="308.984375" xlink:href="#DejaVuSans-49"/>
       <use x="372.607422" xlink:href="#DejaVuSans-53"/>
      </g>
     </g>
    </g>
    <g id="ytick_13">
     <g id="text_20">
      <!-- alpha 14 -->
      <g style="fill:#262626;" transform="translate(3.00024 331.954568)scale(0.14 -0.14)">
       <use xlink:href="#DejaVuSans-97"/>
       <use x="61.279297" xlink:href="#DejaVuSans-108"/>
       <use x="89.0625" xlink:href="#DejaVuSans-112"/>
       <use x="152.539062" xlink:href="#DejaVuSans-104"/>
       <use x="215.917969" xlink:href="#DejaVuSans-97"/>
       <use x="277.197266" xlink:href="#DejaVuSans-32"/>
       <use x="308.984375" xlink:href="#DejaVuSans-49"/>
       <use x="372.607422" xlink:href="#DejaVuSans-52"/>
      </g>
     </g>
    </g>
    <g id="ytick_14">
     <g id="text_21">
      <!-- alpha 13 -->
      <g style="fill:#262626;" transform="translate(3.00024 311.712055)scale(0.14 -0.14)">
       <use xlink:href="#DejaVuSans-97"/>
       <use x="61.279297" xlink:href="#DejaVuSans-108"/>
       <use x="89.0625" xlink:href="#DejaVuSans-112"/>
       <use x="152.539062" xlink:href="#DejaVuSans-104"/>
       <use x="215.917969" xlink:href="#DejaVuSans-97"/>
       <use x="277.197266" xlink:href="#DejaVuSans-32"/>
       <use x="308.984375" xlink:href="#DejaVuSans-49"/>
       <use x="372.607422" xlink:href="#DejaVuSans-51"/>
      </g>
     </g>
    </g>
    <g id="ytick_15">
     <g id="text_22">
      <!-- alpha 12 -->
      <g style="fill:#262626;" transform="translate(3.00024 291.469542)scale(0.14 -0.14)">
       <use xlink:href="#DejaVuSans-97"/>
       <use x="61.279297" xlink:href="#DejaVuSans-108"/>
       <use x="89.0625" xlink:href="#DejaVuSans-112"/>
       <use x="152.539062" xlink:href="#DejaVuSans-104"/>
       <use x="215.917969" xlink:href="#DejaVuSans-97"/>
       <use x="277.197266" xlink:href="#DejaVuSans-32"/>
       <use x="308.984375" xlink:href="#DejaVuSans-49"/>
       <use x="372.607422" xlink:href="#DejaVuSans-50"/>
      </g>
     </g>
    </g>
    <g id="ytick_16">
     <g id="text_23">
      <!-- alpha 11 -->
      <g style="fill:#262626;" transform="translate(3.00024 271.227029)scale(0.14 -0.14)">
       <use xlink:href="#DejaVuSans-97"/>
       <use x="61.279297" xlink:href="#DejaVuSans-108"/>
       <use x="89.0625" xlink:href="#DejaVuSans-112"/>
       <use x="152.539062" xlink:href="#DejaVuSans-104"/>
       <use x="215.917969" xlink:href="#DejaVuSans-97"/>
       <use x="277.197266" xlink:href="#DejaVuSans-32"/>
       <use x="308.984375" xlink:href="#DejaVuSans-49"/>
       <use x="372.607422" xlink:href="#DejaVuSans-49"/>
      </g>
     </g>
    </g>
    <g id="ytick_17">
     <g id="text_24">
      <!-- alpha 10 -->
      <g style="fill:#262626;" transform="translate(3.00024 250.984516)scale(0.14 -0.14)">
       <use xlink:href="#DejaVuSans-97"/>
       <use x="61.279297" xlink:href="#DejaVuSans-108"/>
       <use x="89.0625" xlink:href="#DejaVuSans-112"/>
       <use x="152.539062" xlink:href="#DejaVuSans-104"/>
       <use x="215.917969" xlink:href="#DejaVuSans-97"/>
       <use x="277.197266" xlink:href="#DejaVuSans-32"/>
       <use x="308.984375" xlink:href="#DejaVuSans-49"/>
       <use x="372.607422" xlink:href="#DejaVuSans-48"/>
      </g>
     </g>
    </g>
    <g id="ytick_18">
     <g id="text_25">
      <!-- alpha 9 -->
      <g style="fill:#262626;" transform="translate(11.90774 230.742003)scale(0.14 -0.14)">
       <use xlink:href="#DejaVuSans-97"/>
       <use x="61.279297" xlink:href="#DejaVuSans-108"/>
       <use x="89.0625" xlink:href="#DejaVuSans-112"/>
       <use x="152.539062" xlink:href="#DejaVuSans-104"/>
       <use x="215.917969" xlink:href="#DejaVuSans-97"/>
       <use x="277.197266" xlink:href="#DejaVuSans-32"/>
       <use x="308.984375" xlink:href="#DejaVuSans-57"/>
      </g>
     </g>
    </g>
    <g id="ytick_19">
     <g id="text_26">
      <!-- alpha 8 -->
      <g style="fill:#262626;" transform="translate(11.90774 210.499491)scale(0.14 -0.14)">
       <use xlink:href="#DejaVuSans-97"/>
       <use x="61.279297" xlink:href="#DejaVuSans-108"/>
       <use x="89.0625" xlink:href="#DejaVuSans-112"/>
       <use x="152.539062" xlink:href="#DejaVuSans-104"/>
       <use x="215.917969" xlink:href="#DejaVuSans-97"/>
       <use x="277.197266" xlink:href="#DejaVuSans-32"/>
       <use x="308.984375" xlink:href="#DejaVuSans-56"/>
      </g>
     </g>
    </g>
    <g id="ytick_20">
     <g id="text_27">
      <!-- alpha 7 -->
      <g style="fill:#262626;" transform="translate(11.90774 190.256978)scale(0.14 -0.14)">
       <use xlink:href="#DejaVuSans-97"/>
       <use x="61.279297" xlink:href="#DejaVuSans-108"/>
       <use x="89.0625" xlink:href="#DejaVuSans-112"/>
       <use x="152.539062" xlink:href="#DejaVuSans-104"/>
       <use x="215.917969" xlink:href="#DejaVuSans-97"/>
       <use x="277.197266" xlink:href="#DejaVuSans-32"/>
       <use x="308.984375" xlink:href="#DejaVuSans-55"/>
      </g>
     </g>
    </g>
    <g id="ytick_21">
     <g id="text_28">
      <!-- alpha 6 -->
      <g style="fill:#262626;" transform="translate(11.90774 170.014465)scale(0.14 -0.14)">
       <use xlink:href="#DejaVuSans-97"/>
       <use x="61.279297" xlink:href="#DejaVuSans-108"/>
       <use x="89.0625" xlink:href="#DejaVuSans-112"/>
       <use x="152.539062" xlink:href="#DejaVuSans-104"/>
       <use x="215.917969" xlink:href="#DejaVuSans-97"/>
       <use x="277.197266" xlink:href="#DejaVuSans-32"/>
       <use x="308.984375" xlink:href="#DejaVuSans-54"/>
      </g>
     </g>
    </g>
    <g id="ytick_22">
     <g id="text_29">
      <!-- alpha 5 -->
      <g style="fill:#262626;" transform="translate(11.90774 149.771952)scale(0.14 -0.14)">
       <use xlink:href="#DejaVuSans-97"/>
       <use x="61.279297" xlink:href="#DejaVuSans-108"/>
       <use x="89.0625" xlink:href="#DejaVuSans-112"/>
       <use x="152.539062" xlink:href="#DejaVuSans-104"/>
       <use x="215.917969" xlink:href="#DejaVuSans-97"/>
       <use x="277.197266" xlink:href="#DejaVuSans-32"/>
       <use x="308.984375" xlink:href="#DejaVuSans-53"/>
      </g>
     </g>
    </g>
    <g id="ytick_23">
     <g id="text_30">
      <!-- alpha 4 -->
      <g style="fill:#262626;" transform="translate(11.90774 129.529439)scale(0.14 -0.14)">
       <use xlink:href="#DejaVuSans-97"/>
       <use x="61.279297" xlink:href="#DejaVuSans-108"/>
       <use x="89.0625" xlink:href="#DejaVuSans-112"/>
       <use x="152.539062" xlink:href="#DejaVuSans-104"/>
       <use x="215.917969" xlink:href="#DejaVuSans-97"/>
       <use x="277.197266" xlink:href="#DejaVuSans-32"/>
       <use x="308.984375" xlink:href="#DejaVuSans-52"/>
      </g>
     </g>
    </g>
    <g id="ytick_24">
     <g id="text_31">
      <!-- alpha 3 -->
      <g style="fill:#262626;" transform="translate(11.90774 109.286926)scale(0.14 -0.14)">
       <use xlink:href="#DejaVuSans-97"/>
       <use x="61.279297" xlink:href="#DejaVuSans-108"/>
       <use x="89.0625" xlink:href="#DejaVuSans-112"/>
       <use x="152.539062" xlink:href="#DejaVuSans-104"/>
       <use x="215.917969" xlink:href="#DejaVuSans-97"/>
       <use x="277.197266" xlink:href="#DejaVuSans-32"/>
       <use x="308.984375" xlink:href="#DejaVuSans-51"/>
      </g>
     </g>
    </g>
    <g id="ytick_25">
     <g id="text_32">
      <!-- alpha 2 -->
      <g style="fill:#262626;" transform="translate(11.90774 89.044413)scale(0.14 -0.14)">
       <use xlink:href="#DejaVuSans-97"/>
       <use x="61.279297" xlink:href="#DejaVuSans-108"/>
       <use x="89.0625" xlink:href="#DejaVuSans-112"/>
       <use x="152.539062" xlink:href="#DejaVuSans-104"/>
       <use x="215.917969" xlink:href="#DejaVuSans-97"/>
       <use x="277.197266" xlink:href="#DejaVuSans-32"/>
       <use x="308.984375" xlink:href="#DejaVuSans-50"/>
      </g>
     </g>
    </g>
    <g id="ytick_26">
     <g id="text_33">
      <!-- alpha 1 -->
      <g style="fill:#262626;" transform="translate(11.90774 68.8019)scale(0.14 -0.14)">
       <use xlink:href="#DejaVuSans-97"/>
       <use x="61.279297" xlink:href="#DejaVuSans-108"/>
       <use x="89.0625" xlink:href="#DejaVuSans-112"/>
       <use x="152.539062" xlink:href="#DejaVuSans-104"/>
       <use x="215.917969" xlink:href="#DejaVuSans-97"/>
       <use x="277.197266" xlink:href="#DejaVuSans-32"/>
       <use x="308.984375" xlink:href="#DejaVuSans-49"/>
      </g>
     </g>
    </g>
    <g id="ytick_27">
     <g id="text_34">
      <!-- alpha 0 -->
      <g style="fill:#262626;" transform="translate(11.90774 48.559388)scale(0.14 -0.14)">
       <use xlink:href="#DejaVuSans-97"/>
       <use x="61.279297" xlink:href="#DejaVuSans-108"/>
       <use x="89.0625" xlink:href="#DejaVuSans-112"/>
       <use x="152.539062" xlink:href="#DejaVuSans-104"/>
       <use x="215.917969" xlink:href="#DejaVuSans-97"/>
       <use x="277.197266" xlink:href="#DejaVuSans-32"/>
       <use x="308.984375" xlink:href="#DejaVuSans-48"/>
      </g>
     </g>
    </g>
   </g>
   <g id="LineCollection_1">
    <path clip-path="url(#p340b979ada)" d="M 300.419825 595.309014 
L 304.700586 595.309014 
" style="fill:none;stroke:#2a2eec;stroke-width:1.5;"/>
   </g>
   <g id="LineCollection_2">
    <path clip-path="url(#p340b979ada)" d="M 301.691901 595.309014 
L 303.306861 595.309014 
" style="fill:none;stroke:#2a2eec;stroke-width:3;"/>
   </g>
   <g id="LineCollection_3">
    <path clip-path="url(#p340b979ada)" d="M 271.387033 562.184902 
L 279.70915 562.184902 
" style="fill:none;stroke:#2a2eec;stroke-width:1.5;"/>
   </g>
   <g id="LineCollection_4">
    <path clip-path="url(#p340b979ada)" d="M 274.235486 562.184902 
L 277.152885 562.184902 
" style="fill:none;stroke:#2a2eec;stroke-width:3;"/>
   </g>
   <g id="LineCollection_5">
    <path clip-path="url(#p340b979ada)" d="M 257.94288 529.06079 
L 327.738664 529.06079 
" style="fill:none;stroke:#2a2eec;stroke-width:1.5;"/>
   </g>
   <g id="LineCollection_6">
    <path clip-path="url(#p340b979ada)" d="M 279.969825 529.06079 
L 305.523268 529.06079 
" style="fill:none;stroke:#2a2eec;stroke-width:3;"/>
   </g>
   <g id="LineCollection_7">
    <path clip-path="url(#p340b979ada)" d="M 272.203944 508.818278 
L 312.1449 508.818278 
" style="fill:none;stroke:#2a2eec;stroke-width:1.5;"/>
   </g>
   <g id="LineCollection_8">
    <path clip-path="url(#p340b979ada)" d="M 284.459494 508.818278 
L 299.079408 508.818278 
" style="fill:none;stroke:#2a2eec;stroke-width:3;"/>
   </g>
   <g id="LineCollection_9">
    <path clip-path="url(#p340b979ada)" d="M 364.657673 488.575765 
L 412.571273 488.575765 
" style="fill:none;stroke:#2a2eec;stroke-width:1.5;"/>
   </g>
   <g id="LineCollection_10">
    <path clip-path="url(#p340b979ada)" d="M 378.022228 488.575765 
L 395.5361 488.575765 
" style="fill:none;stroke:#2a2eec;stroke-width:3;"/>
   </g>
   <g id="LineCollection_11">
    <path clip-path="url(#p340b979ada)" d="M 315.976818 468.333252 
L 342.466343 468.333252 
" style="fill:none;stroke:#2a2eec;stroke-width:1.5;"/>
   </g>
   <g id="LineCollection_12">
    <path clip-path="url(#p340b979ada)" d="M 324.947703 468.333252 
L 334.510626 468.333252 
" style="fill:none;stroke:#2a2eec;stroke-width:3;"/>
   </g>
   <g id="LineCollection_13">
    <path clip-path="url(#p340b979ada)" d="M 237.136837 448.090739 
L 267.521752 448.090739 
" style="fill:none;stroke:#2a2eec;stroke-width:1.5;"/>
   </g>
   <g id="LineCollection_14">
    <path clip-path="url(#p340b979ada)" d="M 246.467613 448.090739 
L 257.658546 448.090739 
" style="fill:none;stroke:#2a2eec;stroke-width:3;"/>
   </g>
   <g id="LineCollection_15">
    <path clip-path="url(#p340b979ada)" d="M 164.11535 427.848226 
L 192.446863 427.848226 
" style="fill:none;stroke:#2a2eec;stroke-width:1.5;"/>
   </g>
   <g id="LineCollection_16">
    <path clip-path="url(#p340b979ada)" d="M 172.758282 427.848226 
L 182.953096 427.848226 
" style="fill:none;stroke:#2a2eec;stroke-width:3;"/>
   </g>
   <g id="LineCollection_17">
    <path clip-path="url(#p340b979ada)" d="M 179.269587 407.605713 
L 225.835973 407.605713 
" style="fill:none;stroke:#2a2eec;stroke-width:1.5;"/>
   </g>
   <g id="LineCollection_18">
    <path clip-path="url(#p340b979ada)" d="M 193.618887 407.605713 
L 211.160441 407.605713 
" style="fill:none;stroke:#2a2eec;stroke-width:3;"/>
   </g>
   <g id="LineCollection_19">
    <path clip-path="url(#p340b979ada)" d="M 157.948688 387.3632 
L 180.173619 387.3632 
" style="fill:none;stroke:#2a2eec;stroke-width:1.5;"/>
   </g>
   <g id="LineCollection_20">
    <path clip-path="url(#p340b979ada)" d="M 164.7169 387.3632 
L 173.146794 387.3632 
" style="fill:none;stroke:#2a2eec;stroke-width:3;"/>
   </g>
   <g id="LineCollection_21">
    <path clip-path="url(#p340b979ada)" d="M 373.333413 367.120687 
L 399.851258 367.120687 
" style="fill:none;stroke:#2a2eec;stroke-width:1.5;"/>
   </g>
   <g id="LineCollection_22">
    <path clip-path="url(#p340b979ada)" d="M 380.950381 367.120687 
L 390.426581 367.120687 
" style="fill:none;stroke:#2a2eec;stroke-width:3;"/>
   </g>
   <g id="LineCollection_23">
    <path clip-path="url(#p340b979ada)" d="M 363.018063 346.878174 
L 399.669567 346.878174 
" style="fill:none;stroke:#2a2eec;stroke-width:1.5;"/>
   </g>
   <g id="LineCollection_24">
    <path clip-path="url(#p340b979ada)" d="M 374.789074 346.878174 
L 388.139881 346.878174 
" style="fill:none;stroke:#2a2eec;stroke-width:3;"/>
   </g>
   <g id="LineCollection_25">
    <path clip-path="url(#p340b979ada)" d="M 236.938582 326.635662 
L 264.071136 326.635662 
" style="fill:none;stroke:#2a2eec;stroke-width:1.5;"/>
   </g>
   <g id="LineCollection_26">
    <path clip-path="url(#p340b979ada)" d="M 245.099224 326.635662 
L 255.132821 326.635662 
" style="fill:none;stroke:#2a2eec;stroke-width:3;"/>
   </g>
   <g id="LineCollection_27">
    <path clip-path="url(#p340b979ada)" d="M 233.35448 306.393149 
L 311.346287 306.393149 
" style="fill:none;stroke:#2a2eec;stroke-width:1.5;"/>
   </g>
   <g id="LineCollection_28">
    <path clip-path="url(#p340b979ada)" d="M 258.725988 306.393149 
L 286.813434 306.393149 
" style="fill:none;stroke:#2a2eec;stroke-width:3;"/>
   </g>
   <g id="LineCollection_29">
    <path clip-path="url(#p340b979ada)" d="M 186.06275 286.150636 
L 201.669475 286.150636 
" style="fill:none;stroke:#2a2eec;stroke-width:1.5;"/>
   </g>
   <g id="LineCollection_30">
    <path clip-path="url(#p340b979ada)" d="M 191.220235 286.150636 
L 196.767901 286.150636 
" style="fill:none;stroke:#2a2eec;stroke-width:3;"/>
   </g>
   <g id="LineCollection_31">
    <path clip-path="url(#p340b979ada)" d="M 188.572882 265.908123 
L 223.062677 265.908123 
" style="fill:none;stroke:#2a2eec;stroke-width:1.5;"/>
   </g>
   <g id="LineCollection_32">
    <path clip-path="url(#p340b979ada)" d="M 200.448704 265.908123 
L 212.814548 265.908123 
" style="fill:none;stroke:#2a2eec;stroke-width:3;"/>
   </g>
   <g id="LineCollection_33">
    <path clip-path="url(#p340b979ada)" d="M 165.845945 245.66561 
L 226.715431 245.66561 
" style="fill:none;stroke:#2a2eec;stroke-width:1.5;"/>
   </g>
   <g id="LineCollection_34">
    <path clip-path="url(#p340b979ada)" d="M 186.580379 245.66561 
L 208.26963 245.66561 
" style="fill:none;stroke:#2a2eec;stroke-width:3;"/>
   </g>
   <g id="LineCollection_35">
    <path clip-path="url(#p340b979ada)" d="M 84.001539 225.423097 
L 121.243146 225.423097 
" style="fill:none;stroke:#2a2eec;stroke-width:1.5;"/>
   </g>
   <g id="LineCollection_36">
    <path clip-path="url(#p340b979ada)" d="M 95.321396 225.423097 
L 108.966432 225.423097 
" style="fill:none;stroke:#2a2eec;stroke-width:3;"/>
   </g>
   <g id="LineCollection_37">
    <path clip-path="url(#p340b979ada)" d="M 248.375942 205.180584 
L 275.412834 205.180584 
" style="fill:none;stroke:#2a2eec;stroke-width:1.5;"/>
   </g>
   <g id="LineCollection_38">
    <path clip-path="url(#p340b979ada)" d="M 257.091414 205.180584 
L 266.858059 205.180584 
" style="fill:none;stroke:#2a2eec;stroke-width:3;"/>
   </g>
   <g id="LineCollection_39">
    <path clip-path="url(#p340b979ada)" d="M 148.074714 184.938071 
L 171.55644 184.938071 
" style="fill:none;stroke:#2a2eec;stroke-width:1.5;"/>
   </g>
   <g id="LineCollection_40">
    <path clip-path="url(#p340b979ada)" d="M 155.012153 184.938071 
L 163.161533 184.938071 
" style="fill:none;stroke:#2a2eec;stroke-width:3;"/>
   </g>
   <g id="LineCollection_41">
    <path clip-path="url(#p340b979ada)" d="M 256.839296 164.695559 
L 290.477184 164.695559 
" style="fill:none;stroke:#2a2eec;stroke-width:1.5;"/>
   </g>
   <g id="LineCollection_42">
    <path clip-path="url(#p340b979ada)" d="M 268.910412 164.695559 
L 280.981211 164.695559 
" style="fill:none;stroke:#2a2eec;stroke-width:3;"/>
   </g>
   <g id="LineCollection_43">
    <path clip-path="url(#p340b979ada)" d="M 264.06006 144.453046 
L 283.142629 144.453046 
" style="fill:none;stroke:#2a2eec;stroke-width:1.5;"/>
   </g>
   <g id="LineCollection_44">
    <path clip-path="url(#p340b979ada)" d="M 270.520632 144.453046 
L 277.348903 144.453046 
" style="fill:none;stroke:#2a2eec;stroke-width:3;"/>
   </g>
   <g id="LineCollection_45">
    <path clip-path="url(#p340b979ada)" d="M 218.37257 124.210533 
L 262.643188 124.210533 
" style="fill:none;stroke:#2a2eec;stroke-width:1.5;"/>
   </g>
   <g id="LineCollection_46">
    <path clip-path="url(#p340b979ada)" d="M 232.023538 124.210533 
L 247.935261 124.210533 
" style="fill:none;stroke:#2a2eec;stroke-width:3;"/>
   </g>
   <g id="LineCollection_47">
    <path clip-path="url(#p340b979ada)" d="M 153.910915 103.96802 
L 183.789143 103.96802 
" style="fill:none;stroke:#2a2eec;stroke-width:1.5;"/>
   </g>
   <g id="LineCollection_48">
    <path clip-path="url(#p340b979ada)" d="M 163.413462 103.96802 
L 173.664905 103.96802 
" style="fill:none;stroke:#2a2eec;stroke-width:3;"/>
   </g>
   <g id="LineCollection_49">
    <path clip-path="url(#p340b979ada)" d="M 195.972579 83.725507 
L 260.801624 83.725507 
" style="fill:none;stroke:#2a2eec;stroke-width:1.5;"/>
   </g>
   <g id="LineCollection_50">
    <path clip-path="url(#p340b979ada)" d="M 217.004532 83.725507 
L 240.492256 83.725507 
" style="fill:none;stroke:#2a2eec;stroke-width:3;"/>
   </g>
   <g id="LineCollection_51">
    <path clip-path="url(#p340b979ada)" d="M 222.791977 63.482994 
L 372.005003 63.482994 
" style="fill:none;stroke:#2a2eec;stroke-width:1.5;"/>
   </g>
   <g id="LineCollection_52">
    <path clip-path="url(#p340b979ada)" d="M 271.704479 63.482994 
L 326.338421 63.482994 
" style="fill:none;stroke:#2a2eec;stroke-width:3;"/>
   </g>
   <g id="LineCollection_53">
    <path clip-path="url(#p340b979ada)" d="M 313.722767 43.240481 
L 373.990001 43.240481 
" style="fill:none;stroke:#2a2eec;stroke-width:1.5;"/>
   </g>
   <g id="LineCollection_54">
    <path clip-path="url(#p340b979ada)" d="M 332.449083 43.240481 
L 354.162608 43.240481 
" style="fill:none;stroke:#2a2eec;stroke-width:3;"/>
   </g>
   <g id="line2d_15">
    <defs>
     <path d="M 0 2.25 
C 0.596707 2.25 1.169055 2.012926 1.59099 1.59099 
C 2.012926 1.169055 2.25 0.596707 2.25 0 
C 2.25 -0.596707 2.012926 -1.169055 1.59099 -1.59099 
C 1.169055 -2.012926 0.596707 -2.25 0 -2.25 
C -0.596707 -2.25 -1.169055 -2.012926 -1.59099 -1.59099 
C -2.012926 -1.169055 -2.25 -0.596707 -2.25 0 
C -2.25 0.596707 -2.012926 1.169055 -1.59099 1.59099 
C -1.169055 2.012926 -0.596707 2.25 0 2.25 
z
" id="mc0edae9df5" style="stroke:#2a2eec;"/>
    </defs>
    <g clip-path="url(#p340b979ada)">
     <use style="fill:#eeeeee;stroke:#2a2eec;" x="302.525032" xlink:href="#mc0edae9df5" y="595.309014"/>
    </g>
   </g>
   <g id="line2d_16">
    <g clip-path="url(#p340b979ada)">
     <use style="fill:#eeeeee;stroke:#2a2eec;" x="275.678985" xlink:href="#mc0edae9df5" y="562.184902"/>
    </g>
   </g>
   <g id="line2d_17">
    <g clip-path="url(#p340b979ada)">
     <use style="fill:#eeeeee;stroke:#2a2eec;" x="292.93055" xlink:href="#mc0edae9df5" y="529.06079"/>
    </g>
   </g>
   <g id="line2d_18">
    <g clip-path="url(#p340b979ada)">
     <use style="fill:#eeeeee;stroke:#2a2eec;" x="291.842233" xlink:href="#mc0edae9df5" y="508.818278"/>
    </g>
   </g>
   <g id="line2d_19">
    <g clip-path="url(#p340b979ada)">
     <use style="fill:#eeeeee;stroke:#2a2eec;" x="387.044457" xlink:href="#mc0edae9df5" y="488.575765"/>
    </g>
   </g>
   <g id="line2d_20">
    <g clip-path="url(#p340b979ada)">
     <use style="fill:#eeeeee;stroke:#2a2eec;" x="329.809995" xlink:href="#mc0edae9df5" y="468.333252"/>
    </g>
   </g>
   <g id="line2d_21">
    <g clip-path="url(#p340b979ada)">
     <use style="fill:#eeeeee;stroke:#2a2eec;" x="252.066099" xlink:href="#mc0edae9df5" y="448.090739"/>
    </g>
   </g>
   <g id="line2d_22">
    <g clip-path="url(#p340b979ada)">
     <use style="fill:#eeeeee;stroke:#2a2eec;" x="177.933785" xlink:href="#mc0edae9df5" y="427.848226"/>
    </g>
   </g>
   <g id="line2d_23">
    <g clip-path="url(#p340b979ada)">
     <use style="fill:#eeeeee;stroke:#2a2eec;" x="202.31069" xlink:href="#mc0edae9df5" y="407.605713"/>
    </g>
   </g>
   <g id="line2d_24">
    <g clip-path="url(#p340b979ada)">
     <use style="fill:#eeeeee;stroke:#2a2eec;" x="168.806105" xlink:href="#mc0edae9df5" y="387.3632"/>
    </g>
   </g>
   <g id="line2d_25">
    <g clip-path="url(#p340b979ada)">
     <use style="fill:#eeeeee;stroke:#2a2eec;" x="385.658798" xlink:href="#mc0edae9df5" y="367.120687"/>
    </g>
   </g>
   <g id="line2d_26">
    <g clip-path="url(#p340b979ada)">
     <use style="fill:#eeeeee;stroke:#2a2eec;" x="381.21539" xlink:href="#mc0edae9df5" y="346.878174"/>
    </g>
   </g>
   <g id="line2d_27">
    <g clip-path="url(#p340b979ada)">
     <use style="fill:#eeeeee;stroke:#2a2eec;" x="250.141875" xlink:href="#mc0edae9df5" y="326.635662"/>
    </g>
   </g>
   <g id="line2d_28">
    <g clip-path="url(#p340b979ada)">
     <use style="fill:#eeeeee;stroke:#2a2eec;" x="272.70722" xlink:href="#mc0edae9df5" y="306.393149"/>
    </g>
   </g>
   <g id="line2d_29">
    <g clip-path="url(#p340b979ada)">
     <use style="fill:#eeeeee;stroke:#2a2eec;" x="194.036439" xlink:href="#mc0edae9df5" y="286.150636"/>
    </g>
   </g>
   <g id="line2d_30">
    <g clip-path="url(#p340b979ada)">
     <use style="fill:#eeeeee;stroke:#2a2eec;" x="206.641724" xlink:href="#mc0edae9df5" y="265.908123"/>
    </g>
   </g>
   <g id="line2d_31">
    <g clip-path="url(#p340b979ada)">
     <use style="fill:#eeeeee;stroke:#2a2eec;" x="197.624453" xlink:href="#mc0edae9df5" y="245.66561"/>
    </g>
   </g>
   <g id="line2d_32">
    <g clip-path="url(#p340b979ada)">
     <use style="fill:#eeeeee;stroke:#2a2eec;" x="101.90378" xlink:href="#mc0edae9df5" y="225.423097"/>
    </g>
   </g>
   <g id="line2d_33">
    <g clip-path="url(#p340b979ada)">
     <use style="fill:#eeeeee;stroke:#2a2eec;" x="261.831536" xlink:href="#mc0edae9df5" y="205.180584"/>
    </g>
   </g>
   <g id="line2d_34">
    <g clip-path="url(#p340b979ada)">
     <use style="fill:#eeeeee;stroke:#2a2eec;" x="159.22058" xlink:href="#mc0edae9df5" y="184.938071"/>
    </g>
   </g>
   <g id="line2d_35">
    <g clip-path="url(#p340b979ada)">
     <use style="fill:#eeeeee;stroke:#2a2eec;" x="275.005493" xlink:href="#mc0edae9df5" y="164.695559"/>
    </g>
   </g>
   <g id="line2d_36">
    <g clip-path="url(#p340b979ada)">
     <use style="fill:#eeeeee;stroke:#2a2eec;" x="273.789001" xlink:href="#mc0edae9df5" y="144.453046"/>
    </g>
   </g>
   <g id="line2d_37">
    <g clip-path="url(#p340b979ada)">
     <use style="fill:#eeeeee;stroke:#2a2eec;" x="239.97551" xlink:href="#mc0edae9df5" y="124.210533"/>
    </g>
   </g>
   <g id="line2d_38">
    <g clip-path="url(#p340b979ada)">
     <use style="fill:#eeeeee;stroke:#2a2eec;" x="168.5799" xlink:href="#mc0edae9df5" y="103.96802"/>
    </g>
   </g>
   <g id="line2d_39">
    <g clip-path="url(#p340b979ada)">
     <use style="fill:#eeeeee;stroke:#2a2eec;" x="229.024978" xlink:href="#mc0edae9df5" y="83.725507"/>
    </g>
   </g>
   <g id="line2d_40">
    <g clip-path="url(#p340b979ada)">
     <use style="fill:#eeeeee;stroke:#2a2eec;" x="298.116366" xlink:href="#mc0edae9df5" y="63.482994"/>
    </g>
   </g>
   <g id="line2d_41">
    <g clip-path="url(#p340b979ada)">
     <use style="fill:#eeeeee;stroke:#2a2eec;" x="343.881091" xlink:href="#mc0edae9df5" y="43.240481"/>
    </g>
   </g>
   <g id="patch_3">
    <path d="M 67.573053 606.350385 
L 428.99976 606.350385 
" style="fill:none;"/>
   </g>
   <g id="patch_4">
    <path d="M 67.573053 21.15774 
L 428.99976 21.15774 
" style="fill:none;"/>
   </g>
   <g id="text_35">
    <!-- Posterior distributions of fitted parameters -->
    <g style="fill:#262626;" transform="translate(77.583906 15.15774)scale(0.16 -0.16)">
     <defs>
      <path d="M 19.671875 64.796875 
L 19.671875 37.40625 
L 32.078125 37.40625 
Q 38.96875 37.40625 42.71875 40.96875 
Q 46.484375 44.53125 46.484375 51.125 
Q 46.484375 57.671875 42.71875 61.234375 
Q 38.96875 64.796875 32.078125 64.796875 
z
M 9.8125 72.90625 
L 32.078125 72.90625 
Q 44.34375 72.90625 50.609375 67.359375 
Q 56.890625 61.8125 56.890625 51.125 
Q 56.890625 40.328125 50.609375 34.8125 
Q 44.34375 29.296875 32.078125 29.296875 
L 19.671875 29.296875 
L 19.671875 0 
L 9.8125 0 
z
" id="DejaVuSans-80"/>
      <path d="M 30.609375 48.390625 
Q 23.390625 48.390625 19.1875 42.75 
Q 14.984375 37.109375 14.984375 27.296875 
Q 14.984375 17.484375 19.15625 11.84375 
Q 23.34375 6.203125 30.609375 6.203125 
Q 37.796875 6.203125 41.984375 11.859375 
Q 46.1875 17.53125 46.1875 27.296875 
Q 46.1875 37.015625 41.984375 42.703125 
Q 37.796875 48.390625 30.609375 48.390625 
z
M 30.609375 56 
Q 42.328125 56 49.015625 48.375 
Q 55.71875 40.765625 55.71875 27.296875 
Q 55.71875 13.875 49.015625 6.21875 
Q 42.328125 -1.421875 30.609375 -1.421875 
Q 18.84375 -1.421875 12.171875 6.21875 
Q 5.515625 13.875 5.515625 27.296875 
Q 5.515625 40.765625 12.171875 48.375 
Q 18.84375 56 30.609375 56 
z
" id="DejaVuSans-111"/>
      <path d="M 41.109375 46.296875 
Q 39.59375 47.171875 37.8125 47.578125 
Q 36.03125 48 33.890625 48 
Q 26.265625 48 22.1875 43.046875 
Q 18.109375 38.09375 18.109375 28.8125 
L 18.109375 0 
L 9.078125 0 
L 9.078125 54.6875 
L 18.109375 54.6875 
L 18.109375 46.1875 
Q 20.953125 51.171875 25.484375 53.578125 
Q 30.03125 56 36.53125 56 
Q 37.453125 56 38.578125 55.875 
Q 39.703125 55.765625 41.0625 55.515625 
z
" id="DejaVuSans-114"/>
      <path d="M 45.40625 46.390625 
L 45.40625 75.984375 
L 54.390625 75.984375 
L 54.390625 0 
L 45.40625 0 
L 45.40625 8.203125 
Q 42.578125 3.328125 38.25 0.953125 
Q 33.9375 -1.421875 27.875 -1.421875 
Q 17.96875 -1.421875 11.734375 6.484375 
Q 5.515625 14.40625 5.515625 27.296875 
Q 5.515625 40.1875 11.734375 48.09375 
Q 17.96875 56 27.875 56 
Q 33.9375 56 38.25 53.625 
Q 42.578125 51.265625 45.40625 46.390625 
z
M 14.796875 27.296875 
Q 14.796875 17.390625 18.875 11.75 
Q 22.953125 6.109375 30.078125 6.109375 
Q 37.203125 6.109375 41.296875 11.75 
Q 45.40625 17.390625 45.40625 27.296875 
Q 45.40625 37.203125 41.296875 42.84375 
Q 37.203125 48.484375 30.078125 48.484375 
Q 22.953125 48.484375 18.875 42.84375 
Q 14.796875 37.203125 14.796875 27.296875 
z
" id="DejaVuSans-100"/>
      <path d="M 8.5 21.578125 
L 8.5 54.6875 
L 17.484375 54.6875 
L 17.484375 21.921875 
Q 17.484375 14.15625 20.5 10.265625 
Q 23.53125 6.390625 29.59375 6.390625 
Q 36.859375 6.390625 41.078125 11.03125 
Q 45.3125 15.671875 45.3125 23.6875 
L 45.3125 54.6875 
L 54.296875 54.6875 
L 54.296875 0 
L 45.3125 0 
L 45.3125 8.40625 
Q 42.046875 3.421875 37.71875 1 
Q 33.40625 -1.421875 27.6875 -1.421875 
Q 18.265625 -1.421875 13.375 4.4375 
Q 8.5 10.296875 8.5 21.578125 
z
M 31.109375 56 
z
" id="DejaVuSans-117"/>
      <path d="M 54.890625 33.015625 
L 54.890625 0 
L 45.90625 0 
L 45.90625 32.71875 
Q 45.90625 40.484375 42.875 44.328125 
Q 39.84375 48.1875 33.796875 48.1875 
Q 26.515625 48.1875 22.3125 43.546875 
Q 18.109375 38.921875 18.109375 30.90625 
L 18.109375 0 
L 9.078125 0 
L 9.078125 54.6875 
L 18.109375 54.6875 
L 18.109375 46.1875 
Q 21.34375 51.125 25.703125 53.5625 
Q 30.078125 56 35.796875 56 
Q 45.21875 56 50.046875 50.171875 
Q 54.890625 44.34375 54.890625 33.015625 
z
" id="DejaVuSans-110"/>
      <path d="M 37.109375 75.984375 
L 37.109375 68.5 
L 28.515625 68.5 
Q 23.6875 68.5 21.796875 66.546875 
Q 19.921875 64.59375 19.921875 59.515625 
L 19.921875 54.6875 
L 34.71875 54.6875 
L 34.71875 47.703125 
L 19.921875 47.703125 
L 19.921875 0 
L 10.890625 0 
L 10.890625 47.703125 
L 2.296875 47.703125 
L 2.296875 54.6875 
L 10.890625 54.6875 
L 10.890625 58.5 
Q 10.890625 67.625 15.140625 71.796875 
Q 19.390625 75.984375 28.609375 75.984375 
z
" id="DejaVuSans-102"/>
     </defs>
     <use xlink:href="#DejaVuSans-80"/>
     <use x="56.677734" xlink:href="#DejaVuSans-111"/>
     <use x="117.859375" xlink:href="#DejaVuSans-115"/>
     <use x="169.958984" xlink:href="#DejaVuSans-116"/>
     <use x="209.167969" xlink:href="#DejaVuSans-101"/>
     <use x="270.691406" xlink:href="#DejaVuSans-114"/>
     <use x="311.804688" xlink:href="#DejaVuSans-105"/>
     <use x="339.587891" xlink:href="#DejaVuSans-111"/>
     <use x="400.769531" xlink:href="#DejaVuSans-114"/>
     <use x="441.882812" xlink:href="#DejaVuSans-32"/>
     <use x="473.669922" xlink:href="#DejaVuSans-100"/>
     <use x="537.146484" xlink:href="#DejaVuSans-105"/>
     <use x="564.929688" xlink:href="#DejaVuSans-115"/>
     <use x="617.029297" xlink:href="#DejaVuSans-116"/>
     <use x="656.238281" xlink:href="#DejaVuSans-114"/>
     <use x="697.351562" xlink:href="#DejaVuSans-105"/>
     <use x="725.134766" xlink:href="#DejaVuSans-98"/>
     <use x="788.611328" xlink:href="#DejaVuSans-117"/>
     <use x="851.990234" xlink:href="#DejaVuSans-116"/>
     <use x="891.199219" xlink:href="#DejaVuSans-105"/>
     <use x="918.982422" xlink:href="#DejaVuSans-111"/>
     <use x="980.164062" xlink:href="#DejaVuSans-110"/>
     <use x="1043.542969" xlink:href="#DejaVuSans-115"/>
     <use x="1095.642578" xlink:href="#DejaVuSans-32"/>
     <use x="1127.429688" xlink:href="#DejaVuSans-111"/>
     <use x="1188.611328" xlink:href="#DejaVuSans-102"/>
     <use x="1223.816406" xlink:href="#DejaVuSans-32"/>
     <use x="1255.603516" xlink:href="#DejaVuSans-102"/>
     <use x="1290.808594" xlink:href="#DejaVuSans-105"/>
     <use x="1318.591797" xlink:href="#DejaVuSans-116"/>
     <use x="1357.800781" xlink:href="#DejaVuSans-116"/>
     <use x="1397.009766" xlink:href="#DejaVuSans-101"/>
     <use x="1458.533203" xlink:href="#DejaVuSans-100"/>
     <use x="1522.009766" xlink:href="#DejaVuSans-32"/>
     <use x="1553.796875" xlink:href="#DejaVuSans-112"/>
     <use x="1617.273438" xlink:href="#DejaVuSans-97"/>
     <use x="1678.552734" xlink:href="#DejaVuSans-114"/>
     <use x="1719.666016" xlink:href="#DejaVuSans-97"/>
     <use x="1780.945312" xlink:href="#DejaVuSans-109"/>
     <use x="1878.357422" xlink:href="#DejaVuSans-101"/>
     <use x="1939.880859" xlink:href="#DejaVuSans-116"/>
     <use x="1979.089844" xlink:href="#DejaVuSans-101"/>
     <use x="2040.613281" xlink:href="#DejaVuSans-114"/>
     <use x="2081.726562" xlink:href="#DejaVuSans-115"/>
    </g>
   </g>
  </g>
 </g>
 <defs>
  <clipPath id="p340b979ada">
   <rect height="585.192645" width="361.426708" x="67.573053" y="21.15774"/>
  </clipPath>
 </defs>
</svg>
