<?xml version="1.0" encoding="utf-8" standalone="no"?>
<!DOCTYPE svg PUBLIC "-//W3C//DTD SVG 1.1//EN"
  "http://www.w3.org/Graphics/SVG/1.1/DTD/svg11.dtd">
<svg xmlns:xlink="http://www.w3.org/1999/xlink" width="360pt" height="648pt" viewBox="0 0 360 648" xmlns="http://www.w3.org/2000/svg" version="1.1">
 <metadata>
  <rdf:RDF xmlns:dc="http://purl.org/dc/elements/1.1/" xmlns:cc="http://creativecommons.org/ns#" xmlns:rdf="http://www.w3.org/1999/02/22-rdf-syntax-ns#">
   <cc:Work>
    <dc:type rdf:resource="http://purl.org/dc/dcmitype/StillImage"/>
    <dc:date>2023-04-08T20:32:21.689625</dc:date>
    <dc:format>image/svg+xml</dc:format>
    <dc:creator>
     <cc:Agent>
      <dc:title>Matplotlib v3.7.1, https://matplotlib.org/</dc:title>
     </cc:Agent>
    </dc:creator>
   </cc:Work>
  </rdf:RDF>
 </metadata>
 <defs>
  <style type="text/css">*{stroke-linejoin: round; stroke-linecap: butt}</style>
 </defs>
 <g id="figure_1">
  <g id="patch_1">
   <path d="M 0 648 
L 360 648 
L 360 0 
L 0 0 
z
" style="fill: #ffffff"/>
  </g>
  <g id="axes_1">
   <g id="patch_2">
    <path d="M 45 576.72 
L 324 576.72 
L 324 77.76 
L 45 77.76 
z
" style="fill: #ffffff"/>
   </g>
   <g id="matplotlib.axis_1">
    <g id="xtick_1">
     <g id="line2d_1">
      <path d="M 57.681818 576.72 
L 57.681818 77.76 
" clip-path="url(#p9146a9a5e6)" style="fill: none; stroke: #b0b0b0; stroke-opacity: 0.2; stroke-width: 0.8; stroke-linecap: square"/>
     </g>
     <g id="line2d_2">
      <defs>
       <path id="m10970738b9" d="M 0 0 
L 0 3.5 
" style="stroke: #000000; stroke-width: 0.8"/>
      </defs>
      <g>
       <use xlink:href="#m10970738b9" x="57.681818" y="576.72" style="stroke: #000000; stroke-width: 0.8"/>
      </g>
     </g>
     <g id="text_1">
      <!-- 0 -->
      <g transform="translate(54.500568 591.318438) scale(0.1 -0.1)">
       <defs>
        <path id="DejaVuSans-30" d="M 2034 4250 
Q 1547 4250 1301 3770 
Q 1056 3291 1056 2328 
Q 1056 1369 1301 889 
Q 1547 409 2034 409 
Q 2525 409 2770 889 
Q 3016 1369 3016 2328 
Q 3016 3291 2770 3770 
Q 2525 4250 2034 4250 
z
M 2034 4750 
Q 2819 4750 3233 4129 
Q 3647 3509 3647 2328 
Q 3647 1150 3233 529 
Q 2819 -91 2034 -91 
Q 1250 -91 836 529 
Q 422 1150 422 2328 
Q 422 3509 836 4129 
Q 1250 4750 2034 4750 
z
" transform="scale(0.015625)"/>
       </defs>
       <use xlink:href="#DejaVuSans-30"/>
      </g>
     </g>
    </g>
    <g id="xtick_2">
     <g id="line2d_3">
      <path d="M 122.716783 576.72 
L 122.716783 77.76 
" clip-path="url(#p9146a9a5e6)" style="fill: none; stroke: #b0b0b0; stroke-opacity: 0.2; stroke-width: 0.8; stroke-linecap: square"/>
     </g>
     <g id="line2d_4">
      <g>
       <use xlink:href="#m10970738b9" x="122.716783" y="576.72" style="stroke: #000000; stroke-width: 0.8"/>
      </g>
     </g>
     <g id="text_2">
      <!-- 20 -->
      <g transform="translate(116.354283 591.318438) scale(0.1 -0.1)">
       <defs>
        <path id="DejaVuSans-32" d="M 1228 531 
L 3431 531 
L 3431 0 
L 469 0 
L 469 531 
Q 828 903 1448 1529 
Q 2069 2156 2228 2338 
Q 2531 2678 2651 2914 
Q 2772 3150 2772 3378 
Q 2772 3750 2511 3984 
Q 2250 4219 1831 4219 
Q 1534 4219 1204 4116 
Q 875 4013 500 3803 
L 500 4441 
Q 881 4594 1212 4672 
Q 1544 4750 1819 4750 
Q 2544 4750 2975 4387 
Q 3406 4025 3406 3419 
Q 3406 3131 3298 2873 
Q 3191 2616 2906 2266 
Q 2828 2175 2409 1742 
Q 1991 1309 1228 531 
z
" transform="scale(0.015625)"/>
       </defs>
       <use xlink:href="#DejaVuSans-32"/>
       <use xlink:href="#DejaVuSans-30" x="63.623047"/>
      </g>
     </g>
    </g>
    <g id="xtick_3">
     <g id="line2d_5">
      <path d="M 187.751748 576.72 
L 187.751748 77.76 
" clip-path="url(#p9146a9a5e6)" style="fill: none; stroke: #b0b0b0; stroke-opacity: 0.2; stroke-width: 0.8; stroke-linecap: square"/>
     </g>
     <g id="line2d_6">
      <g>
       <use xlink:href="#m10970738b9" x="187.751748" y="576.72" style="stroke: #000000; stroke-width: 0.8"/>
      </g>
     </g>
     <g id="text_3">
      <!-- 40 -->
      <g transform="translate(181.389248 591.318438) scale(0.1 -0.1)">
       <defs>
        <path id="DejaVuSans-34" d="M 2419 4116 
L 825 1625 
L 2419 1625 
L 2419 4116 
z
M 2253 4666 
L 3047 4666 
L 3047 1625 
L 3713 1625 
L 3713 1100 
L 3047 1100 
L 3047 0 
L 2419 0 
L 2419 1100 
L 313 1100 
L 313 1709 
L 2253 4666 
z
" transform="scale(0.015625)"/>
       </defs>
       <use xlink:href="#DejaVuSans-34"/>
       <use xlink:href="#DejaVuSans-30" x="63.623047"/>
      </g>
     </g>
    </g>
    <g id="xtick_4">
     <g id="line2d_7">
      <path d="M 252.786713 576.72 
L 252.786713 77.76 
" clip-path="url(#p9146a9a5e6)" style="fill: none; stroke: #b0b0b0; stroke-opacity: 0.2; stroke-width: 0.8; stroke-linecap: square"/>
     </g>
     <g id="line2d_8">
      <g>
       <use xlink:href="#m10970738b9" x="252.786713" y="576.72" style="stroke: #000000; stroke-width: 0.8"/>
      </g>
     </g>
     <g id="text_4">
      <!-- 60 -->
      <g transform="translate(246.424213 591.318438) scale(0.1 -0.1)">
       <defs>
        <path id="DejaVuSans-36" d="M 2113 2584 
Q 1688 2584 1439 2293 
Q 1191 2003 1191 1497 
Q 1191 994 1439 701 
Q 1688 409 2113 409 
Q 2538 409 2786 701 
Q 3034 994 3034 1497 
Q 3034 2003 2786 2293 
Q 2538 2584 2113 2584 
z
M 3366 4563 
L 3366 3988 
Q 3128 4100 2886 4159 
Q 2644 4219 2406 4219 
Q 1781 4219 1451 3797 
Q 1122 3375 1075 2522 
Q 1259 2794 1537 2939 
Q 1816 3084 2150 3084 
Q 2853 3084 3261 2657 
Q 3669 2231 3669 1497 
Q 3669 778 3244 343 
Q 2819 -91 2113 -91 
Q 1303 -91 875 529 
Q 447 1150 447 2328 
Q 447 3434 972 4092 
Q 1497 4750 2381 4750 
Q 2619 4750 2861 4703 
Q 3103 4656 3366 4563 
z
" transform="scale(0.015625)"/>
       </defs>
       <use xlink:href="#DejaVuSans-36"/>
       <use xlink:href="#DejaVuSans-30" x="63.623047"/>
      </g>
     </g>
    </g>
    <g id="text_5">
     <!-- Days since 100th confirmed case -->
     <g transform="translate(101.294531 604.996562) scale(0.1 -0.1)">
      <defs>
       <path id="DejaVuSans-44" d="M 1259 4147 
L 1259 519 
L 2022 519 
Q 2988 519 3436 956 
Q 3884 1394 3884 2338 
Q 3884 3275 3436 3711 
Q 2988 4147 2022 4147 
L 1259 4147 
z
M 628 4666 
L 1925 4666 
Q 3281 4666 3915 4102 
Q 4550 3538 4550 2338 
Q 4550 1131 3912 565 
Q 3275 0 1925 0 
L 628 0 
L 628 4666 
z
" transform="scale(0.015625)"/>
       <path id="DejaVuSans-61" d="M 2194 1759 
Q 1497 1759 1228 1600 
Q 959 1441 959 1056 
Q 959 750 1161 570 
Q 1363 391 1709 391 
Q 2188 391 2477 730 
Q 2766 1069 2766 1631 
L 2766 1759 
L 2194 1759 
z
M 3341 1997 
L 3341 0 
L 2766 0 
L 2766 531 
Q 2569 213 2275 61 
Q 1981 -91 1556 -91 
Q 1019 -91 701 211 
Q 384 513 384 1019 
Q 384 1609 779 1909 
Q 1175 2209 1959 2209 
L 2766 2209 
L 2766 2266 
Q 2766 2663 2505 2880 
Q 2244 3097 1772 3097 
Q 1472 3097 1187 3025 
Q 903 2953 641 2809 
L 641 3341 
Q 956 3463 1253 3523 
Q 1550 3584 1831 3584 
Q 2591 3584 2966 3190 
Q 3341 2797 3341 1997 
z
" transform="scale(0.015625)"/>
       <path id="DejaVuSans-79" d="M 2059 -325 
Q 1816 -950 1584 -1140 
Q 1353 -1331 966 -1331 
L 506 -1331 
L 506 -850 
L 844 -850 
Q 1081 -850 1212 -737 
Q 1344 -625 1503 -206 
L 1606 56 
L 191 3500 
L 800 3500 
L 1894 763 
L 2988 3500 
L 3597 3500 
L 2059 -325 
z
" transform="scale(0.015625)"/>
       <path id="DejaVuSans-73" d="M 2834 3397 
L 2834 2853 
Q 2591 2978 2328 3040 
Q 2066 3103 1784 3103 
Q 1356 3103 1142 2972 
Q 928 2841 928 2578 
Q 928 2378 1081 2264 
Q 1234 2150 1697 2047 
L 1894 2003 
Q 2506 1872 2764 1633 
Q 3022 1394 3022 966 
Q 3022 478 2636 193 
Q 2250 -91 1575 -91 
Q 1294 -91 989 -36 
Q 684 19 347 128 
L 347 722 
Q 666 556 975 473 
Q 1284 391 1588 391 
Q 1994 391 2212 530 
Q 2431 669 2431 922 
Q 2431 1156 2273 1281 
Q 2116 1406 1581 1522 
L 1381 1569 
Q 847 1681 609 1914 
Q 372 2147 372 2553 
Q 372 3047 722 3315 
Q 1072 3584 1716 3584 
Q 2034 3584 2315 3537 
Q 2597 3491 2834 3397 
z
" transform="scale(0.015625)"/>
       <path id="DejaVuSans-20" transform="scale(0.015625)"/>
       <path id="DejaVuSans-69" d="M 603 3500 
L 1178 3500 
L 1178 0 
L 603 0 
L 603 3500 
z
M 603 4863 
L 1178 4863 
L 1178 4134 
L 603 4134 
L 603 4863 
z
" transform="scale(0.015625)"/>
       <path id="DejaVuSans-6e" d="M 3513 2113 
L 3513 0 
L 2938 0 
L 2938 2094 
Q 2938 2591 2744 2837 
Q 2550 3084 2163 3084 
Q 1697 3084 1428 2787 
Q 1159 2491 1159 1978 
L 1159 0 
L 581 0 
L 581 3500 
L 1159 3500 
L 1159 2956 
Q 1366 3272 1645 3428 
Q 1925 3584 2291 3584 
Q 2894 3584 3203 3211 
Q 3513 2838 3513 2113 
z
" transform="scale(0.015625)"/>
       <path id="DejaVuSans-63" d="M 3122 3366 
L 3122 2828 
Q 2878 2963 2633 3030 
Q 2388 3097 2138 3097 
Q 1578 3097 1268 2742 
Q 959 2388 959 1747 
Q 959 1106 1268 751 
Q 1578 397 2138 397 
Q 2388 397 2633 464 
Q 2878 531 3122 666 
L 3122 134 
Q 2881 22 2623 -34 
Q 2366 -91 2075 -91 
Q 1284 -91 818 406 
Q 353 903 353 1747 
Q 353 2603 823 3093 
Q 1294 3584 2113 3584 
Q 2378 3584 2631 3529 
Q 2884 3475 3122 3366 
z
" transform="scale(0.015625)"/>
       <path id="DejaVuSans-65" d="M 3597 1894 
L 3597 1613 
L 953 1613 
Q 991 1019 1311 708 
Q 1631 397 2203 397 
Q 2534 397 2845 478 
Q 3156 559 3463 722 
L 3463 178 
Q 3153 47 2828 -22 
Q 2503 -91 2169 -91 
Q 1331 -91 842 396 
Q 353 884 353 1716 
Q 353 2575 817 3079 
Q 1281 3584 2069 3584 
Q 2775 3584 3186 3129 
Q 3597 2675 3597 1894 
z
M 3022 2063 
Q 3016 2534 2758 2815 
Q 2500 3097 2075 3097 
Q 1594 3097 1305 2825 
Q 1016 2553 972 2059 
L 3022 2063 
z
" transform="scale(0.015625)"/>
       <path id="DejaVuSans-31" d="M 794 531 
L 1825 531 
L 1825 4091 
L 703 3866 
L 703 4441 
L 1819 4666 
L 2450 4666 
L 2450 531 
L 3481 531 
L 3481 0 
L 794 0 
L 794 531 
z
" transform="scale(0.015625)"/>
       <path id="DejaVuSans-74" d="M 1172 4494 
L 1172 3500 
L 2356 3500 
L 2356 3053 
L 1172 3053 
L 1172 1153 
Q 1172 725 1289 603 
Q 1406 481 1766 481 
L 2356 481 
L 2356 0 
L 1766 0 
Q 1100 0 847 248 
Q 594 497 594 1153 
L 594 3053 
L 172 3053 
L 172 3500 
L 594 3500 
L 594 4494 
L 1172 4494 
z
" transform="scale(0.015625)"/>
       <path id="DejaVuSans-68" d="M 3513 2113 
L 3513 0 
L 2938 0 
L 2938 2094 
Q 2938 2591 2744 2837 
Q 2550 3084 2163 3084 
Q 1697 3084 1428 2787 
Q 1159 2491 1159 1978 
L 1159 0 
L 581 0 
L 581 4863 
L 1159 4863 
L 1159 2956 
Q 1366 3272 1645 3428 
Q 1925 3584 2291 3584 
Q 2894 3584 3203 3211 
Q 3513 2838 3513 2113 
z
" transform="scale(0.015625)"/>
       <path id="DejaVuSans-6f" d="M 1959 3097 
Q 1497 3097 1228 2736 
Q 959 2375 959 1747 
Q 959 1119 1226 758 
Q 1494 397 1959 397 
Q 2419 397 2687 759 
Q 2956 1122 2956 1747 
Q 2956 2369 2687 2733 
Q 2419 3097 1959 3097 
z
M 1959 3584 
Q 2709 3584 3137 3096 
Q 3566 2609 3566 1747 
Q 3566 888 3137 398 
Q 2709 -91 1959 -91 
Q 1206 -91 779 398 
Q 353 888 353 1747 
Q 353 2609 779 3096 
Q 1206 3584 1959 3584 
z
" transform="scale(0.015625)"/>
       <path id="DejaVuSans-66" d="M 2375 4863 
L 2375 4384 
L 1825 4384 
Q 1516 4384 1395 4259 
Q 1275 4134 1275 3809 
L 1275 3500 
L 2222 3500 
L 2222 3053 
L 1275 3053 
L 1275 0 
L 697 0 
L 697 3053 
L 147 3053 
L 147 3500 
L 697 3500 
L 697 3744 
Q 697 4328 969 4595 
Q 1241 4863 1831 4863 
L 2375 4863 
z
" transform="scale(0.015625)"/>
       <path id="DejaVuSans-72" d="M 2631 2963 
Q 2534 3019 2420 3045 
Q 2306 3072 2169 3072 
Q 1681 3072 1420 2755 
Q 1159 2438 1159 1844 
L 1159 0 
L 581 0 
L 581 3500 
L 1159 3500 
L 1159 2956 
Q 1341 3275 1631 3429 
Q 1922 3584 2338 3584 
Q 2397 3584 2469 3576 
Q 2541 3569 2628 3553 
L 2631 2963 
z
" transform="scale(0.015625)"/>
       <path id="DejaVuSans-6d" d="M 3328 2828 
Q 3544 3216 3844 3400 
Q 4144 3584 4550 3584 
Q 5097 3584 5394 3201 
Q 5691 2819 5691 2113 
L 5691 0 
L 5113 0 
L 5113 2094 
Q 5113 2597 4934 2840 
Q 4756 3084 4391 3084 
Q 3944 3084 3684 2787 
Q 3425 2491 3425 1978 
L 3425 0 
L 2847 0 
L 2847 2094 
Q 2847 2600 2669 2842 
Q 2491 3084 2119 3084 
Q 1678 3084 1418 2786 
Q 1159 2488 1159 1978 
L 1159 0 
L 581 0 
L 581 3500 
L 1159 3500 
L 1159 2956 
Q 1356 3278 1631 3431 
Q 1906 3584 2284 3584 
Q 2666 3584 2933 3390 
Q 3200 3197 3328 2828 
z
" transform="scale(0.015625)"/>
       <path id="DejaVuSans-64" d="M 2906 2969 
L 2906 4863 
L 3481 4863 
L 3481 0 
L 2906 0 
L 2906 525 
Q 2725 213 2448 61 
Q 2172 -91 1784 -91 
Q 1150 -91 751 415 
Q 353 922 353 1747 
Q 353 2572 751 3078 
Q 1150 3584 1784 3584 
Q 2172 3584 2448 3432 
Q 2725 3281 2906 2969 
z
M 947 1747 
Q 947 1113 1208 752 
Q 1469 391 1925 391 
Q 2381 391 2643 752 
Q 2906 1113 2906 1747 
Q 2906 2381 2643 2742 
Q 2381 3103 1925 3103 
Q 1469 3103 1208 2742 
Q 947 2381 947 1747 
z
" transform="scale(0.015625)"/>
      </defs>
      <use xlink:href="#DejaVuSans-44"/>
      <use xlink:href="#DejaVuSans-61" x="77.001953"/>
      <use xlink:href="#DejaVuSans-79" x="138.28125"/>
      <use xlink:href="#DejaVuSans-73" x="197.460938"/>
      <use xlink:href="#DejaVuSans-20" x="249.560547"/>
      <use xlink:href="#DejaVuSans-73" x="281.347656"/>
      <use xlink:href="#DejaVuSans-69" x="333.447266"/>
      <use xlink:href="#DejaVuSans-6e" x="361.230469"/>
      <use xlink:href="#DejaVuSans-63" x="424.609375"/>
      <use xlink:href="#DejaVuSans-65" x="479.589844"/>
      <use xlink:href="#DejaVuSans-20" x="541.113281"/>
      <use xlink:href="#DejaVuSans-31" x="572.900391"/>
      <use xlink:href="#DejaVuSans-30" x="636.523438"/>
      <use xlink:href="#DejaVuSans-30" x="700.146484"/>
      <use xlink:href="#DejaVuSans-74" x="763.769531"/>
      <use xlink:href="#DejaVuSans-68" x="802.978516"/>
      <use xlink:href="#DejaVuSans-20" x="866.357422"/>
      <use xlink:href="#DejaVuSans-63" x="898.144531"/>
      <use xlink:href="#DejaVuSans-6f" x="953.125"/>
      <use xlink:href="#DejaVuSans-6e" x="1014.306641"/>
      <use xlink:href="#DejaVuSans-66" x="1077.685547"/>
      <use xlink:href="#DejaVuSans-69" x="1112.890625"/>
      <use xlink:href="#DejaVuSans-72" x="1140.673828"/>
      <use xlink:href="#DejaVuSans-6d" x="1180.037109"/>
      <use xlink:href="#DejaVuSans-65" x="1277.449219"/>
      <use xlink:href="#DejaVuSans-64" x="1338.972656"/>
      <use xlink:href="#DejaVuSans-20" x="1402.449219"/>
      <use xlink:href="#DejaVuSans-63" x="1434.236328"/>
      <use xlink:href="#DejaVuSans-61" x="1489.216797"/>
      <use xlink:href="#DejaVuSans-73" x="1550.496094"/>
      <use xlink:href="#DejaVuSans-65" x="1602.595703"/>
     </g>
    </g>
   </g>
   <g id="matplotlib.axis_2">
    <g id="ytick_1">
     <g id="line2d_9">
      <path d="M 45 554.04 
L 324 554.04 
" clip-path="url(#p9146a9a5e6)" style="fill: none; stroke: #b0b0b0; stroke-opacity: 0.2; stroke-width: 0.8; stroke-linecap: square"/>
     </g>
     <g id="line2d_10">
      <defs>
       <path id="m33bf933445" d="M 0 0 
L -3.5 0 
" style="stroke: #000000; stroke-width: 0.8"/>
      </defs>
      <g>
       <use xlink:href="#m33bf933445" x="45" y="554.04" style="stroke: #000000; stroke-width: 0.8"/>
      </g>
     </g>
     <g id="text_6">
      <!-- 100 -->
      <g transform="translate(18.9125 557.839219) scale(0.1 -0.1)">
       <use xlink:href="#DejaVuSans-31"/>
       <use xlink:href="#DejaVuSans-30" x="63.623047"/>
       <use xlink:href="#DejaVuSans-30" x="127.246094"/>
      </g>
     </g>
    </g>
    <g id="ytick_2">
     <g id="line2d_11">
      <path d="M 45 425.484876 
L 324 425.484876 
" clip-path="url(#p9146a9a5e6)" style="fill: none; stroke: #b0b0b0; stroke-opacity: 0.2; stroke-width: 0.8; stroke-linecap: square"/>
     </g>
     <g id="line2d_12">
      <g>
       <use xlink:href="#m33bf933445" x="45" y="425.484876" style="stroke: #000000; stroke-width: 0.8"/>
      </g>
     </g>
     <g id="text_7">
      <!-- 1,000 -->
      <g transform="translate(9.371875 429.284095) scale(0.1 -0.1)">
       <defs>
        <path id="DejaVuSans-2c" d="M 750 794 
L 1409 794 
L 1409 256 
L 897 -744 
L 494 -744 
L 750 256 
L 750 794 
z
" transform="scale(0.015625)"/>
       </defs>
       <use xlink:href="#DejaVuSans-31"/>
       <use xlink:href="#DejaVuSans-2c" x="63.623047"/>
       <use xlink:href="#DejaVuSans-30" x="95.410156"/>
       <use xlink:href="#DejaVuSans-30" x="159.033203"/>
       <use xlink:href="#DejaVuSans-30" x="222.65625"/>
      </g>
     </g>
    </g>
    <g id="ytick_3">
     <g id="line2d_13">
      <path d="M 45 296.929752 
L 324 296.929752 
" clip-path="url(#p9146a9a5e6)" style="fill: none; stroke: #b0b0b0; stroke-opacity: 0.2; stroke-width: 0.8; stroke-linecap: square"/>
     </g>
     <g id="line2d_14">
      <g>
       <use xlink:href="#m33bf933445" x="45" y="296.929752" style="stroke: #000000; stroke-width: 0.8"/>
      </g>
     </g>
     <g id="text_8">
      <!-- 10,000 -->
      <g transform="translate(3.009375 300.728971) scale(0.1 -0.1)">
       <use xlink:href="#DejaVuSans-31"/>
       <use xlink:href="#DejaVuSans-30" x="63.623047"/>
       <use xlink:href="#DejaVuSans-2c" x="127.246094"/>
       <use xlink:href="#DejaVuSans-30" x="159.033203"/>
       <use xlink:href="#DejaVuSans-30" x="222.65625"/>
       <use xlink:href="#DejaVuSans-30" x="286.279297"/>
      </g>
     </g>
    </g>
    <g id="ytick_4">
     <g id="line2d_15">
      <path d="M 45 168.374629 
L 324 168.374629 
" clip-path="url(#p9146a9a5e6)" style="fill: none; stroke: #b0b0b0; stroke-opacity: 0.2; stroke-width: 0.8; stroke-linecap: square"/>
     </g>
     <g id="line2d_16">
      <g>
       <use xlink:href="#m33bf933445" x="45" y="168.374629" style="stroke: #000000; stroke-width: 0.8"/>
      </g>
     </g>
     <g id="text_9">
      <!-- 100,000 -->
      <g transform="translate(-3.353125 172.173847) scale(0.1 -0.1)">
       <use xlink:href="#DejaVuSans-31"/>
       <use xlink:href="#DejaVuSans-30" x="63.623047"/>
       <use xlink:href="#DejaVuSans-30" x="127.246094"/>
       <use xlink:href="#DejaVuSans-2c" x="190.869141"/>
       <use xlink:href="#DejaVuSans-30" x="222.65625"/>
       <use xlink:href="#DejaVuSans-30" x="286.279297"/>
       <use xlink:href="#DejaVuSans-30" x="349.902344"/>
      </g>
     </g>
    </g>
    <g id="ytick_5">
     <g id="line2d_17">
      <defs>
       <path id="m3c52abb4c8" d="M 0 0 
L -2 0 
" style="stroke: #000000; stroke-width: 0.6"/>
      </defs>
      <g>
       <use xlink:href="#m3c52abb4c8" x="45" y="573.953441" style="stroke: #000000; stroke-width: 0.6"/>
      </g>
     </g>
    </g>
    <g id="ytick_6">
     <g id="line2d_18">
      <g>
       <use xlink:href="#m3c52abb4c8" x="45" y="566.498279" style="stroke: #000000; stroke-width: 0.6"/>
      </g>
     </g>
    </g>
    <g id="ytick_7">
     <g id="line2d_19">
      <g>
       <use xlink:href="#m3c52abb4c8" x="45" y="559.92236" style="stroke: #000000; stroke-width: 0.6"/>
      </g>
     </g>
    </g>
    <g id="ytick_8">
     <g id="line2d_20">
      <g>
       <use xlink:href="#m3c52abb4c8" x="45" y="515.341052" style="stroke: #000000; stroke-width: 0.6"/>
      </g>
     </g>
    </g>
    <g id="ytick_9">
     <g id="line2d_21">
      <g>
       <use xlink:href="#m3c52abb4c8" x="45" y="492.703618" style="stroke: #000000; stroke-width: 0.6"/>
      </g>
     </g>
    </g>
    <g id="ytick_10">
     <g id="line2d_22">
      <g>
       <use xlink:href="#m3c52abb4c8" x="45" y="476.642103" style="stroke: #000000; stroke-width: 0.6"/>
      </g>
     </g>
    </g>
    <g id="ytick_11">
     <g id="line2d_23">
      <g>
       <use xlink:href="#m3c52abb4c8" x="45" y="464.183825" style="stroke: #000000; stroke-width: 0.6"/>
      </g>
     </g>
    </g>
    <g id="ytick_12">
     <g id="line2d_24">
      <g>
       <use xlink:href="#m3c52abb4c8" x="45" y="454.00467" style="stroke: #000000; stroke-width: 0.6"/>
      </g>
     </g>
    </g>
    <g id="ytick_13">
     <g id="line2d_25">
      <g>
       <use xlink:href="#m3c52abb4c8" x="45" y="445.398317" style="stroke: #000000; stroke-width: 0.6"/>
      </g>
     </g>
    </g>
    <g id="ytick_14">
     <g id="line2d_26">
      <g>
       <use xlink:href="#m3c52abb4c8" x="45" y="437.943155" style="stroke: #000000; stroke-width: 0.6"/>
      </g>
     </g>
    </g>
    <g id="ytick_15">
     <g id="line2d_27">
      <g>
       <use xlink:href="#m3c52abb4c8" x="45" y="431.367236" style="stroke: #000000; stroke-width: 0.6"/>
      </g>
     </g>
    </g>
    <g id="ytick_16">
     <g id="line2d_28">
      <g>
       <use xlink:href="#m3c52abb4c8" x="45" y="386.785928" style="stroke: #000000; stroke-width: 0.6"/>
      </g>
     </g>
    </g>
    <g id="ytick_17">
     <g id="line2d_29">
      <g>
       <use xlink:href="#m3c52abb4c8" x="45" y="364.148494" style="stroke: #000000; stroke-width: 0.6"/>
      </g>
     </g>
    </g>
    <g id="ytick_18">
     <g id="line2d_30">
      <g>
       <use xlink:href="#m3c52abb4c8" x="45" y="348.08698" style="stroke: #000000; stroke-width: 0.6"/>
      </g>
     </g>
    </g>
    <g id="ytick_19">
     <g id="line2d_31">
      <g>
       <use xlink:href="#m3c52abb4c8" x="45" y="335.628701" style="stroke: #000000; stroke-width: 0.6"/>
      </g>
     </g>
    </g>
    <g id="ytick_20">
     <g id="line2d_32">
      <g>
       <use xlink:href="#m3c52abb4c8" x="45" y="325.449546" style="stroke: #000000; stroke-width: 0.6"/>
      </g>
     </g>
    </g>
    <g id="ytick_21">
     <g id="line2d_33">
      <g>
       <use xlink:href="#m3c52abb4c8" x="45" y="316.843193" style="stroke: #000000; stroke-width: 0.6"/>
      </g>
     </g>
    </g>
    <g id="ytick_22">
     <g id="line2d_34">
      <g>
       <use xlink:href="#m3c52abb4c8" x="45" y="309.388031" style="stroke: #000000; stroke-width: 0.6"/>
      </g>
     </g>
    </g>
    <g id="ytick_23">
     <g id="line2d_35">
      <g>
       <use xlink:href="#m3c52abb4c8" x="45" y="302.812112" style="stroke: #000000; stroke-width: 0.6"/>
      </g>
     </g>
    </g>
    <g id="ytick_24">
     <g id="line2d_36">
      <g>
       <use xlink:href="#m3c52abb4c8" x="45" y="258.230804" style="stroke: #000000; stroke-width: 0.6"/>
      </g>
     </g>
    </g>
    <g id="ytick_25">
     <g id="line2d_37">
      <g>
       <use xlink:href="#m3c52abb4c8" x="45" y="235.59337" style="stroke: #000000; stroke-width: 0.6"/>
      </g>
     </g>
    </g>
    <g id="ytick_26">
     <g id="line2d_38">
      <g>
       <use xlink:href="#m3c52abb4c8" x="45" y="219.531856" style="stroke: #000000; stroke-width: 0.6"/>
      </g>
     </g>
    </g>
    <g id="ytick_27">
     <g id="line2d_39">
      <g>
       <use xlink:href="#m3c52abb4c8" x="45" y="207.073577" style="stroke: #000000; stroke-width: 0.6"/>
      </g>
     </g>
    </g>
    <g id="ytick_28">
     <g id="line2d_40">
      <g>
       <use xlink:href="#m3c52abb4c8" x="45" y="196.894422" style="stroke: #000000; stroke-width: 0.6"/>
      </g>
     </g>
    </g>
    <g id="ytick_29">
     <g id="line2d_41">
      <g>
       <use xlink:href="#m3c52abb4c8" x="45" y="188.288069" style="stroke: #000000; stroke-width: 0.6"/>
      </g>
     </g>
    </g>
    <g id="ytick_30">
     <g id="line2d_42">
      <g>
       <use xlink:href="#m3c52abb4c8" x="45" y="180.832907" style="stroke: #000000; stroke-width: 0.6"/>
      </g>
     </g>
    </g>
    <g id="ytick_31">
     <g id="line2d_43">
      <g>
       <use xlink:href="#m3c52abb4c8" x="45" y="174.256989" style="stroke: #000000; stroke-width: 0.6"/>
      </g>
     </g>
    </g>
    <g id="ytick_32">
     <g id="line2d_44">
      <g>
       <use xlink:href="#m3c52abb4c8" x="45" y="129.67568" style="stroke: #000000; stroke-width: 0.6"/>
      </g>
     </g>
    </g>
    <g id="ytick_33">
     <g id="line2d_45">
      <g>
       <use xlink:href="#m3c52abb4c8" x="45" y="107.038247" style="stroke: #000000; stroke-width: 0.6"/>
      </g>
     </g>
    </g>
    <g id="ytick_34">
     <g id="line2d_46">
      <g>
       <use xlink:href="#m3c52abb4c8" x="45" y="90.976732" style="stroke: #000000; stroke-width: 0.6"/>
      </g>
     </g>
    </g>
    <g id="ytick_35">
     <g id="line2d_47">
      <g>
       <use xlink:href="#m3c52abb4c8" x="45" y="78.518453" style="stroke: #000000; stroke-width: 0.6"/>
      </g>
     </g>
    </g>
    <g id="text_10">
     <!-- Cumulative number of cases (log10 scale) -->
     <g transform="translate(-9.432813 432.925938) rotate(-90) scale(0.1 -0.1)">
      <defs>
       <path id="DejaVuSans-43" d="M 4122 4306 
L 4122 3641 
Q 3803 3938 3442 4084 
Q 3081 4231 2675 4231 
Q 1875 4231 1450 3742 
Q 1025 3253 1025 2328 
Q 1025 1406 1450 917 
Q 1875 428 2675 428 
Q 3081 428 3442 575 
Q 3803 722 4122 1019 
L 4122 359 
Q 3791 134 3420 21 
Q 3050 -91 2638 -91 
Q 1578 -91 968 557 
Q 359 1206 359 2328 
Q 359 3453 968 4101 
Q 1578 4750 2638 4750 
Q 3056 4750 3426 4639 
Q 3797 4528 4122 4306 
z
" transform="scale(0.015625)"/>
       <path id="DejaVuSans-75" d="M 544 1381 
L 544 3500 
L 1119 3500 
L 1119 1403 
Q 1119 906 1312 657 
Q 1506 409 1894 409 
Q 2359 409 2629 706 
Q 2900 1003 2900 1516 
L 2900 3500 
L 3475 3500 
L 3475 0 
L 2900 0 
L 2900 538 
Q 2691 219 2414 64 
Q 2138 -91 1772 -91 
Q 1169 -91 856 284 
Q 544 659 544 1381 
z
M 1991 3584 
L 1991 3584 
z
" transform="scale(0.015625)"/>
       <path id="DejaVuSans-6c" d="M 603 4863 
L 1178 4863 
L 1178 0 
L 603 0 
L 603 4863 
z
" transform="scale(0.015625)"/>
       <path id="DejaVuSans-76" d="M 191 3500 
L 800 3500 
L 1894 563 
L 2988 3500 
L 3597 3500 
L 2284 0 
L 1503 0 
L 191 3500 
z
" transform="scale(0.015625)"/>
       <path id="DejaVuSans-62" d="M 3116 1747 
Q 3116 2381 2855 2742 
Q 2594 3103 2138 3103 
Q 1681 3103 1420 2742 
Q 1159 2381 1159 1747 
Q 1159 1113 1420 752 
Q 1681 391 2138 391 
Q 2594 391 2855 752 
Q 3116 1113 3116 1747 
z
M 1159 2969 
Q 1341 3281 1617 3432 
Q 1894 3584 2278 3584 
Q 2916 3584 3314 3078 
Q 3713 2572 3713 1747 
Q 3713 922 3314 415 
Q 2916 -91 2278 -91 
Q 1894 -91 1617 61 
Q 1341 213 1159 525 
L 1159 0 
L 581 0 
L 581 4863 
L 1159 4863 
L 1159 2969 
z
" transform="scale(0.015625)"/>
       <path id="DejaVuSans-28" d="M 1984 4856 
Q 1566 4138 1362 3434 
Q 1159 2731 1159 2009 
Q 1159 1288 1364 580 
Q 1569 -128 1984 -844 
L 1484 -844 
Q 1016 -109 783 600 
Q 550 1309 550 2009 
Q 550 2706 781 3412 
Q 1013 4119 1484 4856 
L 1984 4856 
z
" transform="scale(0.015625)"/>
       <path id="DejaVuSans-67" d="M 2906 1791 
Q 2906 2416 2648 2759 
Q 2391 3103 1925 3103 
Q 1463 3103 1205 2759 
Q 947 2416 947 1791 
Q 947 1169 1205 825 
Q 1463 481 1925 481 
Q 2391 481 2648 825 
Q 2906 1169 2906 1791 
z
M 3481 434 
Q 3481 -459 3084 -895 
Q 2688 -1331 1869 -1331 
Q 1566 -1331 1297 -1286 
Q 1028 -1241 775 -1147 
L 775 -588 
Q 1028 -725 1275 -790 
Q 1522 -856 1778 -856 
Q 2344 -856 2625 -561 
Q 2906 -266 2906 331 
L 2906 616 
Q 2728 306 2450 153 
Q 2172 0 1784 0 
Q 1141 0 747 490 
Q 353 981 353 1791 
Q 353 2603 747 3093 
Q 1141 3584 1784 3584 
Q 2172 3584 2450 3431 
Q 2728 3278 2906 2969 
L 2906 3500 
L 3481 3500 
L 3481 434 
z
" transform="scale(0.015625)"/>
       <path id="DejaVuSans-29" d="M 513 4856 
L 1013 4856 
Q 1481 4119 1714 3412 
Q 1947 2706 1947 2009 
Q 1947 1309 1714 600 
Q 1481 -109 1013 -844 
L 513 -844 
Q 928 -128 1133 580 
Q 1338 1288 1338 2009 
Q 1338 2731 1133 3434 
Q 928 4138 513 4856 
z
" transform="scale(0.015625)"/>
      </defs>
      <use xlink:href="#DejaVuSans-43"/>
      <use xlink:href="#DejaVuSans-75" x="69.824219"/>
      <use xlink:href="#DejaVuSans-6d" x="133.203125"/>
      <use xlink:href="#DejaVuSans-75" x="230.615234"/>
      <use xlink:href="#DejaVuSans-6c" x="293.994141"/>
      <use xlink:href="#DejaVuSans-61" x="321.777344"/>
      <use xlink:href="#DejaVuSans-74" x="383.056641"/>
      <use xlink:href="#DejaVuSans-69" x="422.265625"/>
      <use xlink:href="#DejaVuSans-76" x="450.048828"/>
      <use xlink:href="#DejaVuSans-65" x="509.228516"/>
      <use xlink:href="#DejaVuSans-20" x="570.751953"/>
      <use xlink:href="#DejaVuSans-6e" x="602.539062"/>
      <use xlink:href="#DejaVuSans-75" x="665.917969"/>
      <use xlink:href="#DejaVuSans-6d" x="729.296875"/>
      <use xlink:href="#DejaVuSans-62" x="826.708984"/>
      <use xlink:href="#DejaVuSans-65" x="890.185547"/>
      <use xlink:href="#DejaVuSans-72" x="951.708984"/>
      <use xlink:href="#DejaVuSans-20" x="992.822266"/>
      <use xlink:href="#DejaVuSans-6f" x="1024.609375"/>
      <use xlink:href="#DejaVuSans-66" x="1085.791016"/>
      <use xlink:href="#DejaVuSans-20" x="1120.996094"/>
      <use xlink:href="#DejaVuSans-63" x="1152.783203"/>
      <use xlink:href="#DejaVuSans-61" x="1207.763672"/>
      <use xlink:href="#DejaVuSans-73" x="1269.042969"/>
      <use xlink:href="#DejaVuSans-65" x="1321.142578"/>
      <use xlink:href="#DejaVuSans-73" x="1382.666016"/>
      <use xlink:href="#DejaVuSans-20" x="1434.765625"/>
      <use xlink:href="#DejaVuSans-28" x="1466.552734"/>
      <use xlink:href="#DejaVuSans-6c" x="1505.566406"/>
      <use xlink:href="#DejaVuSans-6f" x="1533.349609"/>
      <use xlink:href="#DejaVuSans-67" x="1594.53125"/>
      <use xlink:href="#DejaVuSans-31" x="1658.007812"/>
      <use xlink:href="#DejaVuSans-30" x="1721.630859"/>
      <use xlink:href="#DejaVuSans-20" x="1785.253906"/>
      <use xlink:href="#DejaVuSans-73" x="1817.041016"/>
      <use xlink:href="#DejaVuSans-63" x="1869.140625"/>
      <use xlink:href="#DejaVuSans-61" x="1924.121094"/>
      <use xlink:href="#DejaVuSans-6c" x="1985.400391"/>
      <use xlink:href="#DejaVuSans-65" x="2013.183594"/>
      <use xlink:href="#DejaVuSans-29" x="2074.707031"/>
     </g>
    </g>
   </g>
   <g id="line2d_48">
    <path d="M 57.681818 552.934404 
L 60.933566 518.499419 
L 64.185315 507.295817 
L 67.437063 499.840655 
L 70.688811 491.780774 
L 73.940559 491.780774 
L 77.192308 475.399834 
L 80.444056 469.572104 
L 83.695804 462.968863 
L 86.947552 455.513702 
L 90.199301 434.755833 
L 93.451049 434.755833 
L 96.702797 426.27203 
L 99.954545 410.836874 
L 103.206294 409.98448 
" clip-path="url(#p9146a9a5e6)" style="fill: none; stroke: #808080; stroke-opacity: 0.6; stroke-width: 0.5; stroke-linecap: square"/>
   </g>
   <g id="line2d_49">
    <path d="M 57.681818 540.257609 
L 60.933566 528.501614 
L 64.185315 508.765133 
L 67.437063 499.419289 
L 70.688811 492.517825 
L 73.940559 478.486744 
L 77.192308 463.960947 
L 80.444056 455.037733 
L 83.695804 446.201651 
L 86.947552 441.919842 
L 90.199301 436.564547 
L 93.451049 427.416144 
L 96.702797 427.416144 
L 99.954545 418.513343 
L 103.206294 418.513343 
L 106.458042 412.360616 
L 109.70979 404.701702 
L 112.961538 400.872867 
" clip-path="url(#p9146a9a5e6)" style="fill: none; stroke: #808080; stroke-opacity: 0.6; stroke-width: 0.5; stroke-linecap: square"/>
   </g>
   <g id="line2d_50">
    <path d="M 57.681818 554.04 
L 60.933566 547.712771 
L 64.185315 541.136852 
L 67.437063 529.212843 
L 70.688811 516.184858 
L 73.940559 503.106544 
L 77.192308 493.077069 
L 80.444056 480.245339 
L 83.695804 469.572104 
L 86.947552 457.360319 
L 90.199301 444.685068 
L 93.451049 433.003881 
L 96.702797 420.265237 
L 99.954545 395.564692 
L 103.206294 391.959414 
L 106.458042 376.074275 
L 109.70979 368.020363 
L 112.961538 361.141634 
L 116.213287 357.52297 
L 119.465035 350.81865 
L 122.716783 346.803774 
L 125.968531 340.808312 
L 129.22028 339.000163 
L 132.472028 335.897334 
L 135.723776 333.18189 
L 138.975524 329.822322 
L 142.227273 328.440769 
L 145.479021 327.883971 
" clip-path="url(#p9146a9a5e6)" style="fill: none; stroke: #808080; stroke-opacity: 0.6; stroke-width: 0.5; stroke-linecap: square"/>
   </g>
   <g id="line2d_51">
    <path d="M 57.681818 552.934404 
L 60.933566 538.964174 
L 64.185315 520.606491 
L 67.437063 503.783289 
L 70.688811 482.369593 
L 73.940559 463.738955 
L 77.192308 449.107999 
L 80.444056 433.905436 
L 83.695804 424.598655 
L 86.947552 409.47922 
L 90.199301 397.661713 
L 93.451049 381.566289 
L 96.702797 371.095523 
L 99.954545 363.703625 
L 103.206294 353.490632 
L 106.458042 341.685027 
L 109.70979 332.565439 
L 112.961538 326.50157 
L 116.213287 316.612372 
L 119.465035 311.543708 
L 122.716783 307.393251 
L 125.968531 303.984373 
L 129.22028 299.104292 
L 132.472028 295.922768 
L 135.723776 293.094951 
L 138.975524 290.957577 
L 142.227273 289.005495 
L 145.479021 287.850053 
L 148.730769 286.829747 
" clip-path="url(#p9146a9a5e6)" style="fill: none; stroke: #808080; stroke-opacity: 0.6; stroke-width: 0.5; stroke-linecap: square"/>
   </g>
   <g id="line2d_52">
    <path d="M 57.681818 549.228632 
L 60.933566 524.743996 
L 64.185315 515.341052 
L 67.437063 505.395011 
L 70.688811 499.209792 
L 73.940559 490.157148 
L 77.192308 476.781855 
L 80.444056 457.956383 
L 83.695804 446.282624 
L 86.947552 432.242541 
L 90.199301 420.930202 
L 93.451049 413.340129 
L 96.702797 403.370977 
L 99.954545 392.823589 
L 103.206294 380.036583 
L 106.458042 367.702125 
L 109.70979 357.14412 
L 112.961538 351.79453 
L 116.213287 344.453219 
L 119.465035 336.336638 
L 122.716783 323.304577 
L 125.968531 314.622802 
L 129.22028 301.986982 
L 132.472028 292.447164 
L 135.723776 287.222495 
L 138.975524 283.256513 
L 142.227273 278.287994 
L 145.479021 273.011841 
L 148.730769 268.064877 
L 151.982517 262.792081 
L 155.234266 259.100123 
" clip-path="url(#p9146a9a5e6)" style="fill: none; stroke: #808080; stroke-opacity: 0.6; stroke-width: 0.5; stroke-linecap: square"/>
   </g>
   <g id="line2d_53">
    <path d="M 57.681818 543.397516 
L 60.933566 515.341052 
L 64.185315 506.57541 
L 67.437063 494.404179 
L 70.688811 472.864668 
L 73.940559 452.084011 
L 77.192308 431.119649 
L 80.444056 418.760273 
L 83.695804 401.161027 
L 86.947552 389.914762 
L 90.199301 381.439314 
L 93.451049 375.84433 
L 96.702797 365.753209 
L 99.954545 356.88208 
L 103.206294 349.44326 
L 106.458042 344.623495 
L 109.70979 340.539424 
L 112.961538 328.147026 
L 116.213287 318.166795 
L 119.465035 310.019687 
L 122.716783 302.465797 
L 125.968531 295.398839 
L 129.22028 290.952561 
" clip-path="url(#p9146a9a5e6)" style="fill: none; stroke: #808080; stroke-opacity: 0.6; stroke-width: 0.5; stroke-linecap: square"/>
   </g>
   <g id="line2d_54">
    <path d="M 57.681818 552.389709 
L 60.933566 536.057827 
L 64.185315 522.478089 
L 67.437063 504.239053 
L 70.688811 491.964127 
L 73.940559 473.388905 
L 77.192308 456.966449 
L 80.444056 446.201651 
L 83.695804 434.821788 
L 86.947552 427.12791 
L 90.199301 413.881741 
L 93.451049 405.515633 
L 96.702797 397.661713 
L 99.954545 387.942353 
L 103.206294 357.407395 
L 106.458042 347.836305 
L 109.70979 339.214074 
L 112.961538 331.47684 
L 116.213287 323.125775 
L 119.465035 313.559905 
L 122.716783 305.767351 
L 125.968531 299.237962 
L 129.22028 290.264576 
L 132.472028 284.386675 
L 135.723776 278.616813 
L 138.975524 272.476047 
" clip-path="url(#p9146a9a5e6)" style="fill: none; stroke: #808080; stroke-opacity: 0.6; stroke-width: 0.5; stroke-linecap: square"/>
   </g>
   <g id="line2d_55">
    <path d="M 57.681818 529.212843 
L 60.933566 515.062593 
L 64.185315 505.629103 
L 67.437063 485.388208 
L 70.688811 472.087429 
L 73.940559 460.198065 
L 77.192308 451.103717 
L 80.444056 441.844952 
L 83.695804 430.018897 
L 86.947552 418.071603 
L 90.199301 410.579787 
L 93.451049 398.89635 
L 96.702797 389.385835 
L 99.954545 383.034588 
L 103.206294 375.478375 
L 106.458042 369.250566 
L 109.70979 363.574537 
L 112.961538 357.094894 
L 116.213287 351.884099 
L 119.465035 345.883837 
L 122.716783 341.872023 
" clip-path="url(#p9146a9a5e6)" style="fill: none; stroke: #808080; stroke-opacity: 0.6; stroke-width: 0.5; stroke-linecap: square"/>
   </g>
   <g id="line2d_56">
    <path d="M 57.681818 511.044257 
L 60.933566 506.337325 
L 64.185315 478.631196 
L 67.437063 461.353588 
L 70.688811 451.904491 
L 73.940559 432.495169 
L 77.192308 409.857735 
L 80.444056 387.121922 
L 83.695804 368.501148 
L 86.947552 341.164745 
L 90.199301 325.505405 
L 93.451049 311.275968 
L 96.702797 298.549791 
L 99.954545 287.646386 
L 103.206294 276.57532 
L 106.458042 266.615669 
L 109.70979 256.993996 
L 112.961538 247.312158 
L 116.213287 239.351659 
L 119.465035 233.391123 
L 122.716783 227.588432 
L 125.968531 223.535528 
L 129.22028 219.245065 
L 132.472028 215.890249 
L 135.723776 213.29942 
L 138.975524 197.020183 
L 142.227273 193.27287 
L 145.479021 191.102302 
L 148.730769 189.44368 
L 151.982517 187.797326 
L 155.234266 186.322733 
L 158.486014 184.991246 
L 161.737762 184.695801 
L 164.98951 184.033385 
L 168.241259 183.426235 
L 171.493007 182.955228 
L 174.744755 182.797417 
L 177.996503 182.426371 
L 181.248252 182.132727 
L 184.5 181.820017 
L 187.751748 181.586805 
L 191.003497 181.284867 
L 194.255245 180.882479 
L 197.506993 180.739469 
L 200.758741 180.651056 
L 204.01049 180.568339 
L 207.262238 180.487132 
L 210.513986 180.369348 
L 213.765734 180.299488 
L 217.017483 180.2677 
L 220.269231 180.23662 
L 223.520979 180.222812 
L 226.772727 180.202797 
L 230.024476 180.186238 
L 233.276224 180.171064 
L 236.527972 180.157962 
L 239.77972 180.142795 
L 243.031469 180.125565 
L 246.283217 180.095941 
L 249.534965 180.080103 
L 252.786713 180.049815 
L 256.038462 179.981729 
L 259.29021 179.945999 
L 262.541958 179.901369 
L 265.793706 179.806735 
L 269.045455 179.759478 
L 272.297203 179.706105 
L 275.548951 179.636387 
L 278.800699 179.572213 
L 282.052448 179.491078 
L 285.304196 179.414143 
L 288.555944 179.347506 
L 291.807692 179.290452 
L 295.059441 179.253805 
L 298.311189 179.186004 
L 301.562937 179.138592 
L 304.814685 179.096633 
L 308.066434 179.064169 
L 311.318182 179.018888 
" clip-path="url(#p9146a9a5e6)" style="fill: none; stroke: #808080; stroke-opacity: 0.6; stroke-width: 0.5; stroke-linecap: square"/>
   </g>
   <g id="line2d_57">
    <path d="M 57.681818 552.934404 
L 60.933566 540.257609 
L 64.185315 528.501614 
L 67.437063 512.617059 
L 70.688811 506.337325 
L 73.940559 491.598022 
L 77.192308 479.80047 
L 80.444056 467.638377 
L 83.695804 465.197933 
L 86.947552 459.990516 
L 90.199301 453.265178 
L 93.451049 445.239028 
L 96.702797 438.082907 
L 99.954545 430.996266 
L 103.206294 421.968944 
L 106.458042 417.150362 
L 109.70979 412.272416 
L 112.961538 406.460605 
L 116.213287 403.408561 
" clip-path="url(#p9146a9a5e6)" style="fill: none; stroke: #808080; stroke-opacity: 0.6; stroke-width: 0.5; stroke-linecap: square"/>
   </g>
   <g id="line2d_58">
    <path d="M 57.681818 545.753595 
L 60.933566 531.402566 
L 64.185315 511.563616 
L 67.437063 493.077069 
L 70.688811 485.062663 
L 73.940559 472.087429 
L 77.192308 461.77978 
L 80.444056 445.878929 
L 83.695804 431.119649 
L 86.947552 425.76473 
L 90.199301 416.958339 
L 93.451049 413.65543 
L 96.702797 406.939157 
L 99.954545 397.391017 
L 103.206294 385.081459 
L 106.458042 379.49501 
L 109.70979 370.801233 
L 112.961538 367.425147 
L 116.213287 364.111286 
L 119.465035 358.692069 
L 122.716783 354.140195 
L 125.968531 350.105008 
L 129.22028 345.496075 
L 132.472028 341.859537 
L 135.723776 340.441967 
" clip-path="url(#p9146a9a5e6)" style="fill: none; stroke: #808080; stroke-opacity: 0.6; stroke-width: 0.5; stroke-linecap: square"/>
   </g>
   <g id="line2d_59">
    <path d="M 57.681818 547.216494 
L 60.933566 499.840655 
L 64.185315 462.425229 
L 67.437063 447.3461 
L 70.688811 437.664697 
L 73.940559 436.089966 
L 77.192308 432.940038 
L 80.444056 429.416617 
L 83.695804 424.160764 
L 86.947552 419.40745 
L 90.199301 417.63333 
L 93.451049 412.80372 
L 96.702797 409.731278 
L 99.954545 406.899121 
L 103.206294 404.356475 
L 106.458042 399.559141 
L 109.70979 395.076799 
L 112.961538 390.329643 
L 116.213287 385.516365 
L 119.465035 381.439314 
L 122.716783 376.723208 
L 125.968531 372.634011 
L 129.22028 366.816684 
L 132.472028 362.191885 
L 135.723776 357.390904 
L 138.975524 351.586095 
L 142.227273 347.022451 
L 145.479021 343.160483 
" clip-path="url(#p9146a9a5e6)" style="fill: none; stroke: #808080; stroke-opacity: 0.6; stroke-width: 0.5; stroke-linecap: square"/>
   </g>
   <g id="line2d_60">
    <path d="M 57.681818 547.712771 
L 60.933566 514.785517 
L 64.185315 504.010706 
L 67.437063 490.513895 
L 70.688811 477.770036 
L 73.940559 465.540105 
L 77.192308 455.801243 
L 80.444056 443.903111 
L 83.695804 433.970393 
L 86.947552 431.305236 
L 90.199301 419.708696 
L 93.451049 411.528286 
L 96.702797 407.502703 
L 99.954545 403.295885 
L 103.206294 400.017206 
L 106.458042 394.400835 
" clip-path="url(#p9146a9a5e6)" style="fill: none; stroke: #808080; stroke-opacity: 0.6; stroke-width: 0.5; stroke-linecap: square"/>
   </g>
   <g id="line2d_61">
    <path d="M 57.681818 548.213499 
L 60.933566 525.075337 
L 64.185315 515.620906 
L 67.437063 473.126171 
L 70.688811 460.72034 
L 73.940559 438.716155 
L 77.192308 426.555868 
L 80.444056 421.084786 
L 83.695804 414.796271 
L 86.947552 406.579859 
L 90.199301 398.309923 
L 93.451049 391.593109 
L 96.702797 389.944295 
L 99.954545 387.743211 
L 103.206294 378.934382 
L 106.458042 368.844226 
L 109.70979 361.194563 
L 112.961538 357.688493 
L 116.213287 356.10326 
L 119.465035 353.260465 
" clip-path="url(#p9146a9a5e6)" style="fill: none; stroke: #808080; stroke-opacity: 0.6; stroke-width: 0.5; stroke-linecap: square"/>
   </g>
   <g id="line2d_62">
    <path d="M 57.681818 529.571885 
M 64.185315 512.617059 
L 67.437063 499.209792 
L 70.688811 498.173941 
L 73.940559 489.275126 
L 77.192308 481.145855 
L 80.444056 476.642103 
L 83.695804 470.066184 
L 86.947552 461.886838 
L 90.199301 451.636288 
L 93.451049 445.398317 
L 96.702797 438.504273 
L 99.954545 432.621913 
L 103.206294 427.880436 
L 106.458042 424.106268 
L 109.70979 414.474478 
L 112.961538 414.474478 
L 116.213287 410.28134 
L 119.465035 407.341109 
L 122.716783 404.894421 
L 125.968531 402.181461 
L 129.22028 398.723231 
L 132.472028 390.181117 
L 135.723776 388.861872 
" clip-path="url(#p9146a9a5e6)" style="fill: none; stroke: #808080; stroke-opacity: 0.6; stroke-width: 0.5; stroke-linecap: square"/>
   </g>
   <g id="line2d_63">
    <path d="M 57.681818 554.04 
L 60.933566 539.391998 
L 64.185315 521.847226 
L 67.437063 512.087853 
L 70.688811 495.567363 
L 73.940559 473.520737 
L 77.192308 452.807921 
L 80.444056 444.136551 
L 83.695804 418.859352 
L 86.947552 406.222858 
L 90.199301 393.16678 
L 93.451049 379.446036 
L 96.702797 366.505215 
L 99.954545 353.031243 
L 103.206294 341.523469 
L 106.458042 331.094613 
L 109.70979 319.849846 
L 112.961538 311.304851 
L 116.213287 301.986982 
L 119.465035 291.633894 
L 122.716783 283.973458 
L 125.968531 276.343159 
L 129.22028 270.626308 
L 132.472028 258.63424 
L 135.723776 252.148371 
L 138.975524 245.254592 
L 142.227273 237.188509 
L 145.479021 230.333068 
L 148.730769 223.023542 
L 151.982517 219.289519 
L 155.234266 213.517055 
L 158.486014 204.746593 
L 161.737762 199.768942 
L 164.98951 197.733505 
L 168.241259 192.997106 
L 171.493007 189.411933 
L 174.744755 187.908121 
" clip-path="url(#p9146a9a5e6)" style="fill: none; stroke: #808080; stroke-opacity: 0.6; stroke-width: 0.5; stroke-linecap: square"/>
   </g>
   <g id="line2d_64">
    <path d="M 57.681818 548.213499 
L 60.933566 539.823126 
L 64.185315 528.856096 
L 67.437063 516.468985 
L 70.688811 500.265226 
L 73.940559 476.642103 
L 77.192308 446.689259 
L 80.444056 434.755833 
L 83.695804 431.243305 
L 86.947552 418.218462 
L 90.199301 411.008926 
L 93.451049 400.407757 
L 96.702797 377.332618 
L 99.954545 363.006419 
L 103.206294 351.024234 
L 106.458042 337.467571 
L 109.70979 325.337996 
L 112.961538 315.612626 
L 116.213287 308.023042 
L 119.465035 277.596607 
L 122.716783 263.536136 
L 125.968531 254.289249 
L 129.22028 246.279531 
L 132.472028 237.079463 
L 135.723776 232.77375 
L 138.975524 224.631888 
L 142.227273 216.42633 
L 145.479021 208.679824 
L 148.730769 204.299625 
L 151.982517 199.46704 
L 155.234266 195.142139 
L 158.486014 190.429448 
L 161.737762 185.547368 
L 164.98951 181.045468 
L 168.241259 176.939496 
L 171.493007 173.20372 
L 174.744755 171.009057 
" clip-path="url(#p9146a9a5e6)" style="fill: none; stroke: #808080; stroke-opacity: 0.6; stroke-width: 0.5; stroke-linecap: square"/>
   </g>
   <g id="line2d_65">
    <path d="M 57.681818 545.274358 
L 60.933566 545.274358 
L 64.185315 536.057827 
L 67.437063 521.847226 
L 70.688811 515.620906 
L 73.940559 503.556795 
L 77.192308 502.882773 
L 80.444056 487.382376 
L 83.695804 475.399834 
L 86.947552 467.283143 
L 90.199301 457.064656 
L 93.451049 455.132603 
L 96.702797 449.707875 
L 99.954545 442.52261 
L 103.206294 437.803752 
L 106.458042 431.99105 
L 109.70979 427.589801 
L 112.961538 424.37928 
L 116.213287 420.878769 
L 119.465035 418.414876 
L 122.716783 414.382877 
L 125.968531 410.026792 
L 129.22028 408.153798 
L 132.472028 406.025506 
L 135.723776 403.370977 
" clip-path="url(#p9146a9a5e6)" style="fill: none; stroke: #808080; stroke-opacity: 0.6; stroke-width: 0.5; stroke-linecap: square"/>
   </g>
   <g id="line2d_66">
    <path d="M 57.681818 541.581721 
L 60.933566 536.463871 
L 64.185315 526.081325 
L 67.437063 517.911721 
L 70.688811 507.295817 
L 73.940559 489.100382 
L 77.192308 471.447894 
L 80.444056 465.084341 
L 83.695804 457.657555 
L 86.947552 449.621782 
L 90.199301 443.516202 
L 93.451049 433.067797 
L 96.702797 426.669808 
L 99.954545 421.655287 
L 103.206294 412.981951 
L 106.458042 406.819134 
L 109.70979 387.771617 
L 112.961538 378.958641 
L 116.213287 366.002754 
L 119.465035 357.58912 
L 122.716783 347.15956 
" clip-path="url(#p9146a9a5e6)" style="fill: none; stroke: #808080; stroke-opacity: 0.6; stroke-width: 0.5; stroke-linecap: square"/>
   </g>
   <g id="line2d_67">
    <path d="M 57.681818 545.274358 
L 60.933566 537.700027 
L 64.185315 523.761611 
L 67.437063 523.761611 
L 70.688811 508.271052 
L 73.940559 491.053327 
L 77.192308 470.066184 
L 80.444056 462.642048 
L 83.695804 455.993763 
L 86.947552 446.52625 
L 90.199301 438.645438 
L 93.451049 431.803173 
L 96.702797 422.973978 
L 99.954545 417.439641 
L 103.206294 411.484821 
L 106.458042 406.143834 
L 109.70979 401.814876 
L 112.961538 396.620001 
L 116.213287 392.979324 
L 119.465035 387.178118 
L 122.716783 384.27503 
L 125.968531 379.642192 
" clip-path="url(#p9146a9a5e6)" style="fill: none; stroke: #808080; stroke-opacity: 0.6; stroke-width: 0.5; stroke-linecap: square"/>
   </g>
   <g id="line2d_68">
    <path d="M 57.681818 535.654715 
L 60.933566 504.010706 
L 64.185315 478.342665 
L 67.437063 454.659858 
L 70.688811 426.726866 
L 73.940559 402.810234 
L 77.192308 378.115805 
L 80.444056 365.619299 
L 83.695804 355.335154 
L 86.947552 338.527718 
L 90.199301 327.121336 
L 93.451049 320.416661 
L 96.702797 315.57363 
L 99.954545 309.095686 
L 103.206294 302.812112 
L 106.458042 296.512584 
L 109.70979 289.790929 
L 112.961538 283.45791 
L 116.213287 278.392044 
L 119.465035 274.325827 
L 122.716783 270.102463 
L 125.968531 266.131192 
L 129.22028 262.864828 
L 132.472028 259.233543 
L 135.723776 256.553417 
L 138.975524 253.835875 
L 142.227273 250.308968 
L 145.479021 246.19621 
L 148.730769 241.440589 
L 151.982517 236.709911 
L 155.234266 231.413874 
L 158.486014 226.339954 
L 161.737762 221.943444 
L 164.98951 217.48323 
L 168.241259 213.446919 
L 171.493007 209.828118 
L 174.744755 206.553431 
L 177.996503 206.553431 
L 181.248252 201.003161 
L 184.5 198.570047 
" clip-path="url(#p9146a9a5e6)" style="fill: none; stroke: #808080; stroke-opacity: 0.6; stroke-width: 0.5; stroke-linecap: square"/>
   </g>
   <g id="line2d_69">
    <path d="M 57.681818 539.823126 
L 60.933566 524.743996 
L 64.185315 509.263625 
L 67.437063 494.21265 
L 70.688811 481.601619 
L 73.940559 458.156493 
L 77.192308 446.770943 
L 80.444056 438.999921 
L 83.695804 430.996266 
L 86.947552 418.908957 
L 90.199301 409.605107 
L 93.451049 400.514747 
L 96.702797 392.082051 
L 99.954545 383.5064 
L 103.206294 376.258917 
L 106.458042 371.816751 
L 109.70979 365.849056 
L 112.961538 359.937924 
L 116.213287 356.394046 
L 119.465035 350.235403 
L 122.716783 344.400931 
L 125.968531 340.235434 
L 129.22028 334.402815 
" clip-path="url(#p9146a9a5e6)" style="fill: none; stroke: #808080; stroke-opacity: 0.6; stroke-width: 0.5; stroke-linecap: square"/>
   </g>
   <g id="line2d_70">
    <path d="M 57.681818 545.753595 
L 60.933566 521.847226 
L 64.185315 502.882773 
L 67.437063 500.69305 
L 70.688811 472.995266 
L 73.940559 472.21622 
L 77.192308 447.263571 
L 80.444056 444.449329 
L 83.695804 432.431905 
L 86.947552 421.655287 
L 90.199301 405.049077 
L 93.451049 388.775021 
L 96.702797 377.332618 
L 99.954545 370.738373 
L 103.206294 363.500905 
L 106.458042 353.675452 
L 109.70979 344.741683 
L 112.961538 341.847054 
L 116.213287 336.574626 
L 119.465035 329.391272 
L 122.716783 323.152559 
L 125.968531 313.529832 
L 129.22028 309.262553 
L 132.472028 306.464998 
" clip-path="url(#p9146a9a5e6)" style="fill: none; stroke: #808080; stroke-opacity: 0.6; stroke-width: 0.5; stroke-linecap: square"/>
   </g>
   <g id="line2d_71">
    <path d="M 57.681818 538.539603 
L 60.933566 507.781305 
L 64.185315 488.752526 
L 67.437063 476.642103 
L 70.688811 449.535823 
L 73.940559 432.116654 
L 77.192308 418.760273 
L 80.444056 396.221918 
L 83.695804 391.593109 
L 86.947552 374.283002 
L 90.199301 362.516274 
L 93.451049 350.105008 
L 96.702797 339.848725 
L 99.954545 326.549001 
L 103.206294 313.929622 
L 106.458042 301.755192 
L 109.70979 296.10401 
L 112.961538 284.641458 
L 116.213287 273.873303 
L 119.465035 265.177833 
L 122.716783 264.894027 
L 125.968531 248.098194 
L 129.22028 239.48519 
L 132.472028 232.858744 
L 135.723776 225.861095 
L 138.975524 218.105608 
L 142.227273 210.503189 
L 145.479021 203.214803 
L 148.730769 197.702342 
L 151.982517 193.354904 
L 155.234266 188.949176 
L 158.486014 184.895093 
L 161.737762 180.458009 
L 164.98951 176.472822 
L 168.241259 172.744185 
L 171.493007 169.680021 
L 174.744755 167.412077 
L 177.996503 165.231092 
L 181.248252 162.762809 
L 184.5 160.454246 
L 187.751748 158.276021 
L 191.003497 156.080958 
L 194.255245 154.180265 
" clip-path="url(#p9146a9a5e6)" style="fill: none; stroke: #808080; stroke-opacity: 0.6; stroke-width: 0.5; stroke-linecap: square"/>
   </g>
   <g id="line2d_72">
    <path d="M 57.681818 551.316007 
L 60.933566 538.539603 
L 64.185315 533.68169 
L 67.437063 533.68169 
L 70.688811 526.420723 
L 73.940559 519.39273 
L 77.192308 512.617059 
L 80.444056 507.538033 
L 83.695804 505.395011 
L 86.947552 501.996551 
L 90.199301 501.996551 
L 93.451049 499.001079 
L 96.702797 489.626265 
L 99.954545 484.25701 
L 103.206294 475.536507 
L 106.458042 469.449263 
L 109.70979 465.540105 
L 112.961538 462.642048 
L 116.213287 457.064656 
L 119.465035 452.264111 
L 122.716783 447.428751 
L 125.968531 442.52261 
L 129.22028 439.356668 
L 132.472028 436.974567 
L 135.723776 436.292864 
L 138.975524 435.955109 
L 142.227273 433.067797 
L 145.479021 428.348621 
L 148.730769 425.095422 
L 151.982517 422.973978 
L 155.234266 420.724753 
L 158.486014 418.760273 
L 161.737762 415.632354 
L 164.98951 412.228368 
L 168.241259 408.153798 
L 171.493007 402.884676 
L 174.744755 396.089853 
L 177.996503 390.657797 
L 181.248252 388.113613 
L 184.5 388.113613 
L 187.751748 382.025804 
L 191.003497 371.774067 
L 194.255245 365.371458 
L 197.506993 359.320055 
L 200.758741 353.138097 
" clip-path="url(#p9146a9a5e6)" style="fill: none; stroke: #808080; stroke-opacity: 0.6; stroke-width: 0.5; stroke-linecap: square"/>
   </g>
   <g id="line2d_73">
    <path d="M 57.681818 535.254492 
L 60.933566 512.617059 
L 64.185315 484.9006 
L 67.437063 465.99962 
L 70.688811 447.843851 
L 73.940559 438.082907 
L 77.192308 432.940038 
L 80.444056 420.214413 
L 83.695804 409.437321 
L 86.947552 404.6248 
L 90.199301 399.070007 
L 93.451049 391.714944 
L 96.702797 388.199441 
L 99.954545 387.121922 
L 103.206294 382.025804 
L 106.458042 378.523593 
L 109.70979 374.618727 
L 112.961538 371.880838 
L 116.213287 369.434388 
L 119.465035 367.920719 
" clip-path="url(#p9146a9a5e6)" style="fill: none; stroke: #808080; stroke-opacity: 0.6; stroke-width: 0.5; stroke-linecap: square"/>
   </g>
   <g id="line2d_74">
    <path d="M 57.681818 545.274358 
L 60.933566 539.823126 
L 64.185315 531.776018 
L 67.437063 528.501614 
L 70.688811 516.184858 
L 73.940559 505.629103 
L 77.192308 472.864668 
L 80.444056 458.558879 
L 83.695804 447.594421 
L 86.947552 438.645438 
L 90.199301 431.367236 
L 93.451049 423.834585 
L 96.702797 416.102313 
L 99.954545 410.579787 
L 103.206294 402.181461 
L 106.458042 398.412964 
L 109.70979 392.792494 
L 112.961538 385.927189 
L 116.213287 382.463291 
L 119.465035 378.499523 
L 122.716783 375.001671 
L 125.968531 371.582391 
L 129.22028 371.582391 
L 132.472028 365.88744 
L 135.723776 362.030395 
L 138.975524 358.271718 
L 142.227273 355.81398 
L 145.479021 353.015995 
" clip-path="url(#p9146a9a5e6)" style="fill: none; stroke: #808080; stroke-opacity: 0.6; stroke-width: 0.5; stroke-linecap: square"/>
   </g>
   <g id="line2d_75">
    <path d="M 57.681818 544.7992 
L 60.933566 526.420723 
L 64.185315 514.509809 
L 67.437063 502.659895 
L 70.688811 489.802665 
L 73.940559 481.449284 
L 77.192308 475.948544 
L 80.444056 467.047569 
L 83.695804 455.418183 
L 86.947552 444.058629 
L 90.199301 434.689956 
L 93.451049 425.877066 
L 96.702797 420.469 
L 99.954545 414.612162 
L 103.206294 407.583676 
L 106.458042 407.583676 
L 109.70979 396.254984 
L 112.961538 389.944295 
L 116.213287 382.93028 
" clip-path="url(#p9146a9a5e6)" style="fill: none; stroke: #808080; stroke-opacity: 0.6; stroke-width: 0.5; stroke-linecap: square"/>
   </g>
   <g id="line2d_76">
    <path d="M 57.681818 540.257609 
L 60.933566 518.795604 
L 64.185315 499.629574 
L 67.437063 488.926183 
L 70.688811 479.212772 
L 73.940559 463.849841 
L 77.192308 452.716917 
L 80.444056 437.664697 
L 83.695804 427.822187 
L 86.947552 418.414876 
L 90.199301 406.183332 
L 93.451049 395.695519 
L 96.702797 385.380092 
L 99.954545 375.228165 
L 103.206294 364.260268 
L 106.458042 353.490632 
L 109.70979 345.30984 
L 112.961538 338.504201 
L 116.213287 329.701694 
L 119.465035 321.741725 
L 122.716783 313.507288 
L 125.968531 305.33084 
L 129.22028 298.274593 
L 132.472028 292.292808 
L 135.723776 287.926026 
L 138.975524 284.048764 
L 142.227273 279.705198 
L 145.479021 275.431647 
L 148.730769 271.664118 
L 151.982517 268.542995 
" clip-path="url(#p9146a9a5e6)" style="fill: none; stroke: #808080; stroke-opacity: 0.6; stroke-width: 0.5; stroke-linecap: square"/>
   </g>
   <g id="line2d_77">
    <path d="M 57.681818 547.216494 
L 60.933566 532.530499 
L 64.185315 524.743996 
L 67.437063 517.620175 
L 70.688811 497.156959 
L 73.940559 465.425814 
L 77.192308 452.084011 
L 80.444056 452.084011 
L 83.695804 430.934677 
L 86.947552 421.343382 
L 90.199301 416.766973 
L 93.451049 410.494353 
L 96.702797 405.789601 
L 99.954545 400.944768 
L 103.206294 394.496901 
L 106.458042 388.890853 
L 109.70979 383.217597 
L 112.961538 377.285504 
L 116.213287 372.872837 
L 119.465035 365.734059 
L 122.716783 361.318258 
L 125.968531 354.264782 
L 129.22028 350.293454 
L 132.472028 346.681144 
L 135.723776 345.018433 
L 138.975524 342.172526 
L 142.227273 339.50057 
L 145.479021 336.35926 
L 148.730769 333.35315 
L 151.982517 330.206041 
L 155.234266 328.904098 
" clip-path="url(#p9146a9a5e6)" style="fill: none; stroke: #808080; stroke-opacity: 0.6; stroke-width: 0.5; stroke-linecap: square"/>
   </g>
   <g id="line2d_78">
    <path d="M 57.681818 519.093369 
L 60.933566 519.093369 
L 64.185315 492.332648 
L 67.437063 466.696063 
L 70.688811 464.744943 
L 73.940559 449.880458 
L 77.192308 439.071088 
L 80.444056 432.179562 
L 83.695804 425.989628 
L 86.947552 422.389913 
L 90.199301 415.445473 
L 93.451049 415.445473 
L 96.702797 406.381244 
L 99.954545 401.888 
L 103.206294 398.378596 
L 106.458042 385.707706 
L 109.70979 379.201806 
L 112.961538 379.201806 
L 116.213287 379.201806 
L 119.465035 375.455582 
L 122.716783 359.217738 
" clip-path="url(#p9146a9a5e6)" style="fill: none; stroke: #808080; stroke-opacity: 0.6; stroke-width: 0.5; stroke-linecap: square"/>
   </g>
   <g id="line2d_79">
    <path d="M 57.681818 549.228632 
L 60.933566 536.463871 
L 64.185315 515.341052 
L 67.437063 504.010706 
L 70.688811 490.335236 
L 73.940559 484.9006 
L 77.192308 470.941489 
L 80.444056 455.132603 
L 83.695804 447.511524 
L 86.947552 438.928844 
L 90.199301 431.305236 
L 93.451049 426.102418 
L 96.702797 421.447157 
L 99.954545 416.196782 
L 103.206294 410.111512 
L 106.458042 403.785797 
L 109.70979 396.753328 
L 112.961538 392.637279 
L 116.213287 387.121922 
" clip-path="url(#p9146a9a5e6)" style="fill: none; stroke: #808080; stroke-opacity: 0.6; stroke-width: 0.5; stroke-linecap: square"/>
   </g>
   <g id="line2d_80">
    <path d="M 57.681818 545.274358 
L 60.933566 533.295316 
L 64.185315 506.57541 
L 67.437063 500.052537 
L 70.688811 489.450419 
L 73.940559 482.061135 
L 77.192308 477.344387 
L 80.444056 474.45238 
L 83.695804 458.056348 
L 86.947552 455.89742 
L 90.199301 450.839324 
L 93.451049 447.760584 
L 96.702797 434.427223 
L 99.954545 428.348621 
L 103.206294 421.968944 
L 106.458042 409.857735 
L 109.70979 406.143834 
L 112.961538 399.418951 
L 116.213287 394.368849 
L 119.465035 379.446036 
" clip-path="url(#p9146a9a5e6)" style="fill: none; stroke: #808080; stroke-opacity: 0.6; stroke-width: 0.5; stroke-linecap: square"/>
   </g>
   <g id="line2d_81">
    <path d="M 57.681818 548.213499 
L 60.933566 535.254492 
L 64.185315 534.462553 
L 67.437063 519.093369 
L 70.688811 514.785517 
L 73.940559 507.538033 
L 77.192308 507.538033 
L 80.444056 479.505848 
L 83.695804 479.505848 
L 86.947552 468.596869 
L 90.199301 458.65993 
L 93.451049 450.751471 
L 96.702797 444.842782 
L 99.954545 437.734181 
L 103.206294 421.447157 
L 106.458042 405.98612 
L 109.70979 384.488941 
L 112.961538 384.488941 
L 116.213287 378.716529 
L 119.465035 371.433764 
L 122.716783 363.814511 
L 125.968531 362.425977 
L 129.22028 359.748405 
" clip-path="url(#p9146a9a5e6)" style="fill: none; stroke: #808080; stroke-opacity: 0.6; stroke-width: 0.5; stroke-linecap: square"/>
   </g>
   <g id="line2d_82">
    <path d="M 57.681818 551.850277 
L 60.933566 541.581721 
L 64.185315 522.161766 
L 67.437063 505.629103 
L 70.688811 495.176936 
L 73.940559 483.305326 
L 77.192308 473.257383 
L 80.444056 460.30213 
L 83.695804 450.927316 
L 86.947552 441.620882 
L 90.199301 431.305236 
L 93.451049 422.707736 
L 96.702797 414.337133 
L 99.954545 407.139771 
L 103.206294 397.933727 
L 106.458042 390.777605 
L 109.70979 385.271313 
L 112.961538 378.716529 
L 116.213287 373.134544 
L 119.465035 365.162603 
L 122.716783 357.440392 
L 125.968531 353.552171 
L 129.22028 346.681144 
" clip-path="url(#p9146a9a5e6)" style="fill: none; stroke: #808080; stroke-opacity: 0.6; stroke-width: 0.5; stroke-linecap: square"/>
   </g>
   <g id="line2d_83">
    <path d="M 57.681818 547.712771 
L 60.933566 524.743996 
L 64.185315 504.010706 
L 67.437063 487.213448 
L 70.688811 470.314874 
L 73.940559 450.227235 
L 77.192308 438.999921 
L 80.444056 424.37928 
L 83.695804 411.702485 
L 86.947552 399.244207 
L 90.199301 385.135637 
L 93.451049 377.497833 
L 96.702797 364.241623 
L 99.954545 354.844644 
L 103.206294 344.466299 
L 106.458042 333.762011 
L 109.70979 325.804265 
L 112.961538 321.776565 
L 116.213287 313.417202 
L 119.465035 307.663258 
L 122.716783 302.601593 
L 125.968531 297.569879 
L 129.22028 294.078292 
L 132.472028 290.21505 
" clip-path="url(#p9146a9a5e6)" style="fill: none; stroke: #808080; stroke-opacity: 0.6; stroke-width: 0.5; stroke-linecap: square"/>
   </g>
   <g id="line2d_84">
    <path d="M 57.681818 500.265226 
M 64.185315 489.100382 
L 67.437063 486.210473 
L 70.688811 476.502701 
L 73.940559 471.447894 
L 77.192308 471.06766 
L 80.444056 469.818597 
L 83.695804 468.839085 
L 86.947552 467.638377 
L 90.199301 466.346755 
L 93.451049 464.857846 
L 96.702797 464.072275 
L 99.954545 461.353588 
L 103.206294 460.198065 
L 106.458042 458.964186 
L 109.70979 457.657555 
L 112.961538 454.943024 
L 116.213287 450.927316 
L 119.465035 445.959435 
L 122.716783 439.285136 
L 125.968531 435.552481 
L 129.22028 428.407421 
L 132.472028 428.407421 
L 135.723776 409.773399 
L 138.975524 399.104804 
" clip-path="url(#p9146a9a5e6)" style="fill: none; stroke: #808080; stroke-opacity: 0.6; stroke-width: 0.5; stroke-linecap: square"/>
   </g>
   <g id="line2d_85">
    <path d="M 57.681818 547.216494 
L 60.933566 535.654715 
L 64.185315 519.996312 
L 67.437063 510.786377 
L 70.688811 500.69305 
L 73.940559 497.156959 
L 77.192308 491.234302 
L 80.444056 481.449284 
L 83.695804 472.21622 
L 86.947552 456.283794 
L 90.199301 440.660169 
L 93.451049 430.996266 
L 96.702797 423.888816 
L 99.954545 411.18151 
L 103.206294 404.663238 
L 106.458042 393.922965 
L 109.70979 388.142208 
L 112.961538 380.334215 
L 116.213287 375.228165 
L 119.465035 369.250566 
L 122.716783 360.84265 
L 125.968531 353.768091 
L 129.22028 350.018247 
" clip-path="url(#p9146a9a5e6)" style="fill: none; stroke: #808080; stroke-opacity: 0.6; stroke-width: 0.5; stroke-linecap: square"/>
   </g>
   <g id="line2d_86">
    <path d="M 57.681818 546.72459 
L 60.933566 532.530499 
L 64.185315 515.620906 
L 67.437063 502.216792 
L 70.688811 491.598022 
L 73.940559 471.575216 
L 77.192308 471.575216 
L 80.444056 464.744943 
L 83.695804 448.852869 
L 86.947552 435.219162 
L 90.199301 423.510301 
L 93.451049 412.404769 
L 96.702797 401.596074 
L 99.954545 391.562692 
L 103.206294 378.09191 
L 106.458042 368.460924 
L 109.70979 354.781665 
L 112.961538 346.045081 
L 116.213287 338.716216 
L 119.465035 331.445751 
" clip-path="url(#p9146a9a5e6)" style="fill: none; stroke: #808080; stroke-opacity: 0.6; stroke-width: 0.5; stroke-linecap: square"/>
   </g>
   <g id="line2d_87">
    <path d="M 57.681818 544.7992 
L 60.933566 538.118237 
L 64.185315 538.118237 
L 67.437063 524.087156 
L 70.688811 505.629103 
L 73.940559 497.764922 
L 77.192308 477.770036 
L 80.444056 462.968863 
L 83.695804 457.657555 
L 86.947552 440.295022 
L 90.199301 431.367236 
L 93.451049 424.818895 
L 96.702797 419.960982 
L 99.954545 415.166319 
L 103.206294 413.972523 
L 106.458042 404.6248 
L 109.70979 400.550456 
L 112.961538 395.206488 
L 116.213287 390.092191 
L 119.465035 390.092191 
L 122.716783 382.000176 
L 125.968531 376.95681 
" clip-path="url(#p9146a9a5e6)" style="fill: none; stroke: #808080; stroke-opacity: 0.6; stroke-width: 0.5; stroke-linecap: square"/>
   </g>
   <g id="line2d_88">
    <path d="M 57.681818 541.136852 
L 60.933566 537.284926 
L 64.185315 531.776018 
L 67.437063 518.795604 
L 70.688811 509.51455 
L 73.940559 503.106544 
L 77.192308 492.148083 
L 80.444056 478.921227 
L 83.695804 469.204391 
L 86.947552 448.768084 
L 90.199301 442.220413 
L 93.451049 442.220413 
L 96.702797 431.367236 
L 99.954545 422.231678 
L 103.206294 416.671536 
L 106.458042 403.747959 
L 109.70979 398.412964 
L 112.961538 389.415089 
" clip-path="url(#p9146a9a5e6)" style="fill: none; stroke: #808080; stroke-opacity: 0.6; stroke-width: 0.5; stroke-linecap: square"/>
   </g>
   <g id="line2d_89">
    <path d="M 57.681818 545.753595 
L 60.933566 531.402566 
L 64.185315 513.962444 
L 67.437063 505.161897 
L 70.688811 497.764922 
L 73.940559 476.363645 
L 77.192308 458.156493 
L 80.444056 444.685068 
L 83.695804 429.716945 
L 86.947552 416.719234 
L 90.199301 415.913855 
L 93.451049 411.702485 
L 96.702797 409.731278 
L 99.954545 408.605872 
L 103.206294 407.502703 
L 106.458042 404.280046 
L 109.70979 402.661649 
L 112.961538 399.770089 
L 116.213287 397.357272 
" clip-path="url(#p9146a9a5e6)" style="fill: none; stroke: #808080; stroke-opacity: 0.6; stroke-width: 0.5; stroke-linecap: square"/>
   </g>
   <g id="line2d_90">
    <path d="M 57.681818 529.571885 
L 60.933566 484.9006 
L 64.185315 453.911696 
L 67.437063 440.660169 
L 70.688811 431.865729 
L 73.940559 417.87639 
L 77.192308 399.418951 
L 80.444056 386.175142 
L 83.695804 365.4476 
L 86.947552 355.128931 
L 90.199301 345.203697 
L 93.451049 337.768422 
L 96.702797 332.081323 
L 99.954545 327.670543 
L 103.206294 322.867526 
L 106.458042 318.733193 
L 109.70979 315.784533 
L 112.961538 313.876655 
L 116.213287 312.894578 
L 119.465035 311.124578 
L 122.716783 310.309828 
L 125.968531 309.53478 
L 129.22028 308.791053 
L 132.472028 308.268753 
L 135.723776 307.764849 
L 138.975524 307.198308 
L 142.227273 306.5777 
L 145.479021 305.577994 
L 148.730769 305.013747 
L 151.982517 304.073134 
L 155.234266 303.454749 
L 158.486014 303.054571 
L 161.737762 302.583056 
L 164.98951 301.968647 
L 168.241259 301.336754 
L 171.493007 300.789655 
L 174.744755 299.922939 
L 177.996503 299.307831 
L 181.248252 298.855241 
L 184.5 298.137501 
L 187.751748 298.137501 
L 191.003497 297.063907 
L 194.255245 296.58467 
L 197.506993 296.065516 
L 200.758741 295.621999 
L 204.01049 295.366256 
" clip-path="url(#p9146a9a5e6)" style="fill: none; stroke: #808080; stroke-opacity: 0.6; stroke-width: 0.5; stroke-linecap: square"/>
   </g>
   <g id="line2d_91">
    <path d="M 57.681818 546.72459 
L 60.933566 531.031596 
L 64.185315 515.341052 
L 67.437063 500.478728 
L 70.688811 480.39442 
L 73.940559 472.604384 
L 77.192308 455.037733 
L 80.444056 415.119928 
L 83.695804 397.899652 
L 86.947552 383.008493 
L 90.199301 364.074103 
L 93.451049 344.952416 
L 96.702797 327.796561 
L 99.954545 311.138978 
L 103.206294 301.639657 
L 106.458042 290.712299 
L 109.70979 279.288457 
L 112.961538 266.823666 
L 116.213287 258.286663 
L 119.465035 245.93803 
L 122.716783 238.316247 
L 125.968531 230.121757 
L 129.22028 219.990148 
L 132.472028 209.808179 
L 135.723776 200.55923 
L 138.975524 193.239741 
L 142.227273 186.523292 
L 145.479021 181.678839 
L 148.730769 177.320252 
L 151.982517 171.582054 
L 155.234266 167.194641 
L 158.486014 162.93272 
L 161.737762 159.271208 
L 164.98951 156.034389 
L 168.241259 153.401609 
" clip-path="url(#p9146a9a5e6)" style="fill: none; stroke: #808080; stroke-opacity: 0.6; stroke-width: 0.5; stroke-linecap: square"/>
   </g>
   <g id="line2d_92">
    <path d="M 57.681818 536.463871 
L 60.933566 527.451474 
L 64.185315 514.509809 
L 67.437063 503.331215 
L 70.688811 488.063248 
L 73.940559 468.596869 
L 77.192308 452.173988 
L 80.444056 439.71571 
L 83.695804 429.89792 
L 86.947552 423.726281 
L 90.199301 419.107821 
L 93.451049 416.862574 
L 96.702797 410.793944 
L 99.954545 405.789601 
L 103.206294 398.447353 
L 106.458042 394.368849 
L 109.70979 389.473643 
L 112.961538 386.341059 
L 116.213287 379.66676 
L 119.465035 374.104771 
L 122.716783 367.880911 
L 125.968531 363.298919 
L 129.22028 356.394046 
L 132.472028 352.439633 
L 135.723776 347.697526 
L 138.975524 342.323386 
L 142.227273 336.223666 
L 145.479021 330.653666 
L 148.730769 324.728423 
L 151.982517 321.472451 
L 155.234266 318.215819 
" clip-path="url(#p9146a9a5e6)" style="fill: none; stroke: #808080; stroke-opacity: 0.6; stroke-width: 0.5; stroke-linecap: square"/>
   </g>
   <g id="line2d_93">
    <path d="M 57.681818 512.883555 
L 60.933566 499.840655 
L 64.185315 487.045029 
L 67.437063 480.39442 
L 70.688811 465.311757 
L 73.940559 450.227235 
L 77.192308 434.296318 
L 80.444056 419.107821 
L 83.695804 408.358832 
L 86.947552 381.464686 
L 90.199301 381.464686 
L 93.451049 371.074451 
L 96.702797 363.962701 
L 99.954545 349.672544 
L 103.206294 337.444496 
L 106.458042 324.737609 
L 109.70979 317.074972 
L 112.961538 309.283446 
L 116.213287 304.136622 
L 119.465035 298.549791 
L 122.716783 293.079315 
L 125.968531 286.268816 
L 129.22028 281.632747 
L 132.472028 277.062112 
L 135.723776 272.779515 
L 138.975524 270.313491 
L 142.227273 267.074943 
L 145.479021 261.554841 
L 148.730769 259.057609 
L 151.982517 256.882162 
L 155.234266 255.334268 
" clip-path="url(#p9146a9a5e6)" style="fill: none; stroke: #808080; stroke-opacity: 0.6; stroke-width: 0.5; stroke-linecap: square"/>
   </g>
   <g id="line2d_94">
    <path d="M 57.681818 546.72459 
L 60.933566 522.161766 
L 64.185315 522.161766 
L 67.437063 522.161766 
L 70.688811 512.087853 
L 73.940559 481.601619 
L 77.192308 454.097799 
L 80.444056 443.748026 
L 83.695804 436.089966 
L 86.947552 429.296937 
L 90.199301 423.027379 
L 93.451049 418.365708 
L 96.702797 418.365708 
L 99.954545 413.250368 
L 103.206294 407.179981 
L 106.458042 397.492374 
L 109.70979 397.492374 
L 112.961538 393.575108 
L 116.213287 390.389164 
L 119.465035 387.403469 
L 122.716783 382.256988 
L 125.968531 380.959427 
" clip-path="url(#p9146a9a5e6)" style="fill: none; stroke: #808080; stroke-opacity: 0.6; stroke-width: 0.5; stroke-linecap: square"/>
   </g>
   <g id="line2d_95">
    <path d="M 57.681818 517.911721 
L 60.933566 482.679764 
L 64.185315 447.843851 
L 67.437063 428.525208 
L 70.688811 413.65543 
L 73.940559 401.778349 
L 77.192308 390.478565 
L 80.444056 375.84433 
L 83.695804 353.521393 
L 86.947552 328.332884 
L 90.199301 313.725598 
L 93.451049 301.481942 
L 96.702797 288.957072 
L 99.954545 280.046622 
L 103.206294 271.820576 
L 106.458042 263.695996 
L 109.70979 255.717237 
L 112.961538 248.205395 
L 116.213287 241.333234 
" clip-path="url(#p9146a9a5e6)" style="fill: none; stroke: #808080; stroke-opacity: 0.6; stroke-width: 0.5; stroke-linecap: square"/>
   </g>
   <g id="line2d_96">
    <path d="M 57.681818 552.389709 
L 60.933566 541.581721 
L 64.185315 528.149368 
L 67.437063 506.814514 
L 70.688811 486.045048 
L 73.940559 472.21622 
L 77.192308 458.45801 
L 80.444056 441.249418 
L 83.695804 424.106268 
L 86.947552 410.323877 
L 90.199301 397.088046 
L 93.451049 382.128434 
L 96.702797 365.067926 
L 99.954545 351.334037 
L 103.206294 339.548462 
L 106.458042 321.611269 
L 109.70979 300.295284 
L 112.961538 277.156064 
L 116.213287 259.290415 
L 119.465035 242.001352 
L 122.716783 226.659377 
L 125.968531 211.194937 
L 129.22028 201.518337 
L 132.472028 188.934651 
L 135.723776 176.801031 
L 138.975524 165.817846 
L 142.227273 156.066177 
L 145.479021 148.395625 
L 148.730769 140.544682 
L 151.982517 132.651787 
L 155.234266 125.192835 
L 158.486014 118.222414 
L 161.737762 111.297424 
L 164.98951 104.80613 
L 168.241259 100.44 
" clip-path="url(#p9146a9a5e6)" style="fill: none; stroke: #808080; stroke-opacity: 0.6; stroke-width: 0.5; stroke-linecap: square"/>
   </g>
   <g id="line2d_97">
    <path d="M 57.681818 547.216494 
L 60.933566 547.216494 
L 64.185315 535.254492 
L 67.437063 535.254492 
L 70.688811 530.29697 
L 73.940559 530.29697 
L 77.192308 515.90217 
L 80.444056 503.331215 
L 83.695804 486.877117 
L 86.947552 486.877117 
L 90.199301 475.948544 
L 93.451049 467.876461 
L 96.702797 467.876461 
L 99.954545 452.990375 
L 103.206294 448.346081 
L 106.458042 448.346081 
L 109.70979 424.160764 
L 112.961538 424.160764 
L 116.213287 402.661649 
L 119.465035 392.699313 
" clip-path="url(#p9146a9a5e6)" style="fill: none; stroke: #808080; stroke-opacity: 0.6; stroke-width: 0.5; stroke-linecap: square"/>
   </g>
   <g id="patch_3">
    <path d="M 45 576.72 
L 45 77.76 
" style="fill: none; stroke: #000000; stroke-width: 0.8; stroke-linejoin: miter; stroke-linecap: square"/>
   </g>
   <g id="patch_4">
    <path d="M 324 576.72 
L 324 77.76 
" style="fill: none; stroke: #000000; stroke-width: 0.8; stroke-linejoin: miter; stroke-linecap: square"/>
   </g>
   <g id="patch_5">
    <path d="M 45 576.72 
L 324 576.72 
" style="fill: none; stroke: #000000; stroke-width: 0.8; stroke-linejoin: miter; stroke-linecap: square"/>
   </g>
   <g id="patch_6">
    <path d="M 45 77.76 
L 324 77.76 
" style="fill: none; stroke: #000000; stroke-width: 0.8; stroke-linejoin: miter; stroke-linecap: square"/>
   </g>
   <g id="text_11">
    <!-- Cumulative reported cases for all countries -->
    <g transform="translate(54.839063 71.76) scale(0.12 -0.12)">
     <defs>
      <path id="DejaVuSans-70" d="M 1159 525 
L 1159 -1331 
L 581 -1331 
L 581 3500 
L 1159 3500 
L 1159 2969 
Q 1341 3281 1617 3432 
Q 1894 3584 2278 3584 
Q 2916 3584 3314 3078 
Q 3713 2572 3713 1747 
Q 3713 922 3314 415 
Q 2916 -91 2278 -91 
Q 1894 -91 1617 61 
Q 1341 213 1159 525 
z
M 3116 1747 
Q 3116 2381 2855 2742 
Q 2594 3103 2138 3103 
Q 1681 3103 1420 2742 
Q 1159 2381 1159 1747 
Q 1159 1113 1420 752 
Q 1681 391 2138 391 
Q 2594 391 2855 752 
Q 3116 1113 3116 1747 
z
" transform="scale(0.015625)"/>
     </defs>
     <use xlink:href="#DejaVuSans-43"/>
     <use xlink:href="#DejaVuSans-75" x="69.824219"/>
     <use xlink:href="#DejaVuSans-6d" x="133.203125"/>
     <use xlink:href="#DejaVuSans-75" x="230.615234"/>
     <use xlink:href="#DejaVuSans-6c" x="293.994141"/>
     <use xlink:href="#DejaVuSans-61" x="321.777344"/>
     <use xlink:href="#DejaVuSans-74" x="383.056641"/>
     <use xlink:href="#DejaVuSans-69" x="422.265625"/>
     <use xlink:href="#DejaVuSans-76" x="450.048828"/>
     <use xlink:href="#DejaVuSans-65" x="509.228516"/>
     <use xlink:href="#DejaVuSans-20" x="570.751953"/>
     <use xlink:href="#DejaVuSans-72" x="602.539062"/>
     <use xlink:href="#DejaVuSans-65" x="641.402344"/>
     <use xlink:href="#DejaVuSans-70" x="702.925781"/>
     <use xlink:href="#DejaVuSans-6f" x="766.402344"/>
     <use xlink:href="#DejaVuSans-72" x="827.583984"/>
     <use xlink:href="#DejaVuSans-74" x="868.697266"/>
     <use xlink:href="#DejaVuSans-65" x="907.90625"/>
     <use xlink:href="#DejaVuSans-64" x="969.429688"/>
     <use xlink:href="#DejaVuSans-20" x="1032.90625"/>
     <use xlink:href="#DejaVuSans-63" x="1064.693359"/>
     <use xlink:href="#DejaVuSans-61" x="1119.673828"/>
     <use xlink:href="#DejaVuSans-73" x="1180.953125"/>
     <use xlink:href="#DejaVuSans-65" x="1233.052734"/>
     <use xlink:href="#DejaVuSans-73" x="1294.576172"/>
     <use xlink:href="#DejaVuSans-20" x="1346.675781"/>
     <use xlink:href="#DejaVuSans-66" x="1378.462891"/>
     <use xlink:href="#DejaVuSans-6f" x="1413.667969"/>
     <use xlink:href="#DejaVuSans-72" x="1474.849609"/>
     <use xlink:href="#DejaVuSans-20" x="1515.962891"/>
     <use xlink:href="#DejaVuSans-61" x="1547.75"/>
     <use xlink:href="#DejaVuSans-6c" x="1609.029297"/>
     <use xlink:href="#DejaVuSans-6c" x="1636.8125"/>
     <use xlink:href="#DejaVuSans-20" x="1664.595703"/>
     <use xlink:href="#DejaVuSans-63" x="1696.382812"/>
     <use xlink:href="#DejaVuSans-6f" x="1751.363281"/>
     <use xlink:href="#DejaVuSans-75" x="1812.544922"/>
     <use xlink:href="#DejaVuSans-6e" x="1875.923828"/>
     <use xlink:href="#DejaVuSans-74" x="1939.302734"/>
     <use xlink:href="#DejaVuSans-72" x="1978.511719"/>
     <use xlink:href="#DejaVuSans-69" x="2019.625"/>
     <use xlink:href="#DejaVuSans-65" x="2047.408203"/>
     <use xlink:href="#DejaVuSans-73" x="2108.931641"/>
    </g>
   </g>
  </g>
 </g>
 <defs>
  <clipPath id="p9146a9a5e6">
   <rect x="45" y="77.76" width="279" height="498.96"/>
  </clipPath>
 </defs>
</svg>
