<?xml version="1.0" encoding="utf-8" standalone="no"?>
<!DOCTYPE svg PUBLIC "-//W3C//DTD SVG 1.1//EN"
  "http://www.w3.org/Graphics/SVG/1.1/DTD/svg11.dtd">
<!-- Created with matplotlib (https://matplotlib.org/) -->
<svg height="576pt" version="1.1" viewBox="0 0 936 576" width="936pt" xmlns="http://www.w3.org/2000/svg" xmlns:xlink="http://www.w3.org/1999/xlink">
 <metadata>
  <rdf:RDF xmlns:cc="http://creativecommons.org/ns#" xmlns:dc="http://purl.org/dc/elements/1.1/" xmlns:rdf="http://www.w3.org/1999/02/22-rdf-syntax-ns#">
   <cc:Work>
    <dc:type rdf:resource="http://purl.org/dc/dcmitype/StillImage"/>
    <dc:date>2020-11-19T12:55:35.165311</dc:date>
    <dc:format>image/svg+xml</dc:format>
    <dc:creator>
     <cc:Agent>
      <dc:title>Matplotlib v3.3.2, https://matplotlib.org/</dc:title>
     </cc:Agent>
    </dc:creator>
   </cc:Work>
  </rdf:RDF>
 </metadata>
 <defs>
  <style type="text/css">*{stroke-linecap:butt;stroke-linejoin:round;}</style>
 </defs>
 <g id="figure_1">
  <g id="patch_1">
   <path d="M 0 576 
L 936 576 
L 936 0 
L 0 0 
z
" style="fill:none;"/>
  </g>
  <g id="axes_1">
   <g id="patch_2">
    <path d="M 54.56399 537.433198 
L 932.99976 537.433198 
L 932.99976 21.15774 
L 54.56399 21.15774 
z
" style="fill:#eeeeee;"/>
   </g>
   <g id="matplotlib.axis_1">
    <g id="xtick_1">
     <g id="line2d_1">
      <path clip-path="url(#p2bdb8153fd)" d="M 94.492889 537.433198 
L 94.492889 21.15774 
" style="fill:none;stroke:#ffffff;stroke-linecap:round;stroke-width:0.8;"/>
     </g>
     <g id="line2d_2"/>
     <g id="text_1">
      <!-- −3 -->
      <g style="fill:#262626;" transform="translate(84.173357 551.57101)scale(0.14 -0.14)">
       <defs>
        <path d="M 10.59375 35.5 
L 73.1875 35.5 
L 73.1875 27.203125 
L 10.59375 27.203125 
z
" id="DejaVuSans-8722"/>
        <path d="M 40.578125 39.3125 
Q 47.65625 37.796875 51.625 33 
Q 55.609375 28.21875 55.609375 21.1875 
Q 55.609375 10.40625 48.1875 4.484375 
Q 40.765625 -1.421875 27.09375 -1.421875 
Q 22.515625 -1.421875 17.65625 -0.515625 
Q 12.796875 0.390625 7.625 2.203125 
L 7.625 11.71875 
Q 11.71875 9.328125 16.59375 8.109375 
Q 21.484375 6.890625 26.8125 6.890625 
Q 36.078125 6.890625 40.9375 10.546875 
Q 45.796875 14.203125 45.796875 21.1875 
Q 45.796875 27.640625 41.28125 31.265625 
Q 36.765625 34.90625 28.71875 34.90625 
L 20.21875 34.90625 
L 20.21875 43.015625 
L 29.109375 43.015625 
Q 36.375 43.015625 40.234375 45.921875 
Q 44.09375 48.828125 44.09375 54.296875 
Q 44.09375 59.90625 40.109375 62.90625 
Q 36.140625 65.921875 28.71875 65.921875 
Q 24.65625 65.921875 20.015625 65.03125 
Q 15.375 64.15625 9.8125 62.3125 
L 9.8125 71.09375 
Q 15.4375 72.65625 20.34375 73.4375 
Q 25.25 74.21875 29.59375 74.21875 
Q 40.828125 74.21875 47.359375 69.109375 
Q 53.90625 64.015625 53.90625 55.328125 
Q 53.90625 49.265625 50.4375 45.09375 
Q 46.96875 40.921875 40.578125 39.3125 
z
" id="DejaVuSans-51"/>
       </defs>
       <use xlink:href="#DejaVuSans-8722"/>
       <use x="83.789062" xlink:href="#DejaVuSans-51"/>
      </g>
     </g>
    </g>
    <g id="xtick_2">
     <g id="line2d_3">
      <path clip-path="url(#p2bdb8153fd)" d="M 227.589217 537.433198 
L 227.589217 21.15774 
" style="fill:none;stroke:#ffffff;stroke-linecap:round;stroke-width:0.8;"/>
     </g>
     <g id="line2d_4"/>
     <g id="text_2">
      <!-- −2 -->
      <g style="fill:#262626;" transform="translate(217.269686 551.57101)scale(0.14 -0.14)">
       <defs>
        <path d="M 19.1875 8.296875 
L 53.609375 8.296875 
L 53.609375 0 
L 7.328125 0 
L 7.328125 8.296875 
Q 12.9375 14.109375 22.625 23.890625 
Q 32.328125 33.6875 34.8125 36.53125 
Q 39.546875 41.84375 41.421875 45.53125 
Q 43.3125 49.21875 43.3125 52.78125 
Q 43.3125 58.59375 39.234375 62.25 
Q 35.15625 65.921875 28.609375 65.921875 
Q 23.96875 65.921875 18.8125 64.3125 
Q 13.671875 62.703125 7.8125 59.421875 
L 7.8125 69.390625 
Q 13.765625 71.78125 18.9375 73 
Q 24.125 74.21875 28.421875 74.21875 
Q 39.75 74.21875 46.484375 68.546875 
Q 53.21875 62.890625 53.21875 53.421875 
Q 53.21875 48.921875 51.53125 44.890625 
Q 49.859375 40.875 45.40625 35.40625 
Q 44.1875 33.984375 37.640625 27.21875 
Q 31.109375 20.453125 19.1875 8.296875 
z
" id="DejaVuSans-50"/>
       </defs>
       <use xlink:href="#DejaVuSans-8722"/>
       <use x="83.789062" xlink:href="#DejaVuSans-50"/>
      </g>
     </g>
    </g>
    <g id="xtick_3">
     <g id="line2d_5">
      <path clip-path="url(#p2bdb8153fd)" d="M 360.685546 537.433198 
L 360.685546 21.15774 
" style="fill:none;stroke:#ffffff;stroke-linecap:round;stroke-width:0.8;"/>
     </g>
     <g id="line2d_6"/>
     <g id="text_3">
      <!-- −1 -->
      <g style="fill:#262626;" transform="translate(350.366015 551.57101)scale(0.14 -0.14)">
       <defs>
        <path d="M 12.40625 8.296875 
L 28.515625 8.296875 
L 28.515625 63.921875 
L 10.984375 60.40625 
L 10.984375 69.390625 
L 28.421875 72.90625 
L 38.28125 72.90625 
L 38.28125 8.296875 
L 54.390625 8.296875 
L 54.390625 0 
L 12.40625 0 
z
" id="DejaVuSans-49"/>
       </defs>
       <use xlink:href="#DejaVuSans-8722"/>
       <use x="83.789062" xlink:href="#DejaVuSans-49"/>
      </g>
     </g>
    </g>
    <g id="xtick_4">
     <g id="line2d_7">
      <path clip-path="url(#p2bdb8153fd)" d="M 493.781875 537.433198 
L 493.781875 21.15774 
" style="fill:none;stroke:#ffffff;stroke-linecap:round;stroke-width:0.8;"/>
     </g>
     <g id="line2d_8"/>
     <g id="text_4">
      <!-- 0 -->
      <g style="fill:#262626;" transform="translate(489.328125 551.57101)scale(0.14 -0.14)">
       <defs>
        <path d="M 31.78125 66.40625 
Q 24.171875 66.40625 20.328125 58.90625 
Q 16.5 51.421875 16.5 36.375 
Q 16.5 21.390625 20.328125 13.890625 
Q 24.171875 6.390625 31.78125 6.390625 
Q 39.453125 6.390625 43.28125 13.890625 
Q 47.125 21.390625 47.125 36.375 
Q 47.125 51.421875 43.28125 58.90625 
Q 39.453125 66.40625 31.78125 66.40625 
z
M 31.78125 74.21875 
Q 44.046875 74.21875 50.515625 64.515625 
Q 56.984375 54.828125 56.984375 36.375 
Q 56.984375 17.96875 50.515625 8.265625 
Q 44.046875 -1.421875 31.78125 -1.421875 
Q 19.53125 -1.421875 13.0625 8.265625 
Q 6.59375 17.96875 6.59375 36.375 
Q 6.59375 54.828125 13.0625 64.515625 
Q 19.53125 74.21875 31.78125 74.21875 
z
" id="DejaVuSans-48"/>
       </defs>
       <use xlink:href="#DejaVuSans-48"/>
      </g>
     </g>
    </g>
    <g id="xtick_5">
     <g id="line2d_9">
      <path clip-path="url(#p2bdb8153fd)" d="M 626.878204 537.433198 
L 626.878204 21.15774 
" style="fill:none;stroke:#ffffff;stroke-linecap:round;stroke-width:0.8;"/>
     </g>
     <g id="line2d_10"/>
     <g id="text_5">
      <!-- 1 -->
      <g style="fill:#262626;" transform="translate(622.424454 551.57101)scale(0.14 -0.14)">
       <use xlink:href="#DejaVuSans-49"/>
      </g>
     </g>
    </g>
    <g id="xtick_6">
     <g id="line2d_11">
      <path clip-path="url(#p2bdb8153fd)" d="M 759.974533 537.433198 
L 759.974533 21.15774 
" style="fill:none;stroke:#ffffff;stroke-linecap:round;stroke-width:0.8;"/>
     </g>
     <g id="line2d_12"/>
     <g id="text_6">
      <!-- 2 -->
      <g style="fill:#262626;" transform="translate(755.520783 551.57101)scale(0.14 -0.14)">
       <use xlink:href="#DejaVuSans-50"/>
      </g>
     </g>
    </g>
    <g id="xtick_7">
     <g id="line2d_13">
      <path clip-path="url(#p2bdb8153fd)" d="M 893.070861 537.433198 
L 893.070861 21.15774 
" style="fill:none;stroke:#ffffff;stroke-linecap:round;stroke-width:0.8;"/>
     </g>
     <g id="line2d_14"/>
     <g id="text_7">
      <!-- 3 -->
      <g style="fill:#262626;" transform="translate(888.617111 551.57101)scale(0.14 -0.14)">
       <use xlink:href="#DejaVuSans-51"/>
      </g>
     </g>
    </g>
    <g id="text_8">
     <!-- x (z-scores) -->
     <g style="fill:#262626;" transform="translate(450.408437 569.880229)scale(0.15 -0.15)">
      <defs>
       <path d="M 54.890625 54.6875 
L 35.109375 28.078125 
L 55.90625 0 
L 45.3125 0 
L 29.390625 21.484375 
L 13.484375 0 
L 2.875 0 
L 24.125 28.609375 
L 4.6875 54.6875 
L 15.28125 54.6875 
L 29.78125 35.203125 
L 44.28125 54.6875 
z
" id="DejaVuSans-120"/>
       <path id="DejaVuSans-32"/>
       <path d="M 31 75.875 
Q 24.46875 64.65625 21.28125 53.65625 
Q 18.109375 42.671875 18.109375 31.390625 
Q 18.109375 20.125 21.3125 9.0625 
Q 24.515625 -2 31 -13.1875 
L 23.1875 -13.1875 
Q 15.875 -1.703125 12.234375 9.375 
Q 8.59375 20.453125 8.59375 31.390625 
Q 8.59375 42.28125 12.203125 53.3125 
Q 15.828125 64.359375 23.1875 75.875 
z
" id="DejaVuSans-40"/>
       <path d="M 5.515625 54.6875 
L 48.1875 54.6875 
L 48.1875 46.484375 
L 14.40625 7.171875 
L 48.1875 7.171875 
L 48.1875 0 
L 4.296875 0 
L 4.296875 8.203125 
L 38.09375 47.515625 
L 5.515625 47.515625 
z
" id="DejaVuSans-122"/>
       <path d="M 4.890625 31.390625 
L 31.203125 31.390625 
L 31.203125 23.390625 
L 4.890625 23.390625 
z
" id="DejaVuSans-45"/>
       <path d="M 44.28125 53.078125 
L 44.28125 44.578125 
Q 40.484375 46.53125 36.375 47.5 
Q 32.28125 48.484375 27.875 48.484375 
Q 21.1875 48.484375 17.84375 46.4375 
Q 14.5 44.390625 14.5 40.28125 
Q 14.5 37.15625 16.890625 35.375 
Q 19.28125 33.59375 26.515625 31.984375 
L 29.59375 31.296875 
Q 39.15625 29.25 43.1875 25.515625 
Q 47.21875 21.78125 47.21875 15.09375 
Q 47.21875 7.46875 41.1875 3.015625 
Q 35.15625 -1.421875 24.609375 -1.421875 
Q 20.21875 -1.421875 15.453125 -0.5625 
Q 10.6875 0.296875 5.421875 2 
L 5.421875 11.28125 
Q 10.40625 8.6875 15.234375 7.390625 
Q 20.0625 6.109375 24.8125 6.109375 
Q 31.15625 6.109375 34.5625 8.28125 
Q 37.984375 10.453125 37.984375 14.40625 
Q 37.984375 18.0625 35.515625 20.015625 
Q 33.0625 21.96875 24.703125 23.78125 
L 21.578125 24.515625 
Q 13.234375 26.265625 9.515625 29.90625 
Q 5.8125 33.546875 5.8125 39.890625 
Q 5.8125 47.609375 11.28125 51.796875 
Q 16.75 56 26.8125 56 
Q 31.78125 56 36.171875 55.265625 
Q 40.578125 54.546875 44.28125 53.078125 
z
" id="DejaVuSans-115"/>
       <path d="M 48.78125 52.59375 
L 48.78125 44.1875 
Q 44.96875 46.296875 41.140625 47.34375 
Q 37.3125 48.390625 33.40625 48.390625 
Q 24.65625 48.390625 19.8125 42.84375 
Q 14.984375 37.3125 14.984375 27.296875 
Q 14.984375 17.28125 19.8125 11.734375 
Q 24.65625 6.203125 33.40625 6.203125 
Q 37.3125 6.203125 41.140625 7.25 
Q 44.96875 8.296875 48.78125 10.40625 
L 48.78125 2.09375 
Q 45.015625 0.34375 40.984375 -0.53125 
Q 36.96875 -1.421875 32.421875 -1.421875 
Q 20.0625 -1.421875 12.78125 6.34375 
Q 5.515625 14.109375 5.515625 27.296875 
Q 5.515625 40.671875 12.859375 48.328125 
Q 20.21875 56 33.015625 56 
Q 37.15625 56 41.109375 55.140625 
Q 45.0625 54.296875 48.78125 52.59375 
z
" id="DejaVuSans-99"/>
       <path d="M 30.609375 48.390625 
Q 23.390625 48.390625 19.1875 42.75 
Q 14.984375 37.109375 14.984375 27.296875 
Q 14.984375 17.484375 19.15625 11.84375 
Q 23.34375 6.203125 30.609375 6.203125 
Q 37.796875 6.203125 41.984375 11.859375 
Q 46.1875 17.53125 46.1875 27.296875 
Q 46.1875 37.015625 41.984375 42.703125 
Q 37.796875 48.390625 30.609375 48.390625 
z
M 30.609375 56 
Q 42.328125 56 49.015625 48.375 
Q 55.71875 40.765625 55.71875 27.296875 
Q 55.71875 13.875 49.015625 6.21875 
Q 42.328125 -1.421875 30.609375 -1.421875 
Q 18.84375 -1.421875 12.171875 6.21875 
Q 5.515625 13.875 5.515625 27.296875 
Q 5.515625 40.765625 12.171875 48.375 
Q 18.84375 56 30.609375 56 
z
" id="DejaVuSans-111"/>
       <path d="M 41.109375 46.296875 
Q 39.59375 47.171875 37.8125 47.578125 
Q 36.03125 48 33.890625 48 
Q 26.265625 48 22.1875 43.046875 
Q 18.109375 38.09375 18.109375 28.8125 
L 18.109375 0 
L 9.078125 0 
L 9.078125 54.6875 
L 18.109375 54.6875 
L 18.109375 46.1875 
Q 20.953125 51.171875 25.484375 53.578125 
Q 30.03125 56 36.53125 56 
Q 37.453125 56 38.578125 55.875 
Q 39.703125 55.765625 41.0625 55.515625 
z
" id="DejaVuSans-114"/>
       <path d="M 56.203125 29.59375 
L 56.203125 25.203125 
L 14.890625 25.203125 
Q 15.484375 15.921875 20.484375 11.0625 
Q 25.484375 6.203125 34.421875 6.203125 
Q 39.59375 6.203125 44.453125 7.46875 
Q 49.3125 8.734375 54.109375 11.28125 
L 54.109375 2.78125 
Q 49.265625 0.734375 44.1875 -0.34375 
Q 39.109375 -1.421875 33.890625 -1.421875 
Q 20.796875 -1.421875 13.15625 6.1875 
Q 5.515625 13.8125 5.515625 26.8125 
Q 5.515625 40.234375 12.765625 48.109375 
Q 20.015625 56 32.328125 56 
Q 43.359375 56 49.78125 48.890625 
Q 56.203125 41.796875 56.203125 29.59375 
z
M 47.21875 32.234375 
Q 47.125 39.59375 43.09375 43.984375 
Q 39.0625 48.390625 32.421875 48.390625 
Q 24.90625 48.390625 20.390625 44.140625 
Q 15.875 39.890625 15.1875 32.171875 
z
" id="DejaVuSans-101"/>
       <path d="M 8.015625 75.875 
L 15.828125 75.875 
Q 23.140625 64.359375 26.78125 53.3125 
Q 30.421875 42.28125 30.421875 31.390625 
Q 30.421875 20.453125 26.78125 9.375 
Q 23.140625 -1.703125 15.828125 -13.1875 
L 8.015625 -13.1875 
Q 14.5 -2 17.703125 9.0625 
Q 20.90625 20.125 20.90625 31.390625 
Q 20.90625 42.671875 17.703125 53.65625 
Q 14.5 64.65625 8.015625 75.875 
z
" id="DejaVuSans-41"/>
      </defs>
      <use xlink:href="#DejaVuSans-120"/>
      <use x="59.179688" xlink:href="#DejaVuSans-32"/>
      <use x="90.966797" xlink:href="#DejaVuSans-40"/>
      <use x="129.980469" xlink:href="#DejaVuSans-122"/>
      <use x="182.470703" xlink:href="#DejaVuSans-45"/>
      <use x="218.554688" xlink:href="#DejaVuSans-115"/>
      <use x="270.654297" xlink:href="#DejaVuSans-99"/>
      <use x="325.634766" xlink:href="#DejaVuSans-111"/>
      <use x="386.816406" xlink:href="#DejaVuSans-114"/>
      <use x="425.679688" xlink:href="#DejaVuSans-101"/>
      <use x="487.203125" xlink:href="#DejaVuSans-115"/>
      <use x="539.302734" xlink:href="#DejaVuSans-41"/>
     </g>
    </g>
   </g>
   <g id="matplotlib.axis_2">
    <g id="ytick_1">
     <g id="line2d_15">
      <path clip-path="url(#p2bdb8153fd)" d="M 54.56399 482.727221 
L 932.99976 482.727221 
" style="fill:none;stroke:#ffffff;stroke-linecap:round;stroke-width:0.8;"/>
     </g>
     <g id="line2d_16"/>
     <g id="text_9">
      <!-- −75 -->
      <g style="fill:#262626;" transform="translate(21.517428 488.046127)scale(0.14 -0.14)">
       <defs>
        <path d="M 8.203125 72.90625 
L 55.078125 72.90625 
L 55.078125 68.703125 
L 28.609375 0 
L 18.3125 0 
L 43.21875 64.59375 
L 8.203125 64.59375 
z
" id="DejaVuSans-55"/>
        <path d="M 10.796875 72.90625 
L 49.515625 72.90625 
L 49.515625 64.59375 
L 19.828125 64.59375 
L 19.828125 46.734375 
Q 21.96875 47.46875 24.109375 47.828125 
Q 26.265625 48.1875 28.421875 48.1875 
Q 40.625 48.1875 47.75 41.5 
Q 54.890625 34.8125 54.890625 23.390625 
Q 54.890625 11.625 47.5625 5.09375 
Q 40.234375 -1.421875 26.90625 -1.421875 
Q 22.3125 -1.421875 17.546875 -0.640625 
Q 12.796875 0.140625 7.71875 1.703125 
L 7.71875 11.625 
Q 12.109375 9.234375 16.796875 8.0625 
Q 21.484375 6.890625 26.703125 6.890625 
Q 35.15625 6.890625 40.078125 11.328125 
Q 45.015625 15.765625 45.015625 23.390625 
Q 45.015625 31 40.078125 35.4375 
Q 35.15625 39.890625 26.703125 39.890625 
Q 22.75 39.890625 18.8125 39.015625 
Q 14.890625 38.140625 10.796875 36.28125 
z
" id="DejaVuSans-53"/>
       </defs>
       <use xlink:href="#DejaVuSans-8722"/>
       <use x="83.789062" xlink:href="#DejaVuSans-55"/>
       <use x="147.412109" xlink:href="#DejaVuSans-53"/>
      </g>
     </g>
    </g>
    <g id="ytick_2">
     <g id="line2d_17">
      <path clip-path="url(#p2bdb8153fd)" d="M 54.56399 412.198681 
L 932.99976 412.198681 
" style="fill:none;stroke:#ffffff;stroke-linecap:round;stroke-width:0.8;"/>
     </g>
     <g id="line2d_18"/>
     <g id="text_10">
      <!-- −50 -->
      <g style="fill:#262626;" transform="translate(21.517428 417.517587)scale(0.14 -0.14)">
       <use xlink:href="#DejaVuSans-8722"/>
       <use x="83.789062" xlink:href="#DejaVuSans-53"/>
       <use x="147.412109" xlink:href="#DejaVuSans-48"/>
      </g>
     </g>
    </g>
    <g id="ytick_3">
     <g id="line2d_19">
      <path clip-path="url(#p2bdb8153fd)" d="M 54.56399 341.67014 
L 932.99976 341.67014 
" style="fill:none;stroke:#ffffff;stroke-linecap:round;stroke-width:0.8;"/>
     </g>
     <g id="line2d_20"/>
     <g id="text_11">
      <!-- −25 -->
      <g style="fill:#262626;" transform="translate(21.517428 346.989046)scale(0.14 -0.14)">
       <use xlink:href="#DejaVuSans-8722"/>
       <use x="83.789062" xlink:href="#DejaVuSans-50"/>
       <use x="147.412109" xlink:href="#DejaVuSans-53"/>
      </g>
     </g>
    </g>
    <g id="ytick_4">
     <g id="line2d_21">
      <path clip-path="url(#p2bdb8153fd)" d="M 54.56399 271.141599 
L 932.99976 271.141599 
" style="fill:none;stroke:#ffffff;stroke-linecap:round;stroke-width:0.8;"/>
     </g>
     <g id="line2d_22"/>
     <g id="text_12">
      <!-- 0 -->
      <g style="fill:#262626;" transform="translate(42.15649 276.460506)scale(0.14 -0.14)">
       <use xlink:href="#DejaVuSans-48"/>
      </g>
     </g>
    </g>
    <g id="ytick_5">
     <g id="line2d_23">
      <path clip-path="url(#p2bdb8153fd)" d="M 54.56399 200.613059 
L 932.99976 200.613059 
" style="fill:none;stroke:#ffffff;stroke-linecap:round;stroke-width:0.8;"/>
     </g>
     <g id="line2d_24"/>
     <g id="text_13">
      <!-- 25 -->
      <g style="fill:#262626;" transform="translate(33.24899 205.931965)scale(0.14 -0.14)">
       <use xlink:href="#DejaVuSans-50"/>
       <use x="63.623047" xlink:href="#DejaVuSans-53"/>
      </g>
     </g>
    </g>
    <g id="ytick_6">
     <g id="line2d_25">
      <path clip-path="url(#p2bdb8153fd)" d="M 54.56399 130.084518 
L 932.99976 130.084518 
" style="fill:none;stroke:#ffffff;stroke-linecap:round;stroke-width:0.8;"/>
     </g>
     <g id="line2d_26"/>
     <g id="text_14">
      <!-- 50 -->
      <g style="fill:#262626;" transform="translate(33.24899 135.403425)scale(0.14 -0.14)">
       <use xlink:href="#DejaVuSans-53"/>
       <use x="63.623047" xlink:href="#DejaVuSans-48"/>
      </g>
     </g>
    </g>
    <g id="ytick_7">
     <g id="line2d_27">
      <path clip-path="url(#p2bdb8153fd)" d="M 54.56399 59.555978 
L 932.99976 59.555978 
" style="fill:none;stroke:#ffffff;stroke-linecap:round;stroke-width:0.8;"/>
     </g>
     <g id="line2d_28"/>
     <g id="text_15">
      <!-- 75 -->
      <g style="fill:#262626;" transform="translate(33.24899 64.874884)scale(0.14 -0.14)">
       <use xlink:href="#DejaVuSans-55"/>
       <use x="63.623047" xlink:href="#DejaVuSans-53"/>
      </g>
     </g>
    </g>
    <g id="text_16">
     <!-- Fitted y (z-scores) -->
     <g style="fill:#262626;" transform="translate(14.397896 346.162656)rotate(-90)scale(0.15 -0.15)">
      <defs>
       <path d="M 9.8125 72.90625 
L 51.703125 72.90625 
L 51.703125 64.59375 
L 19.671875 64.59375 
L 19.671875 43.109375 
L 48.578125 43.109375 
L 48.578125 34.8125 
L 19.671875 34.8125 
L 19.671875 0 
L 9.8125 0 
z
" id="DejaVuSans-70"/>
       <path d="M 9.421875 54.6875 
L 18.40625 54.6875 
L 18.40625 0 
L 9.421875 0 
z
M 9.421875 75.984375 
L 18.40625 75.984375 
L 18.40625 64.59375 
L 9.421875 64.59375 
z
" id="DejaVuSans-105"/>
       <path d="M 18.3125 70.21875 
L 18.3125 54.6875 
L 36.8125 54.6875 
L 36.8125 47.703125 
L 18.3125 47.703125 
L 18.3125 18.015625 
Q 18.3125 11.328125 20.140625 9.421875 
Q 21.96875 7.515625 27.59375 7.515625 
L 36.8125 7.515625 
L 36.8125 0 
L 27.59375 0 
Q 17.1875 0 13.234375 3.875 
Q 9.28125 7.765625 9.28125 18.015625 
L 9.28125 47.703125 
L 2.6875 47.703125 
L 2.6875 54.6875 
L 9.28125 54.6875 
L 9.28125 70.21875 
z
" id="DejaVuSans-116"/>
       <path d="M 45.40625 46.390625 
L 45.40625 75.984375 
L 54.390625 75.984375 
L 54.390625 0 
L 45.40625 0 
L 45.40625 8.203125 
Q 42.578125 3.328125 38.25 0.953125 
Q 33.9375 -1.421875 27.875 -1.421875 
Q 17.96875 -1.421875 11.734375 6.484375 
Q 5.515625 14.40625 5.515625 27.296875 
Q 5.515625 40.1875 11.734375 48.09375 
Q 17.96875 56 27.875 56 
Q 33.9375 56 38.25 53.625 
Q 42.578125 51.265625 45.40625 46.390625 
z
M 14.796875 27.296875 
Q 14.796875 17.390625 18.875 11.75 
Q 22.953125 6.109375 30.078125 6.109375 
Q 37.203125 6.109375 41.296875 11.75 
Q 45.40625 17.390625 45.40625 27.296875 
Q 45.40625 37.203125 41.296875 42.84375 
Q 37.203125 48.484375 30.078125 48.484375 
Q 22.953125 48.484375 18.875 42.84375 
Q 14.796875 37.203125 14.796875 27.296875 
z
" id="DejaVuSans-100"/>
       <path d="M 32.171875 -5.078125 
Q 28.375 -14.84375 24.75 -17.8125 
Q 21.140625 -20.796875 15.09375 -20.796875 
L 7.90625 -20.796875 
L 7.90625 -13.28125 
L 13.1875 -13.28125 
Q 16.890625 -13.28125 18.9375 -11.515625 
Q 21 -9.765625 23.484375 -3.21875 
L 25.09375 0.875 
L 2.984375 54.6875 
L 12.5 54.6875 
L 29.59375 11.921875 
L 46.6875 54.6875 
L 56.203125 54.6875 
z
" id="DejaVuSans-121"/>
      </defs>
      <use xlink:href="#DejaVuSans-70"/>
      <use x="50.269531" xlink:href="#DejaVuSans-105"/>
      <use x="78.052734" xlink:href="#DejaVuSans-116"/>
      <use x="117.261719" xlink:href="#DejaVuSans-116"/>
      <use x="156.470703" xlink:href="#DejaVuSans-101"/>
      <use x="217.994141" xlink:href="#DejaVuSans-100"/>
      <use x="281.470703" xlink:href="#DejaVuSans-32"/>
      <use x="313.257812" xlink:href="#DejaVuSans-121"/>
      <use x="372.4375" xlink:href="#DejaVuSans-32"/>
      <use x="404.224609" xlink:href="#DejaVuSans-40"/>
      <use x="443.238281" xlink:href="#DejaVuSans-122"/>
      <use x="495.728516" xlink:href="#DejaVuSans-45"/>
      <use x="531.8125" xlink:href="#DejaVuSans-115"/>
      <use x="583.912109" xlink:href="#DejaVuSans-99"/>
      <use x="638.892578" xlink:href="#DejaVuSans-111"/>
      <use x="700.074219" xlink:href="#DejaVuSans-114"/>
      <use x="738.9375" xlink:href="#DejaVuSans-101"/>
      <use x="800.460938" xlink:href="#DejaVuSans-115"/>
      <use x="852.560547" xlink:href="#DejaVuSans-41"/>
     </g>
    </g>
   </g>
   <g id="line2d_29">
    <path clip-path="url(#p2bdb8153fd)" d="M 94.492889 251.191577 
L 893.070861 252.925293 
L 893.070861 252.925293 
" style="fill:none;stroke:#000000;stroke-linecap:round;stroke-opacity:0.4;stroke-width:1.5;"/>
   </g>
   <g id="line2d_30">
    <path clip-path="url(#p2bdb8153fd)" d="M 94.492889 323.323775 
L 893.070861 256.976804 
L 893.070861 256.976804 
" style="fill:none;stroke:#000000;stroke-linecap:round;stroke-opacity:0.4;stroke-width:1.5;"/>
   </g>
   <g id="line2d_31">
    <path clip-path="url(#p2bdb8153fd)" d="M 94.492889 327.427617 
L 893.070861 243.717342 
L 893.070861 243.717342 
" style="fill:none;stroke:#000000;stroke-linecap:round;stroke-opacity:0.4;stroke-width:1.5;"/>
   </g>
   <g id="line2d_32">
    <path clip-path="url(#p2bdb8153fd)" d="M 94.492889 331.322647 
L 893.070861 207.042457 
L 893.070861 207.042457 
" style="fill:none;stroke:#000000;stroke-linecap:round;stroke-opacity:0.4;stroke-width:1.5;"/>
   </g>
   <g id="line2d_33">
    <path clip-path="url(#p2bdb8153fd)" d="M 94.492889 350.033262 
L 893.070861 225.73165 
L 893.070861 225.73165 
" style="fill:none;stroke:#000000;stroke-linecap:round;stroke-opacity:0.4;stroke-width:1.5;"/>
   </g>
   <g id="line2d_34">
    <path clip-path="url(#p2bdb8153fd)" d="M 94.492889 221.950127 
L 893.070861 292.233904 
L 893.070861 292.233904 
" style="fill:none;stroke:#000000;stroke-linecap:round;stroke-opacity:0.4;stroke-width:1.5;"/>
   </g>
   <g id="line2d_35">
    <path clip-path="url(#p2bdb8153fd)" d="M 94.492889 256.45131 
L 893.070861 197.823731 
L 893.070861 197.823731 
" style="fill:none;stroke:#000000;stroke-linecap:round;stroke-opacity:0.4;stroke-width:1.5;"/>
   </g>
   <g id="line2d_36">
    <path clip-path="url(#p2bdb8153fd)" d="M 94.492889 288.266776 
L 893.070861 281.514681 
L 893.070861 281.514681 
" style="fill:none;stroke:#000000;stroke-linecap:round;stroke-opacity:0.4;stroke-width:1.5;"/>
   </g>
   <g id="line2d_37">
    <path clip-path="url(#p2bdb8153fd)" d="M 94.492889 302.514306 
L 893.070861 263.5028 
L 893.070861 263.5028 
" style="fill:none;stroke:#000000;stroke-linecap:round;stroke-opacity:0.4;stroke-width:1.5;"/>
   </g>
   <g id="line2d_38">
    <path clip-path="url(#p2bdb8153fd)" d="M 94.492889 136.997835 
L 893.070861 353.150212 
L 893.070861 353.150212 
" style="fill:none;stroke:#000000;stroke-linecap:round;stroke-opacity:0.4;stroke-width:1.5;"/>
   </g>
   <g id="line2d_39">
    <path clip-path="url(#p2bdb8153fd)" d="M 94.492889 244.226535 
L 893.070861 235.135377 
L 893.070861 235.135377 
" style="fill:none;stroke:#000000;stroke-linecap:round;stroke-opacity:0.4;stroke-width:1.5;"/>
   </g>
   <g id="line2d_40">
    <path clip-path="url(#p2bdb8153fd)" d="M 94.492889 288.189129 
L 893.070861 265.653447 
L 893.070861 265.653447 
" style="fill:none;stroke:#000000;stroke-linecap:round;stroke-opacity:0.4;stroke-width:1.5;"/>
   </g>
   <g id="line2d_41">
    <path clip-path="url(#p2bdb8153fd)" d="M 94.492889 209.737121 
L 893.070861 370.292778 
L 893.070861 370.292778 
" style="fill:none;stroke:#000000;stroke-linecap:round;stroke-opacity:0.4;stroke-width:1.5;"/>
   </g>
   <g id="line2d_42">
    <path clip-path="url(#p2bdb8153fd)" d="M 94.492889 259.041503 
L 893.070861 351.638054 
L 893.070861 351.638054 
" style="fill:none;stroke:#000000;stroke-linecap:round;stroke-opacity:0.4;stroke-width:1.5;"/>
   </g>
   <g id="line2d_43">
    <path clip-path="url(#p2bdb8153fd)" d="M 94.492889 281.898828 
L 893.070861 197.407098 
L 893.070861 197.407098 
" style="fill:none;stroke:#000000;stroke-linecap:round;stroke-opacity:0.4;stroke-width:1.5;"/>
   </g>
   <g id="line2d_44">
    <path clip-path="url(#p2bdb8153fd)" d="M 94.492889 253.851579 
L 893.070861 334.029705 
L 893.070861 334.029705 
" style="fill:none;stroke:#000000;stroke-linecap:round;stroke-opacity:0.4;stroke-width:1.5;"/>
   </g>
   <g id="line2d_45">
    <path clip-path="url(#p2bdb8153fd)" d="M 94.492889 208.296877 
L 893.070861 358.788999 
L 893.070861 358.788999 
" style="fill:none;stroke:#000000;stroke-linecap:round;stroke-opacity:0.4;stroke-width:1.5;"/>
   </g>
   <g id="line2d_46">
    <path clip-path="url(#p2bdb8153fd)" d="M 94.492889 145.16276 
L 893.070861 394.605767 
L 893.070861 394.605767 
" style="fill:none;stroke:#000000;stroke-linecap:round;stroke-opacity:0.4;stroke-width:1.5;"/>
   </g>
   <g id="line2d_47">
    <path clip-path="url(#p2bdb8153fd)" d="M 94.492889 397.144388 
L 893.070861 141.852144 
L 893.070861 141.852144 
" style="fill:none;stroke:#000000;stroke-linecap:round;stroke-opacity:0.4;stroke-width:1.5;"/>
   </g>
   <g id="line2d_48">
    <path clip-path="url(#p2bdb8153fd)" d="M 94.492889 390.323046 
L 893.070861 145.94501 
L 893.070861 145.94501 
" style="fill:none;stroke:#000000;stroke-linecap:round;stroke-opacity:0.4;stroke-width:1.5;"/>
   </g>
   <g id="line2d_49">
    <path clip-path="url(#p2bdb8153fd)" d="M 94.492889 421.839806 
L 893.070861 112.535436 
L 893.070861 112.535436 
" style="fill:none;stroke:#000000;stroke-linecap:round;stroke-opacity:0.4;stroke-width:1.5;"/>
   </g>
   <g id="line2d_50">
    <path clip-path="url(#p2bdb8153fd)" d="M 94.492889 325.399857 
L 893.070861 244.713227 
L 893.070861 244.713227 
" style="fill:none;stroke:#000000;stroke-linecap:round;stroke-opacity:0.4;stroke-width:1.5;"/>
   </g>
   <g id="line2d_51">
    <path clip-path="url(#p2bdb8153fd)" d="M 94.492889 234.671932 
L 893.070861 297.588649 
L 893.070861 297.588649 
" style="fill:none;stroke:#000000;stroke-linecap:round;stroke-opacity:0.4;stroke-width:1.5;"/>
   </g>
   <g id="line2d_52">
    <path clip-path="url(#p2bdb8153fd)" d="M 94.492889 229.666481 
L 893.070861 302.969907 
L 893.070861 302.969907 
" style="fill:none;stroke:#000000;stroke-linecap:round;stroke-opacity:0.4;stroke-width:1.5;"/>
   </g>
   <g id="line2d_53">
    <path clip-path="url(#p2bdb8153fd)" d="M 94.492889 362.089571 
L 893.070861 114.805893 
L 893.070861 114.805893 
" style="fill:none;stroke:#000000;stroke-linecap:round;stroke-opacity:0.4;stroke-width:1.5;"/>
   </g>
   <g id="line2d_54">
    <path clip-path="url(#p2bdb8153fd)" d="M 94.492889 232.200732 
L 893.070861 344.074315 
L 893.070861 344.074315 
" style="fill:none;stroke:#000000;stroke-linecap:round;stroke-opacity:0.4;stroke-width:1.5;"/>
   </g>
   <g id="line2d_55">
    <path clip-path="url(#p2bdb8153fd)" d="M 94.492889 178.781987 
L 893.070861 362.297355 
L 893.070861 362.297355 
" style="fill:none;stroke:#000000;stroke-linecap:round;stroke-opacity:0.4;stroke-width:1.5;"/>
   </g>
   <g id="line2d_56">
    <path clip-path="url(#p2bdb8153fd)" d="M 94.492889 293.742744 
L 893.070861 344.207121 
L 893.070861 344.207121 
" style="fill:none;stroke:#000000;stroke-linecap:round;stroke-opacity:0.4;stroke-width:1.5;"/>
   </g>
   <g id="line2d_57">
    <path clip-path="url(#p2bdb8153fd)" d="M 94.492889 227.521301 
L 893.070861 164.954979 
L 893.070861 164.954979 
" style="fill:none;stroke:#000000;stroke-linecap:round;stroke-opacity:0.4;stroke-width:1.5;"/>
   </g>
   <g id="line2d_58">
    <path clip-path="url(#p2bdb8153fd)" d="M 94.492889 361.958729 
L 893.070861 322.843711 
L 893.070861 322.843711 
" style="fill:none;stroke:#000000;stroke-linecap:round;stroke-opacity:0.4;stroke-width:1.5;"/>
   </g>
   <g id="line2d_59">
    <path clip-path="url(#p2bdb8153fd)" d="M 94.492889 349.707135 
L 893.070861 196.984039 
L 893.070861 196.984039 
" style="fill:none;stroke:#000000;stroke-linecap:round;stroke-opacity:0.4;stroke-width:1.5;"/>
   </g>
   <g id="line2d_60">
    <path clip-path="url(#p2bdb8153fd)" d="M 94.492889 251.939006 
L 893.070861 337.974086 
L 893.070861 337.974086 
" style="fill:none;stroke:#000000;stroke-linecap:round;stroke-opacity:0.4;stroke-width:1.5;"/>
   </g>
   <g id="line2d_61">
    <path clip-path="url(#p2bdb8153fd)" d="M 94.492889 309.71927 
L 893.070861 256.907659 
L 893.070861 256.907659 
" style="fill:none;stroke:#000000;stroke-linecap:round;stroke-opacity:0.4;stroke-width:1.5;"/>
   </g>
   <g id="line2d_62">
    <path clip-path="url(#p2bdb8153fd)" d="M 94.492889 327.679269 
L 893.070861 263.538497 
L 893.070861 263.538497 
" style="fill:none;stroke:#000000;stroke-linecap:round;stroke-opacity:0.4;stroke-width:1.5;"/>
   </g>
   <g id="line2d_63">
    <path clip-path="url(#p2bdb8153fd)" d="M 94.492889 315.467572 
L 893.070861 269.530343 
L 893.070861 269.530343 
" style="fill:none;stroke:#000000;stroke-linecap:round;stroke-opacity:0.4;stroke-width:1.5;"/>
   </g>
   <g id="line2d_64">
    <path clip-path="url(#p2bdb8153fd)" d="M 94.492889 330.463616 
L 893.070861 214.667309 
L 893.070861 214.667309 
" style="fill:none;stroke:#000000;stroke-linecap:round;stroke-opacity:0.4;stroke-width:1.5;"/>
   </g>
   <g id="line2d_65">
    <path clip-path="url(#p2bdb8153fd)" d="M 94.492889 258.032546 
L 893.070861 318.926216 
L 893.070861 318.926216 
" style="fill:none;stroke:#000000;stroke-linecap:round;stroke-opacity:0.4;stroke-width:1.5;"/>
   </g>
   <g id="line2d_66">
    <path clip-path="url(#p2bdb8153fd)" d="M 94.492889 286.293313 
L 893.070861 213.323249 
L 893.070861 213.323249 
" style="fill:none;stroke:#000000;stroke-linecap:round;stroke-opacity:0.4;stroke-width:1.5;"/>
   </g>
   <g id="line2d_67">
    <path clip-path="url(#p2bdb8153fd)" d="M 94.492889 271.089125 
L 893.070861 315.802259 
L 893.070861 315.802259 
" style="fill:none;stroke:#000000;stroke-linecap:round;stroke-opacity:0.4;stroke-width:1.5;"/>
   </g>
   <g id="line2d_68">
    <path clip-path="url(#p2bdb8153fd)" d="M 94.492889 178.047145 
L 893.070861 272.076835 
L 893.070861 272.076835 
" style="fill:none;stroke:#000000;stroke-linecap:round;stroke-opacity:0.4;stroke-width:1.5;"/>
   </g>
   <g id="line2d_69">
    <path clip-path="url(#p2bdb8153fd)" d="M 94.492889 393.672331 
L 893.070861 206.875836 
L 893.070861 206.875836 
" style="fill:none;stroke:#000000;stroke-linecap:round;stroke-opacity:0.4;stroke-width:1.5;"/>
   </g>
   <g id="line2d_70">
    <path clip-path="url(#p2bdb8153fd)" d="M 94.492889 140.684991 
L 893.070861 385.878025 
L 893.070861 385.878025 
" style="fill:none;stroke:#000000;stroke-linecap:round;stroke-opacity:0.4;stroke-width:1.5;"/>
   </g>
   <g id="line2d_71">
    <path clip-path="url(#p2bdb8153fd)" d="M 94.492889 234.664443 
L 893.070861 320.924213 
L 893.070861 320.924213 
" style="fill:none;stroke:#000000;stroke-linecap:round;stroke-opacity:0.4;stroke-width:1.5;"/>
   </g>
   <g id="line2d_72">
    <path clip-path="url(#p2bdb8153fd)" d="M 94.492889 235.601043 
L 893.070861 321.043595 
L 893.070861 321.043595 
" style="fill:none;stroke:#000000;stroke-linecap:round;stroke-opacity:0.4;stroke-width:1.5;"/>
   </g>
   <g id="line2d_73">
    <path clip-path="url(#p2bdb8153fd)" d="M 94.492889 277.192444 
L 893.070861 233.175747 
L 893.070861 233.175747 
" style="fill:none;stroke:#000000;stroke-linecap:round;stroke-opacity:0.4;stroke-width:1.5;"/>
   </g>
   <g id="line2d_74">
    <path clip-path="url(#p2bdb8153fd)" d="M 94.492889 292.134981 
L 893.070861 297.986837 
L 893.070861 297.986837 
" style="fill:none;stroke:#000000;stroke-linecap:round;stroke-opacity:0.4;stroke-width:1.5;"/>
   </g>
   <g id="line2d_75">
    <path clip-path="url(#p2bdb8153fd)" d="M 94.492889 272.690482 
L 893.070861 317.959511 
L 893.070861 317.959511 
" style="fill:none;stroke:#000000;stroke-linecap:round;stroke-opacity:0.4;stroke-width:1.5;"/>
   </g>
   <g id="line2d_76">
    <path clip-path="url(#p2bdb8153fd)" d="M 94.492889 149.319127 
L 893.070861 428.353084 
L 893.070861 428.353084 
" style="fill:none;stroke:#000000;stroke-linecap:round;stroke-opacity:0.4;stroke-width:1.5;"/>
   </g>
   <g id="line2d_77">
    <path clip-path="url(#p2bdb8153fd)" d="M 94.492889 453.056395 
L 893.070861 44.624806 
L 893.070861 44.624806 
" style="fill:none;stroke:#000000;stroke-linecap:round;stroke-opacity:0.4;stroke-width:1.5;"/>
   </g>
   <g id="line2d_78">
    <path clip-path="url(#p2bdb8153fd)" d="M 94.492889 413.311751 
L 893.070861 69.483021 
L 893.070861 69.483021 
" style="fill:none;stroke:#000000;stroke-linecap:round;stroke-opacity:0.4;stroke-width:1.5;"/>
   </g>
   <g id="line2d_79">
    <path clip-path="url(#p2bdb8153fd)" d="M 94.492889 160.176249 
L 893.070861 454.562694 
L 893.070861 454.562694 
" style="fill:none;stroke:#000000;stroke-linecap:round;stroke-opacity:0.4;stroke-width:1.5;"/>
   </g>
   <g id="line2d_80">
    <path clip-path="url(#p2bdb8153fd)" d="M 94.492889 377.055517 
L 893.070861 211.124424 
L 893.070861 211.124424 
" style="fill:none;stroke:#000000;stroke-linecap:round;stroke-opacity:0.4;stroke-width:1.5;"/>
   </g>
   <g id="line2d_81">
    <path clip-path="url(#p2bdb8153fd)" d="M 94.492889 280.342496 
L 893.070861 318.213837 
L 893.070861 318.213837 
" style="fill:none;stroke:#000000;stroke-linecap:round;stroke-opacity:0.4;stroke-width:1.5;"/>
   </g>
   <g id="line2d_82">
    <path clip-path="url(#p2bdb8153fd)" d="M 94.492889 293.513711 
L 893.070861 313.806822 
L 893.070861 313.806822 
" style="fill:none;stroke:#000000;stroke-linecap:round;stroke-opacity:0.4;stroke-width:1.5;"/>
   </g>
   <g id="line2d_83">
    <path clip-path="url(#p2bdb8153fd)" d="M 94.492889 218.742397 
L 893.070861 342.374544 
L 893.070861 342.374544 
" style="fill:none;stroke:#000000;stroke-linecap:round;stroke-opacity:0.4;stroke-width:1.5;"/>
   </g>
   <g id="line2d_84">
    <path clip-path="url(#p2bdb8153fd)" d="M 94.492889 205.063249 
L 893.070861 344.40675 
L 893.070861 344.40675 
" style="fill:none;stroke:#000000;stroke-linecap:round;stroke-opacity:0.4;stroke-width:1.5;"/>
   </g>
   <g id="line2d_85">
    <path clip-path="url(#p2bdb8153fd)" d="M 94.492889 203.208107 
L 893.070861 303.875009 
L 893.070861 303.875009 
" style="fill:none;stroke:#000000;stroke-linecap:round;stroke-opacity:0.4;stroke-width:1.5;"/>
   </g>
   <g id="line2d_86">
    <path clip-path="url(#p2bdb8153fd)" d="M 94.492889 321.159402 
L 893.070861 209.139158 
L 893.070861 209.139158 
" style="fill:none;stroke:#000000;stroke-linecap:round;stroke-opacity:0.4;stroke-width:1.5;"/>
   </g>
   <g id="line2d_87">
    <path clip-path="url(#p2bdb8153fd)" d="M 94.492889 374.641392 
L 893.070861 194.665958 
L 893.070861 194.665958 
" style="fill:none;stroke:#000000;stroke-linecap:round;stroke-opacity:0.4;stroke-width:1.5;"/>
   </g>
   <g id="line2d_88">
    <path clip-path="url(#p2bdb8153fd)" d="M 94.492889 219.801675 
L 893.070861 280.410714 
L 893.070861 280.410714 
" style="fill:none;stroke:#000000;stroke-linecap:round;stroke-opacity:0.4;stroke-width:1.5;"/>
   </g>
   <g id="line2d_89">
    <path clip-path="url(#p2bdb8153fd)" d="M 94.492889 234.116114 
L 893.070861 340.935049 
L 893.070861 340.935049 
" style="fill:none;stroke:#000000;stroke-linecap:round;stroke-opacity:0.4;stroke-width:1.5;"/>
   </g>
   <g id="line2d_90">
    <path clip-path="url(#p2bdb8153fd)" d="M 94.492889 294.684656 
L 893.070861 198.542022 
L 893.070861 198.542022 
" style="fill:none;stroke:#000000;stroke-linecap:round;stroke-opacity:0.4;stroke-width:1.5;"/>
   </g>
   <g id="line2d_91">
    <path clip-path="url(#p2bdb8153fd)" d="M 94.492889 317.447034 
L 893.070861 274.383579 
L 893.070861 274.383579 
" style="fill:none;stroke:#000000;stroke-linecap:round;stroke-opacity:0.4;stroke-width:1.5;"/>
   </g>
   <g id="line2d_92">
    <path clip-path="url(#p2bdb8153fd)" d="M 94.492889 344.067869 
L 893.070861 246.897961 
L 893.070861 246.897961 
" style="fill:none;stroke:#000000;stroke-linecap:round;stroke-opacity:0.4;stroke-width:1.5;"/>
   </g>
   <g id="line2d_93">
    <path clip-path="url(#p2bdb8153fd)" d="M 94.492889 357.19248 
L 893.070861 223.365142 
L 893.070861 223.365142 
" style="fill:none;stroke:#000000;stroke-linecap:round;stroke-opacity:0.4;stroke-width:1.5;"/>
   </g>
   <g id="line2d_94">
    <path clip-path="url(#p2bdb8153fd)" d="M 94.492889 259.859476 
L 893.070861 322.073711 
L 893.070861 322.073711 
" style="fill:none;stroke:#000000;stroke-linecap:round;stroke-opacity:0.4;stroke-width:1.5;"/>
   </g>
   <g id="line2d_95">
    <path clip-path="url(#p2bdb8153fd)" d="M 94.492889 286.033405 
L 893.070861 223.738843 
L 893.070861 223.738843 
" style="fill:none;stroke:#000000;stroke-linecap:round;stroke-opacity:0.4;stroke-width:1.5;"/>
   </g>
   <g id="line2d_96">
    <path clip-path="url(#p2bdb8153fd)" d="M 94.492889 335.393494 
L 893.070861 179.743293 
L 893.070861 179.743293 
" style="fill:none;stroke:#000000;stroke-linecap:round;stroke-opacity:0.4;stroke-width:1.5;"/>
   </g>
   <g id="line2d_97">
    <path clip-path="url(#p2bdb8153fd)" d="M 94.492889 372.462155 
L 893.070861 243.13655 
L 893.070861 243.13655 
" style="fill:none;stroke:#000000;stroke-linecap:round;stroke-opacity:0.4;stroke-width:1.5;"/>
   </g>
   <g id="line2d_98">
    <path clip-path="url(#p2bdb8153fd)" d="M 94.492889 436.151263 
L 893.070861 244.560134 
L 893.070861 244.560134 
" style="fill:none;stroke:#000000;stroke-linecap:round;stroke-opacity:0.4;stroke-width:1.5;"/>
   </g>
   <g id="line2d_99">
    <path clip-path="url(#p2bdb8153fd)" d="M 94.492889 226.445467 
L 893.070861 269.940868 
L 893.070861 269.940868 
" style="fill:none;stroke:#000000;stroke-linecap:round;stroke-opacity:0.4;stroke-width:1.5;"/>
   </g>
   <g id="line2d_100">
    <path clip-path="url(#p2bdb8153fd)" d="M 94.492889 329.523051 
L 893.070861 297.735786 
L 893.070861 297.735786 
" style="fill:none;stroke:#000000;stroke-linecap:round;stroke-opacity:0.4;stroke-width:1.5;"/>
   </g>
   <g id="line2d_101">
    <path clip-path="url(#p2bdb8153fd)" d="M 94.492889 218.585483 
L 893.070861 240.023412 
L 893.070861 240.023412 
" style="fill:none;stroke:#000000;stroke-linecap:round;stroke-opacity:0.4;stroke-width:1.5;"/>
   </g>
   <g id="line2d_102">
    <path clip-path="url(#p2bdb8153fd)" d="M 94.492889 206.740433 
L 893.070861 250.077537 
L 893.070861 250.077537 
" style="fill:none;stroke:#000000;stroke-linecap:round;stroke-opacity:0.4;stroke-width:1.5;"/>
   </g>
   <g id="line2d_103">
    <path clip-path="url(#p2bdb8153fd)" d="M 94.492889 335.414733 
L 893.070861 286.813925 
L 893.070861 286.813925 
" style="fill:none;stroke:#000000;stroke-linecap:round;stroke-opacity:0.4;stroke-width:1.5;"/>
   </g>
   <g id="line2d_104">
    <path clip-path="url(#p2bdb8153fd)" d="M 94.492889 221.102909 
L 893.070861 303.332729 
L 893.070861 303.332729 
" style="fill:none;stroke:#000000;stroke-linecap:round;stroke-opacity:0.4;stroke-width:1.5;"/>
   </g>
   <g id="line2d_105">
    <path clip-path="url(#p2bdb8153fd)" d="M 94.492889 312.127061 
L 893.070861 334.340987 
L 893.070861 334.340987 
" style="fill:none;stroke:#000000;stroke-linecap:round;stroke-opacity:0.4;stroke-width:1.5;"/>
   </g>
   <g id="line2d_106">
    <path clip-path="url(#p2bdb8153fd)" d="M 94.492889 235.801261 
L 893.070861 199.793806 
L 893.070861 199.793806 
" style="fill:none;stroke:#000000;stroke-linecap:round;stroke-opacity:0.4;stroke-width:1.5;"/>
   </g>
   <g id="line2d_107">
    <path clip-path="url(#p2bdb8153fd)" d="M 94.492889 513.966131 
L 893.070861 146.15219 
L 893.070861 146.15219 
" style="fill:none;stroke:#000000;stroke-linecap:round;stroke-opacity:0.4;stroke-width:1.5;"/>
   </g>
   <g id="line2d_108">
    <path clip-path="url(#p2bdb8153fd)" d="M 94.492889 125.979225 
L 893.070861 382.5822 
L 893.070861 382.5822 
" style="fill:none;stroke:#000000;stroke-linecap:round;stroke-opacity:0.4;stroke-width:1.5;"/>
   </g>
   <g id="line2d_109">
    <path clip-path="url(#p2bdb8153fd)" d="M 94.492889 150.269634 
L 893.070861 314.41141 
L 893.070861 314.41141 
" style="fill:none;stroke:#000000;stroke-linecap:round;stroke-opacity:0.4;stroke-width:1.5;"/>
   </g>
   <g id="line2d_110">
    <path clip-path="url(#p2bdb8153fd)" d="M 94.492889 409.070869 
L 893.070861 216.012496 
L 893.070861 216.012496 
" style="fill:none;stroke:#000000;stroke-linecap:round;stroke-opacity:0.4;stroke-width:1.5;"/>
   </g>
   <g id="line2d_111">
    <path clip-path="url(#p2bdb8153fd)" d="M 94.492889 273.32211 
L 893.070861 148.957242 
L 893.070861 148.957242 
" style="fill:none;stroke:#000000;stroke-linecap:round;stroke-opacity:0.4;stroke-width:1.5;"/>
   </g>
   <g id="line2d_112">
    <path clip-path="url(#p2bdb8153fd)" d="M 94.492889 244.056992 
L 893.070861 317.820286 
L 893.070861 317.820286 
" style="fill:none;stroke:#000000;stroke-linecap:round;stroke-opacity:0.4;stroke-width:1.5;"/>
   </g>
   <g id="line2d_113">
    <path clip-path="url(#p2bdb8153fd)" d="M 94.492889 188.409096 
L 893.070861 275.765105 
L 893.070861 275.765105 
" style="fill:none;stroke:#000000;stroke-linecap:round;stroke-opacity:0.4;stroke-width:1.5;"/>
   </g>
   <g id="line2d_114">
    <path clip-path="url(#p2bdb8153fd)" d="M 94.492889 97.398174 
L 893.070861 369.107011 
L 893.070861 369.107011 
" style="fill:none;stroke:#000000;stroke-linecap:round;stroke-opacity:0.4;stroke-width:1.5;"/>
   </g>
   <g id="line2d_115">
    <path clip-path="url(#p2bdb8153fd)" d="M 94.492889 151.134583 
L 893.070861 307.966226 
L 893.070861 307.966226 
" style="fill:none;stroke:#000000;stroke-linecap:round;stroke-opacity:0.4;stroke-width:1.5;"/>
   </g>
   <g id="line2d_116">
    <path clip-path="url(#p2bdb8153fd)" d="M 94.492889 439.354433 
L 893.070861 180.952559 
L 893.070861 180.952559 
" style="fill:none;stroke:#000000;stroke-linecap:round;stroke-opacity:0.4;stroke-width:1.5;"/>
   </g>
   <g id="line2d_117">
    <path clip-path="url(#p2bdb8153fd)" d="M 94.492889 368.585955 
L 893.070861 180.26578 
L 893.070861 180.26578 
" style="fill:none;stroke:#000000;stroke-linecap:round;stroke-opacity:0.4;stroke-width:1.5;"/>
   </g>
   <g id="line2d_118">
    <path clip-path="url(#p2bdb8153fd)" d="M 94.492889 177.959653 
L 893.070861 249.357429 
L 893.070861 249.357429 
" style="fill:none;stroke:#000000;stroke-linecap:round;stroke-opacity:0.4;stroke-width:1.5;"/>
   </g>
   <g id="line2d_119">
    <path clip-path="url(#p2bdb8153fd)" d="M 94.492889 375.879852 
L 893.070861 253.656013 
L 893.070861 253.656013 
" style="fill:none;stroke:#000000;stroke-linecap:round;stroke-opacity:0.4;stroke-width:1.5;"/>
   </g>
   <g id="line2d_120">
    <path clip-path="url(#p2bdb8153fd)" d="M 94.492889 212.191998 
L 893.070861 424.358932 
L 893.070861 424.358932 
" style="fill:none;stroke:#000000;stroke-linecap:round;stroke-opacity:0.4;stroke-width:1.5;"/>
   </g>
   <g id="line2d_121">
    <path clip-path="url(#p2bdb8153fd)" d="M 94.492889 324.392178 
L 893.070861 102.029909 
L 893.070861 102.029909 
" style="fill:none;stroke:#000000;stroke-linecap:round;stroke-opacity:0.4;stroke-width:1.5;"/>
   </g>
   <g id="line2d_122">
    <path clip-path="url(#p2bdb8153fd)" d="M 94.492889 330.106143 
L 893.070861 320.920687 
L 893.070861 320.920687 
" style="fill:none;stroke:#000000;stroke-linecap:round;stroke-opacity:0.4;stroke-width:1.5;"/>
   </g>
   <g id="line2d_123">
    <path clip-path="url(#p2bdb8153fd)" d="M 94.492889 373.426426 
L 893.070861 182.794029 
L 893.070861 182.794029 
" style="fill:none;stroke:#000000;stroke-linecap:round;stroke-opacity:0.4;stroke-width:1.5;"/>
   </g>
   <g id="line2d_124">
    <path clip-path="url(#p2bdb8153fd)" d="M 94.492889 263.030496 
L 893.070861 315.029887 
L 893.070861 315.029887 
" style="fill:none;stroke:#000000;stroke-linecap:round;stroke-opacity:0.4;stroke-width:1.5;"/>
   </g>
   <g id="line2d_125">
    <path clip-path="url(#p2bdb8153fd)" d="M 94.492889 275.429871 
L 893.070861 249.643985 
L 893.070861 249.643985 
" style="fill:none;stroke:#000000;stroke-linecap:round;stroke-opacity:0.4;stroke-width:1.5;"/>
   </g>
   <g id="line2d_126">
    <path clip-path="url(#p2bdb8153fd)" d="M 94.492889 262.134571 
L 893.070861 260.109593 
L 893.070861 260.109593 
" style="fill:none;stroke:#000000;stroke-linecap:round;stroke-opacity:0.4;stroke-width:1.5;"/>
   </g>
   <g id="line2d_127">
    <path clip-path="url(#p2bdb8153fd)" d="M 94.492889 158.794065 
L 893.070861 338.749901 
L 893.070861 338.749901 
" style="fill:none;stroke:#000000;stroke-linecap:round;stroke-opacity:0.4;stroke-width:1.5;"/>
   </g>
   <g id="line2d_128">
    <path clip-path="url(#p2bdb8153fd)" d="M 94.492889 283.909625 
L 893.070861 280.009633 
L 893.070861 280.009633 
" style="fill:none;stroke:#000000;stroke-linecap:round;stroke-opacity:0.4;stroke-width:1.5;"/>
   </g>
   <g id="line2d_129">
    <path clip-path="url(#p2bdb8153fd)" d="M 94.492889 279.319805 
L 893.070861 265.919506 
L 893.070861 265.919506 
" style="fill:none;stroke:#0000ff;stroke-linecap:round;stroke-opacity:0.2;stroke-width:1.5;"/>
   </g>
   <g id="line2d_130">
    <path clip-path="url(#p2bdb8153fd)" d="M 94.492889 273.386801 
L 893.070861 276.243615 
L 893.070861 276.243615 
" style="fill:none;stroke:#0000ff;stroke-linecap:round;stroke-opacity:0.2;stroke-width:1.5;"/>
   </g>
   <g id="line2d_131">
    <path clip-path="url(#p2bdb8153fd)" d="M 94.492889 268.077871 
L 893.070861 266.635693 
L 893.070861 266.635693 
" style="fill:none;stroke:#0000ff;stroke-linecap:round;stroke-opacity:0.2;stroke-width:1.5;"/>
   </g>
   <g id="line2d_132">
    <path clip-path="url(#p2bdb8153fd)" d="M 94.492889 272.916796 
L 893.070861 276.136516 
L 893.070861 276.136516 
" style="fill:none;stroke:#0000ff;stroke-linecap:round;stroke-opacity:0.2;stroke-width:1.5;"/>
   </g>
   <g id="line2d_133">
    <path clip-path="url(#p2bdb8153fd)" d="M 94.492889 278.568376 
L 893.070861 258.968063 
L 893.070861 258.968063 
" style="fill:none;stroke:#0000ff;stroke-linecap:round;stroke-opacity:0.2;stroke-width:1.5;"/>
   </g>
   <g id="line2d_134">
    <path clip-path="url(#p2bdb8153fd)" d="M 94.492889 262.57093 
L 893.070861 284.353836 
L 893.070861 284.353836 
" style="fill:none;stroke:#0000ff;stroke-linecap:round;stroke-opacity:0.2;stroke-width:1.5;"/>
   </g>
   <g id="line2d_135">
    <path clip-path="url(#p2bdb8153fd)" d="M 94.492889 273.092357 
L 893.070861 261.41778 
L 893.070861 261.41778 
" style="fill:none;stroke:#0000ff;stroke-linecap:round;stroke-opacity:0.2;stroke-width:1.5;"/>
   </g>
   <g id="line2d_136">
    <path clip-path="url(#p2bdb8153fd)" d="M 94.492889 262.323835 
L 893.070861 272.617586 
L 893.070861 272.617586 
" style="fill:none;stroke:#0000ff;stroke-linecap:round;stroke-opacity:0.2;stroke-width:1.5;"/>
   </g>
   <g id="line2d_137">
    <path clip-path="url(#p2bdb8153fd)" d="M 94.492889 259.709933 
L 893.070861 279.211574 
L 893.070861 279.211574 
" style="fill:none;stroke:#0000ff;stroke-linecap:round;stroke-opacity:0.2;stroke-width:1.5;"/>
   </g>
   <g id="line2d_138">
    <path clip-path="url(#p2bdb8153fd)" d="M 94.492889 275.904902 
L 893.070861 263.766305 
L 893.070861 263.766305 
" style="fill:none;stroke:#0000ff;stroke-linecap:round;stroke-opacity:0.2;stroke-width:1.5;"/>
   </g>
   <g id="line2d_139">
    <path clip-path="url(#p2bdb8153fd)" d="M 94.492889 285.952963 
L 893.070861 254.186786 
L 893.070861 254.186786 
" style="fill:none;stroke:#0000ff;stroke-linecap:round;stroke-opacity:0.2;stroke-width:1.5;"/>
   </g>
   <g id="line2d_140">
    <path clip-path="url(#p2bdb8153fd)" d="M 94.492889 261.783864 
L 893.070861 276.967309 
L 893.070861 276.967309 
" style="fill:none;stroke:#0000ff;stroke-linecap:round;stroke-opacity:0.2;stroke-width:1.5;"/>
   </g>
   <g id="line2d_141">
    <path clip-path="url(#p2bdb8153fd)" d="M 94.492889 270.34052 
L 893.070861 273.644229 
L 893.070861 273.644229 
" style="fill:none;stroke:#0000ff;stroke-linecap:round;stroke-opacity:0.2;stroke-width:1.5;"/>
   </g>
   <g id="line2d_142">
    <path clip-path="url(#p2bdb8153fd)" d="M 94.492889 277.032528 
L 893.070861 258.441082 
L 893.070861 258.441082 
" style="fill:none;stroke:#0000ff;stroke-linecap:round;stroke-opacity:0.2;stroke-width:1.5;"/>
   </g>
   <g id="line2d_143">
    <path clip-path="url(#p2bdb8153fd)" d="M 94.492889 265.472954 
L 893.070861 283.651973 
L 893.070861 283.651973 
" style="fill:none;stroke:#0000ff;stroke-linecap:round;stroke-opacity:0.2;stroke-width:1.5;"/>
   </g>
   <g id="line2d_144">
    <path clip-path="url(#p2bdb8153fd)" d="M 94.492889 277.823529 
L 893.070861 257.591227 
L 893.070861 257.591227 
" style="fill:none;stroke:#0000ff;stroke-linecap:round;stroke-opacity:0.2;stroke-width:1.5;"/>
   </g>
   <g id="line2d_145">
    <path clip-path="url(#p2bdb8153fd)" d="M 94.492889 263.305094 
L 893.070861 285.993843 
L 893.070861 285.993843 
" style="fill:none;stroke:#0000ff;stroke-linecap:round;stroke-opacity:0.2;stroke-width:1.5;"/>
   </g>
   <g id="line2d_146">
    <path clip-path="url(#p2bdb8153fd)" d="M 94.492889 275.606392 
L 893.070861 260.865554 
L 893.070861 260.865554 
" style="fill:none;stroke:#0000ff;stroke-linecap:round;stroke-opacity:0.2;stroke-width:1.5;"/>
   </g>
   <g id="line2d_147">
    <path clip-path="url(#p2bdb8153fd)" d="M 94.492889 251.515972 
L 893.070861 288.117068 
L 893.070861 288.117068 
" style="fill:none;stroke:#0000ff;stroke-linecap:round;stroke-opacity:0.2;stroke-width:1.5;"/>
   </g>
   <g id="line2d_148">
    <path clip-path="url(#p2bdb8153fd)" d="M 94.492889 261.775482 
L 893.070861 279.527486 
L 893.070861 279.527486 
" style="fill:none;stroke:#0000ff;stroke-linecap:round;stroke-opacity:0.2;stroke-width:1.5;"/>
   </g>
   <g id="line2d_149">
    <path clip-path="url(#p2bdb8153fd)" d="M 94.492889 265.421325 
L 893.070861 275.946546 
L 893.070861 275.946546 
" style="fill:none;stroke:#0000ff;stroke-linecap:round;stroke-opacity:0.2;stroke-width:1.5;"/>
   </g>
   <g id="line2d_150">
    <path clip-path="url(#p2bdb8153fd)" d="M 94.492889 268.493969 
L 893.070861 277.448261 
L 893.070861 277.448261 
" style="fill:none;stroke:#0000ff;stroke-linecap:round;stroke-opacity:0.2;stroke-width:1.5;"/>
   </g>
   <g id="line2d_151">
    <path clip-path="url(#p2bdb8153fd)" d="M 94.492889 272.13058 
L 893.070861 271.411185 
L 893.070861 271.411185 
" style="fill:none;stroke:#0000ff;stroke-linecap:round;stroke-opacity:0.2;stroke-width:1.5;"/>
   </g>
   <g id="line2d_152">
    <path clip-path="url(#p2bdb8153fd)" d="M 94.492889 270.942139 
L 893.070861 270.029587 
L 893.070861 270.029587 
" style="fill:none;stroke:#0000ff;stroke-linecap:round;stroke-opacity:0.2;stroke-width:1.5;"/>
   </g>
   <g id="line2d_153">
    <path clip-path="url(#p2bdb8153fd)" d="M 94.492889 273.858723 
L 893.070861 273.533932 
L 893.070861 273.533932 
" style="fill:none;stroke:#0000ff;stroke-linecap:round;stroke-opacity:0.2;stroke-width:1.5;"/>
   </g>
   <g id="line2d_154">
    <path clip-path="url(#p2bdb8153fd)" d="M 94.492889 267.036916 
L 893.070861 270.935119 
L 893.070861 270.935119 
" style="fill:none;stroke:#0000ff;stroke-linecap:round;stroke-opacity:0.2;stroke-width:1.5;"/>
   </g>
   <g id="line2d_155">
    <path clip-path="url(#p2bdb8153fd)" d="M 94.492889 267.977064 
L 893.070861 276.818074 
L 893.070861 276.818074 
" style="fill:none;stroke:#0000ff;stroke-linecap:round;stroke-opacity:0.2;stroke-width:1.5;"/>
   </g>
   <g id="line2d_156">
    <path clip-path="url(#p2bdb8153fd)" d="M 94.492889 268.719654 
L 893.070861 270.301744 
L 893.070861 270.301744 
" style="fill:none;stroke:#0000ff;stroke-linecap:round;stroke-opacity:0.2;stroke-width:1.5;"/>
   </g>
   <g id="line2d_157">
    <path clip-path="url(#p2bdb8153fd)" d="M 94.492889 269.66212 
L 893.070861 279.161412 
L 893.070861 279.161412 
" style="fill:none;stroke:#0000ff;stroke-linecap:round;stroke-opacity:0.2;stroke-width:1.5;"/>
   </g>
   <g id="line2d_158">
    <path clip-path="url(#p2bdb8153fd)" d="M 94.492889 271.768281 
L 893.070861 278.775338 
L 893.070861 278.775338 
" style="fill:none;stroke:#0000ff;stroke-linecap:round;stroke-opacity:0.2;stroke-width:1.5;"/>
   </g>
   <g id="line2d_159">
    <path clip-path="url(#p2bdb8153fd)" d="M 94.492889 270.22808 
L 893.070861 263.766336 
L 893.070861 263.766336 
" style="fill:none;stroke:#0000ff;stroke-linecap:round;stroke-opacity:0.2;stroke-width:1.5;"/>
   </g>
   <g id="line2d_160">
    <path clip-path="url(#p2bdb8153fd)" d="M 94.492889 277.346023 
L 893.070861 276.794063 
L 893.070861 276.794063 
" style="fill:none;stroke:#0000ff;stroke-linecap:round;stroke-opacity:0.2;stroke-width:1.5;"/>
   </g>
   <g id="line2d_161">
    <path clip-path="url(#p2bdb8153fd)" d="M 94.492889 260.333293 
L 893.070861 272.496345 
L 893.070861 272.496345 
" style="fill:none;stroke:#0000ff;stroke-linecap:round;stroke-opacity:0.2;stroke-width:1.5;"/>
   </g>
   <g id="line2d_162">
    <path clip-path="url(#p2bdb8153fd)" d="M 94.492889 257.9058 
L 893.070861 281.677709 
L 893.070861 281.677709 
" style="fill:none;stroke:#0000ff;stroke-linecap:round;stroke-opacity:0.2;stroke-width:1.5;"/>
   </g>
   <g id="line2d_163">
    <path clip-path="url(#p2bdb8153fd)" d="M 94.492889 280.146459 
L 893.070861 261.039178 
L 893.070861 261.039178 
" style="fill:none;stroke:#0000ff;stroke-linecap:round;stroke-opacity:0.2;stroke-width:1.5;"/>
   </g>
   <g id="line2d_164">
    <path clip-path="url(#p2bdb8153fd)" d="M 94.492889 247.735722 
L 893.070861 287.725442 
L 893.070861 287.725442 
" style="fill:none;stroke:#0000ff;stroke-linecap:round;stroke-opacity:0.2;stroke-width:1.5;"/>
   </g>
   <g id="line2d_165">
    <path clip-path="url(#p2bdb8153fd)" d="M 94.492889 263.489562 
L 893.070861 279.763502 
L 893.070861 279.763502 
" style="fill:none;stroke:#0000ff;stroke-linecap:round;stroke-opacity:0.2;stroke-width:1.5;"/>
   </g>
   <g id="line2d_166">
    <path clip-path="url(#p2bdb8153fd)" d="M 94.492889 257.030261 
L 893.070861 282.096515 
L 893.070861 282.096515 
" style="fill:none;stroke:#0000ff;stroke-linecap:round;stroke-opacity:0.2;stroke-width:1.5;"/>
   </g>
   <g id="line2d_167">
    <path clip-path="url(#p2bdb8153fd)" d="M 94.492889 284.841509 
L 893.070861 260.590835 
L 893.070861 260.590835 
" style="fill:none;stroke:#0000ff;stroke-linecap:round;stroke-opacity:0.2;stroke-width:1.5;"/>
   </g>
   <g id="line2d_168">
    <path clip-path="url(#p2bdb8153fd)" d="M 94.492889 253.448633 
L 893.070861 285.344345 
L 893.070861 285.344345 
" style="fill:none;stroke:#0000ff;stroke-linecap:round;stroke-opacity:0.2;stroke-width:1.5;"/>
   </g>
   <g id="line2d_169">
    <path clip-path="url(#p2bdb8153fd)" d="M 94.492889 254.21217 
L 893.070861 280.001184 
L 893.070861 280.001184 
" style="fill:none;stroke:#0000ff;stroke-linecap:round;stroke-opacity:0.2;stroke-width:1.5;"/>
   </g>
   <g id="line2d_170">
    <path clip-path="url(#p2bdb8153fd)" d="M 94.492889 259.261402 
L 893.070861 283.190012 
L 893.070861 283.190012 
" style="fill:none;stroke:#0000ff;stroke-linecap:round;stroke-opacity:0.2;stroke-width:1.5;"/>
   </g>
   <g id="line2d_171">
    <path clip-path="url(#p2bdb8153fd)" d="M 94.492889 282.604633 
L 893.070861 259.482509 
L 893.070861 259.482509 
" style="fill:none;stroke:#0000ff;stroke-linecap:round;stroke-opacity:0.2;stroke-width:1.5;"/>
   </g>
   <g id="line2d_172">
    <path clip-path="url(#p2bdb8153fd)" d="M 94.492889 265.900741 
L 893.070861 265.236832 
L 893.070861 265.236832 
" style="fill:none;stroke:#0000ff;stroke-linecap:round;stroke-opacity:0.2;stroke-width:1.5;"/>
   </g>
   <g id="line2d_173">
    <path clip-path="url(#p2bdb8153fd)" d="M 94.492889 259.783516 
L 893.070861 271.538745 
L 893.070861 271.538745 
" style="fill:none;stroke:#0000ff;stroke-linecap:round;stroke-opacity:0.2;stroke-width:1.5;"/>
   </g>
   <g id="line2d_174">
    <path clip-path="url(#p2bdb8153fd)" d="M 94.492889 264.244132 
L 893.070861 281.300058 
L 893.070861 281.300058 
" style="fill:none;stroke:#0000ff;stroke-linecap:round;stroke-opacity:0.2;stroke-width:1.5;"/>
   </g>
   <g id="line2d_175">
    <path clip-path="url(#p2bdb8153fd)" d="M 94.492889 265.413493 
L 893.070861 278.361194 
L 893.070861 278.361194 
" style="fill:none;stroke:#0000ff;stroke-linecap:round;stroke-opacity:0.2;stroke-width:1.5;"/>
   </g>
   <g id="line2d_176">
    <path clip-path="url(#p2bdb8153fd)" d="M 94.492889 267.722095 
L 893.070861 272.954593 
L 893.070861 272.954593 
" style="fill:none;stroke:#0000ff;stroke-linecap:round;stroke-opacity:0.2;stroke-width:1.5;"/>
   </g>
   <g id="line2d_177">
    <path clip-path="url(#p2bdb8153fd)" d="M 94.492889 274.225965 
L 893.070861 269.712824 
L 893.070861 269.712824 
" style="fill:none;stroke:#0000ff;stroke-linecap:round;stroke-opacity:0.2;stroke-width:1.5;"/>
   </g>
   <g id="line2d_178">
    <path clip-path="url(#p2bdb8153fd)" d="M 94.492889 267.664237 
L 893.070861 275.566867 
L 893.070861 275.566867 
" style="fill:none;stroke:#0000ff;stroke-linecap:round;stroke-opacity:0.2;stroke-width:1.5;"/>
   </g>
   <g id="line2d_179">
    <path clip-path="url(#p2bdb8153fd)" d="M 94.492889 275.91101 
L 893.070861 256.393426 
L 893.070861 256.393426 
" style="fill:none;stroke:#0000ff;stroke-linecap:round;stroke-opacity:0.2;stroke-width:1.5;"/>
   </g>
   <g id="line2d_180">
    <path clip-path="url(#p2bdb8153fd)" d="M 94.492889 280.78718 
L 893.070861 263.738035 
L 893.070861 263.738035 
" style="fill:none;stroke:#0000ff;stroke-linecap:round;stroke-opacity:0.2;stroke-width:1.5;"/>
   </g>
   <g id="line2d_181">
    <path clip-path="url(#p2bdb8153fd)" d="M 94.492889 284.066564 
L 893.070861 258.462209 
L 893.070861 258.462209 
" style="fill:none;stroke:#0000ff;stroke-linecap:round;stroke-opacity:0.2;stroke-width:1.5;"/>
   </g>
   <g id="line2d_182">
    <path clip-path="url(#p2bdb8153fd)" d="M 94.492889 285.727179 
L 893.070861 259.411 
L 893.070861 259.411 
" style="fill:none;stroke:#0000ff;stroke-linecap:round;stroke-opacity:0.2;stroke-width:1.5;"/>
   </g>
   <g id="line2d_183">
    <path clip-path="url(#p2bdb8153fd)" d="M 94.492889 271.000018 
L 893.070861 273.993512 
L 893.070861 273.993512 
" style="fill:none;stroke:#0000ff;stroke-linecap:round;stroke-opacity:0.2;stroke-width:1.5;"/>
   </g>
   <g id="line2d_184">
    <path clip-path="url(#p2bdb8153fd)" d="M 94.492889 274.070355 
L 893.070861 267.248515 
L 893.070861 267.248515 
" style="fill:none;stroke:#0000ff;stroke-linecap:round;stroke-opacity:0.2;stroke-width:1.5;"/>
   </g>
   <g id="line2d_185">
    <path clip-path="url(#p2bdb8153fd)" d="M 94.492889 268.364401 
L 893.070861 274.957739 
L 893.070861 274.957739 
" style="fill:none;stroke:#0000ff;stroke-linecap:round;stroke-opacity:0.2;stroke-width:1.5;"/>
   </g>
   <g id="line2d_186">
    <path clip-path="url(#p2bdb8153fd)" d="M 94.492889 274.492068 
L 893.070861 269.071567 
L 893.070861 269.071567 
" style="fill:none;stroke:#0000ff;stroke-linecap:round;stroke-opacity:0.2;stroke-width:1.5;"/>
   </g>
   <g id="line2d_187">
    <path clip-path="url(#p2bdb8153fd)" d="M 94.492889 264.647809 
L 893.070861 272.417779 
L 893.070861 272.417779 
" style="fill:none;stroke:#0000ff;stroke-linecap:round;stroke-opacity:0.2;stroke-width:1.5;"/>
   </g>
   <g id="line2d_188">
    <path clip-path="url(#p2bdb8153fd)" d="M 94.492889 288.093807 
L 893.070861 249.95445 
L 893.070861 249.95445 
" style="fill:none;stroke:#0000ff;stroke-linecap:round;stroke-opacity:0.2;stroke-width:1.5;"/>
   </g>
   <g id="line2d_189">
    <path clip-path="url(#p2bdb8153fd)" d="M 94.492889 252.260103 
L 893.070861 281.478212 
L 893.070861 281.478212 
" style="fill:none;stroke:#0000ff;stroke-linecap:round;stroke-opacity:0.2;stroke-width:1.5;"/>
   </g>
   <g id="line2d_190">
    <path clip-path="url(#p2bdb8153fd)" d="M 94.492889 276.448749 
L 893.070861 274.591981 
L 893.070861 274.591981 
" style="fill:none;stroke:#0000ff;stroke-linecap:round;stroke-opacity:0.2;stroke-width:1.5;"/>
   </g>
   <g id="line2d_191">
    <path clip-path="url(#p2bdb8153fd)" d="M 94.492889 259.497947 
L 893.070861 281.845308 
L 893.070861 281.845308 
" style="fill:none;stroke:#0000ff;stroke-linecap:round;stroke-opacity:0.2;stroke-width:1.5;"/>
   </g>
   <g id="line2d_192">
    <path clip-path="url(#p2bdb8153fd)" d="M 94.492889 283.3413 
L 893.070861 259.765582 
L 893.070861 259.765582 
" style="fill:none;stroke:#0000ff;stroke-linecap:round;stroke-opacity:0.2;stroke-width:1.5;"/>
   </g>
   <g id="line2d_193">
    <path clip-path="url(#p2bdb8153fd)" d="M 94.492889 266.323402 
L 893.070861 268.172 
L 893.070861 268.172 
" style="fill:none;stroke:#0000ff;stroke-linecap:round;stroke-opacity:0.2;stroke-width:1.5;"/>
   </g>
   <g id="line2d_194">
    <path clip-path="url(#p2bdb8153fd)" d="M 94.492889 275.433222 
L 893.070861 273.953974 
L 893.070861 273.953974 
" style="fill:none;stroke:#0000ff;stroke-linecap:round;stroke-opacity:0.2;stroke-width:1.5;"/>
   </g>
   <g id="line2d_195">
    <path clip-path="url(#p2bdb8153fd)" d="M 94.492889 271.894966 
L 893.070861 269.868273 
L 893.070861 269.868273 
" style="fill:none;stroke:#0000ff;stroke-linecap:round;stroke-opacity:0.2;stroke-width:1.5;"/>
   </g>
   <g id="line2d_196">
    <path clip-path="url(#p2bdb8153fd)" d="M 94.492889 264.924423 
L 893.070861 284.12873 
L 893.070861 284.12873 
" style="fill:none;stroke:#0000ff;stroke-linecap:round;stroke-opacity:0.2;stroke-width:1.5;"/>
   </g>
   <g id="line2d_197">
    <path clip-path="url(#p2bdb8153fd)" d="M 94.492889 283.496693 
L 893.070861 258.089918 
L 893.070861 258.089918 
" style="fill:none;stroke:#0000ff;stroke-linecap:round;stroke-opacity:0.2;stroke-width:1.5;"/>
   </g>
   <g id="line2d_198">
    <path clip-path="url(#p2bdb8153fd)" d="M 94.492889 274.461467 
L 893.070861 261.695917 
L 893.070861 261.695917 
" style="fill:none;stroke:#0000ff;stroke-linecap:round;stroke-opacity:0.2;stroke-width:1.5;"/>
   </g>
   <g id="line2d_199">
    <path clip-path="url(#p2bdb8153fd)" d="M 94.492889 270.004007 
L 893.070861 270.978983 
L 893.070861 270.978983 
" style="fill:none;stroke:#0000ff;stroke-linecap:round;stroke-opacity:0.2;stroke-width:1.5;"/>
   </g>
   <g id="line2d_200">
    <path clip-path="url(#p2bdb8153fd)" d="M 94.492889 274.740005 
L 893.070861 270.989249 
L 893.070861 270.989249 
" style="fill:none;stroke:#0000ff;stroke-linecap:round;stroke-opacity:0.2;stroke-width:1.5;"/>
   </g>
   <g id="line2d_201">
    <path clip-path="url(#p2bdb8153fd)" d="M 94.492889 271.875964 
L 893.070861 262.930751 
L 893.070861 262.930751 
" style="fill:none;stroke:#0000ff;stroke-linecap:round;stroke-opacity:0.2;stroke-width:1.5;"/>
   </g>
   <g id="line2d_202">
    <path clip-path="url(#p2bdb8153fd)" d="M 94.492889 264.66791 
L 893.070861 285.119859 
L 893.070861 285.119859 
" style="fill:none;stroke:#0000ff;stroke-linecap:round;stroke-opacity:0.2;stroke-width:1.5;"/>
   </g>
   <g id="line2d_203">
    <path clip-path="url(#p2bdb8153fd)" d="M 94.492889 263.657561 
L 893.070861 278.147187 
L 893.070861 278.147187 
" style="fill:none;stroke:#0000ff;stroke-linecap:round;stroke-opacity:0.2;stroke-width:1.5;"/>
   </g>
   <g id="line2d_204">
    <path clip-path="url(#p2bdb8153fd)" d="M 94.492889 269.679551 
L 893.070861 273.652001 
L 893.070861 273.652001 
" style="fill:none;stroke:#0000ff;stroke-linecap:round;stroke-opacity:0.2;stroke-width:1.5;"/>
   </g>
   <g id="line2d_205">
    <path clip-path="url(#p2bdb8153fd)" d="M 94.492889 264.305708 
L 893.070861 273.712508 
L 893.070861 273.712508 
" style="fill:none;stroke:#0000ff;stroke-linecap:round;stroke-opacity:0.2;stroke-width:1.5;"/>
   </g>
   <g id="line2d_206">
    <path clip-path="url(#p2bdb8153fd)" d="M 94.492889 276.852105 
L 893.070861 272.46147 
L 893.070861 272.46147 
" style="fill:none;stroke:#0000ff;stroke-linecap:round;stroke-opacity:0.2;stroke-width:1.5;"/>
   </g>
   <g id="line2d_207">
    <path clip-path="url(#p2bdb8153fd)" d="M 94.492889 271.192256 
L 893.070861 264.944608 
L 893.070861 264.944608 
" style="fill:none;stroke:#0000ff;stroke-linecap:round;stroke-opacity:0.2;stroke-width:1.5;"/>
   </g>
   <g id="line2d_208">
    <path clip-path="url(#p2bdb8153fd)" d="M 94.492889 270.752306 
L 893.070861 277.692843 
L 893.070861 277.692843 
" style="fill:none;stroke:#0000ff;stroke-linecap:round;stroke-opacity:0.2;stroke-width:1.5;"/>
   </g>
   <g id="line2d_209">
    <path clip-path="url(#p2bdb8153fd)" d="M 94.492889 272.827734 
L 893.070861 259.313071 
L 893.070861 259.313071 
" style="fill:none;stroke:#0000ff;stroke-linecap:round;stroke-opacity:0.2;stroke-width:1.5;"/>
   </g>
   <g id="line2d_210">
    <path clip-path="url(#p2bdb8153fd)" d="M 94.492889 270.178217 
L 893.070861 282.129686 
L 893.070861 282.129686 
" style="fill:none;stroke:#0000ff;stroke-linecap:round;stroke-opacity:0.2;stroke-width:1.5;"/>
   </g>
   <g id="line2d_211">
    <path clip-path="url(#p2bdb8153fd)" d="M 94.492889 275.330207 
L 893.070861 280.162783 
L 893.070861 280.162783 
" style="fill:none;stroke:#0000ff;stroke-linecap:round;stroke-opacity:0.2;stroke-width:1.5;"/>
   </g>
   <g id="line2d_212">
    <path clip-path="url(#p2bdb8153fd)" d="M 94.492889 273.652413 
L 893.070861 261.625057 
L 893.070861 261.625057 
" style="fill:none;stroke:#0000ff;stroke-linecap:round;stroke-opacity:0.2;stroke-width:1.5;"/>
   </g>
   <g id="line2d_213">
    <path clip-path="url(#p2bdb8153fd)" d="M 94.492889 265.860709 
L 893.070861 282.262744 
L 893.070861 282.262744 
" style="fill:none;stroke:#0000ff;stroke-linecap:round;stroke-opacity:0.2;stroke-width:1.5;"/>
   </g>
   <g id="line2d_214">
    <path clip-path="url(#p2bdb8153fd)" d="M 94.492889 273.183432 
L 893.070861 264.651234 
L 893.070861 264.651234 
" style="fill:none;stroke:#0000ff;stroke-linecap:round;stroke-opacity:0.2;stroke-width:1.5;"/>
   </g>
   <g id="line2d_215">
    <path clip-path="url(#p2bdb8153fd)" d="M 94.492889 269.119716 
L 893.070861 277.792133 
L 893.070861 277.792133 
" style="fill:none;stroke:#0000ff;stroke-linecap:round;stroke-opacity:0.2;stroke-width:1.5;"/>
   </g>
   <g id="line2d_216">
    <path clip-path="url(#p2bdb8153fd)" d="M 94.492889 285.171336 
L 893.070861 254.17417 
L 893.070861 254.17417 
" style="fill:none;stroke:#0000ff;stroke-linecap:round;stroke-opacity:0.2;stroke-width:1.5;"/>
   </g>
   <g id="line2d_217">
    <path clip-path="url(#p2bdb8153fd)" d="M 94.492889 279.229182 
L 893.070861 260.468076 
L 893.070861 260.468076 
" style="fill:none;stroke:#0000ff;stroke-linecap:round;stroke-opacity:0.2;stroke-width:1.5;"/>
   </g>
   <g id="line2d_218">
    <path clip-path="url(#p2bdb8153fd)" d="M 94.492889 262.6248 
L 893.070861 282.020843 
L 893.070861 282.020843 
" style="fill:none;stroke:#0000ff;stroke-linecap:round;stroke-opacity:0.2;stroke-width:1.5;"/>
   </g>
   <g id="line2d_219">
    <path clip-path="url(#p2bdb8153fd)" d="M 94.492889 257.763508 
L 893.070861 296.547586 
L 893.070861 296.547586 
" style="fill:none;stroke:#0000ff;stroke-linecap:round;stroke-opacity:0.2;stroke-width:1.5;"/>
   </g>
   <g id="line2d_220">
    <path clip-path="url(#p2bdb8153fd)" d="M 94.492889 287.524641 
L 893.070861 247.841711 
L 893.070861 247.841711 
" style="fill:none;stroke:#0000ff;stroke-linecap:round;stroke-opacity:0.2;stroke-width:1.5;"/>
   </g>
   <g id="line2d_221">
    <path clip-path="url(#p2bdb8153fd)" d="M 94.492889 264.351689 
L 893.070861 281.919801 
L 893.070861 281.919801 
" style="fill:none;stroke:#0000ff;stroke-linecap:round;stroke-opacity:0.2;stroke-width:1.5;"/>
   </g>
   <g id="line2d_222">
    <path clip-path="url(#p2bdb8153fd)" d="M 94.492889 271.659222 
L 893.070861 263.968318 
L 893.070861 263.968318 
" style="fill:none;stroke:#0000ff;stroke-linecap:round;stroke-opacity:0.2;stroke-width:1.5;"/>
   </g>
   <g id="line2d_223">
    <path clip-path="url(#p2bdb8153fd)" d="M 94.492889 276.944689 
L 893.070861 264.694482 
L 893.070861 264.694482 
" style="fill:none;stroke:#0000ff;stroke-linecap:round;stroke-opacity:0.2;stroke-width:1.5;"/>
   </g>
   <g id="line2d_224">
    <path clip-path="url(#p2bdb8153fd)" d="M 94.492889 279.097188 
L 893.070861 269.150849 
L 893.070861 269.150849 
" style="fill:none;stroke:#0000ff;stroke-linecap:round;stroke-opacity:0.2;stroke-width:1.5;"/>
   </g>
   <g id="line2d_225">
    <path clip-path="url(#p2bdb8153fd)" d="M 94.492889 259.89872 
L 893.070861 281.925204 
L 893.070861 281.925204 
" style="fill:none;stroke:#0000ff;stroke-linecap:round;stroke-opacity:0.2;stroke-width:1.5;"/>
   </g>
   <g id="line2d_226">
    <path clip-path="url(#p2bdb8153fd)" d="M 94.492889 272.66169 
L 893.070861 268.044467 
L 893.070861 268.044467 
" style="fill:none;stroke:#0000ff;stroke-linecap:round;stroke-opacity:0.2;stroke-width:1.5;"/>
   </g>
   <g id="line2d_227">
    <path clip-path="url(#p2bdb8153fd)" d="M 94.492889 278.563121 
L 893.070861 267.147131 
L 893.070861 267.147131 
" style="fill:none;stroke:#0000ff;stroke-linecap:round;stroke-opacity:0.2;stroke-width:1.5;"/>
   </g>
   <g id="line2d_228">
    <path clip-path="url(#p2bdb8153fd)" d="M 94.492889 276.764596 
L 893.070861 264.798157 
L 893.070861 264.798157 
" style="fill:none;stroke:#0000ff;stroke-linecap:round;stroke-opacity:0.2;stroke-width:1.5;"/>
   </g>
   <g id="patch_3">
    <path d="M 54.56399 537.433198 
L 54.56399 21.15774 
" style="fill:none;"/>
   </g>
   <g id="patch_4">
    <path d="M 932.99976 537.433198 
L 932.99976 21.15774 
" style="fill:none;"/>
   </g>
   <g id="patch_5">
    <path d="M 54.56399 537.433198 
L 932.99976 537.433198 
" style="fill:none;"/>
   </g>
   <g id="patch_6">
    <path d="M 54.56399 21.15774 
L 932.99976 21.15774 
" style="fill:none;"/>
   </g>
   <g id="text_17">
    <!-- Prior predictive checks - - Uninformative (black) vs weakly informative (blue) -->
    <g style="fill:#262626;" transform="translate(188.805625 15.15774)scale(0.16 -0.16)">
     <defs>
      <path d="M 19.671875 64.796875 
L 19.671875 37.40625 
L 32.078125 37.40625 
Q 38.96875 37.40625 42.71875 40.96875 
Q 46.484375 44.53125 46.484375 51.125 
Q 46.484375 57.671875 42.71875 61.234375 
Q 38.96875 64.796875 32.078125 64.796875 
z
M 9.8125 72.90625 
L 32.078125 72.90625 
Q 44.34375 72.90625 50.609375 67.359375 
Q 56.890625 61.8125 56.890625 51.125 
Q 56.890625 40.328125 50.609375 34.8125 
Q 44.34375 29.296875 32.078125 29.296875 
L 19.671875 29.296875 
L 19.671875 0 
L 9.8125 0 
z
" id="DejaVuSans-80"/>
      <path d="M 18.109375 8.203125 
L 18.109375 -20.796875 
L 9.078125 -20.796875 
L 9.078125 54.6875 
L 18.109375 54.6875 
L 18.109375 46.390625 
Q 20.953125 51.265625 25.265625 53.625 
Q 29.59375 56 35.59375 56 
Q 45.5625 56 51.78125 48.09375 
Q 58.015625 40.1875 58.015625 27.296875 
Q 58.015625 14.40625 51.78125 6.484375 
Q 45.5625 -1.421875 35.59375 -1.421875 
Q 29.59375 -1.421875 25.265625 0.953125 
Q 20.953125 3.328125 18.109375 8.203125 
z
M 48.6875 27.296875 
Q 48.6875 37.203125 44.609375 42.84375 
Q 40.53125 48.484375 33.40625 48.484375 
Q 26.265625 48.484375 22.1875 42.84375 
Q 18.109375 37.203125 18.109375 27.296875 
Q 18.109375 17.390625 22.1875 11.75 
Q 26.265625 6.109375 33.40625 6.109375 
Q 40.53125 6.109375 44.609375 11.75 
Q 48.6875 17.390625 48.6875 27.296875 
z
" id="DejaVuSans-112"/>
      <path d="M 2.984375 54.6875 
L 12.5 54.6875 
L 29.59375 8.796875 
L 46.6875 54.6875 
L 56.203125 54.6875 
L 35.6875 0 
L 23.484375 0 
z
" id="DejaVuSans-118"/>
      <path d="M 54.890625 33.015625 
L 54.890625 0 
L 45.90625 0 
L 45.90625 32.71875 
Q 45.90625 40.484375 42.875 44.328125 
Q 39.84375 48.1875 33.796875 48.1875 
Q 26.515625 48.1875 22.3125 43.546875 
Q 18.109375 38.921875 18.109375 30.90625 
L 18.109375 0 
L 9.078125 0 
L 9.078125 75.984375 
L 18.109375 75.984375 
L 18.109375 46.1875 
Q 21.34375 51.125 25.703125 53.5625 
Q 30.078125 56 35.796875 56 
Q 45.21875 56 50.046875 50.171875 
Q 54.890625 44.34375 54.890625 33.015625 
z
" id="DejaVuSans-104"/>
      <path d="M 9.078125 75.984375 
L 18.109375 75.984375 
L 18.109375 31.109375 
L 44.921875 54.6875 
L 56.390625 54.6875 
L 27.390625 29.109375 
L 57.625 0 
L 45.90625 0 
L 18.109375 26.703125 
L 18.109375 0 
L 9.078125 0 
z
" id="DejaVuSans-107"/>
      <path d="M 8.6875 72.90625 
L 18.609375 72.90625 
L 18.609375 28.609375 
Q 18.609375 16.890625 22.84375 11.734375 
Q 27.09375 6.59375 36.625 6.59375 
Q 46.09375 6.59375 50.34375 11.734375 
Q 54.59375 16.890625 54.59375 28.609375 
L 54.59375 72.90625 
L 64.5 72.90625 
L 64.5 27.390625 
Q 64.5 13.140625 57.4375 5.859375 
Q 50.390625 -1.421875 36.625 -1.421875 
Q 22.796875 -1.421875 15.734375 5.859375 
Q 8.6875 13.140625 8.6875 27.390625 
z
" id="DejaVuSans-85"/>
      <path d="M 54.890625 33.015625 
L 54.890625 0 
L 45.90625 0 
L 45.90625 32.71875 
Q 45.90625 40.484375 42.875 44.328125 
Q 39.84375 48.1875 33.796875 48.1875 
Q 26.515625 48.1875 22.3125 43.546875 
Q 18.109375 38.921875 18.109375 30.90625 
L 18.109375 0 
L 9.078125 0 
L 9.078125 54.6875 
L 18.109375 54.6875 
L 18.109375 46.1875 
Q 21.34375 51.125 25.703125 53.5625 
Q 30.078125 56 35.796875 56 
Q 45.21875 56 50.046875 50.171875 
Q 54.890625 44.34375 54.890625 33.015625 
z
" id="DejaVuSans-110"/>
      <path d="M 37.109375 75.984375 
L 37.109375 68.5 
L 28.515625 68.5 
Q 23.6875 68.5 21.796875 66.546875 
Q 19.921875 64.59375 19.921875 59.515625 
L 19.921875 54.6875 
L 34.71875 54.6875 
L 34.71875 47.703125 
L 19.921875 47.703125 
L 19.921875 0 
L 10.890625 0 
L 10.890625 47.703125 
L 2.296875 47.703125 
L 2.296875 54.6875 
L 10.890625 54.6875 
L 10.890625 58.5 
Q 10.890625 67.625 15.140625 71.796875 
Q 19.390625 75.984375 28.609375 75.984375 
z
" id="DejaVuSans-102"/>
      <path d="M 52 44.1875 
Q 55.375 50.25 60.0625 53.125 
Q 64.75 56 71.09375 56 
Q 79.640625 56 84.28125 50.015625 
Q 88.921875 44.046875 88.921875 33.015625 
L 88.921875 0 
L 79.890625 0 
L 79.890625 32.71875 
Q 79.890625 40.578125 77.09375 44.375 
Q 74.3125 48.1875 68.609375 48.1875 
Q 61.625 48.1875 57.5625 43.546875 
Q 53.515625 38.921875 53.515625 30.90625 
L 53.515625 0 
L 44.484375 0 
L 44.484375 32.71875 
Q 44.484375 40.625 41.703125 44.40625 
Q 38.921875 48.1875 33.109375 48.1875 
Q 26.21875 48.1875 22.15625 43.53125 
Q 18.109375 38.875 18.109375 30.90625 
L 18.109375 0 
L 9.078125 0 
L 9.078125 54.6875 
L 18.109375 54.6875 
L 18.109375 46.1875 
Q 21.1875 51.21875 25.484375 53.609375 
Q 29.78125 56 35.6875 56 
Q 41.65625 56 45.828125 52.96875 
Q 50 49.953125 52 44.1875 
z
" id="DejaVuSans-109"/>
      <path d="M 34.28125 27.484375 
Q 23.390625 27.484375 19.1875 25 
Q 14.984375 22.515625 14.984375 16.5 
Q 14.984375 11.71875 18.140625 8.90625 
Q 21.296875 6.109375 26.703125 6.109375 
Q 34.1875 6.109375 38.703125 11.40625 
Q 43.21875 16.703125 43.21875 25.484375 
L 43.21875 27.484375 
z
M 52.203125 31.203125 
L 52.203125 0 
L 43.21875 0 
L 43.21875 8.296875 
Q 40.140625 3.328125 35.546875 0.953125 
Q 30.953125 -1.421875 24.3125 -1.421875 
Q 15.921875 -1.421875 10.953125 3.296875 
Q 6 8.015625 6 15.921875 
Q 6 25.140625 12.171875 29.828125 
Q 18.359375 34.515625 30.609375 34.515625 
L 43.21875 34.515625 
L 43.21875 35.40625 
Q 43.21875 41.609375 39.140625 45 
Q 35.0625 48.390625 27.6875 48.390625 
Q 23 48.390625 18.546875 47.265625 
Q 14.109375 46.140625 10.015625 43.890625 
L 10.015625 52.203125 
Q 14.9375 54.109375 19.578125 55.046875 
Q 24.21875 56 28.609375 56 
Q 40.484375 56 46.34375 49.84375 
Q 52.203125 43.703125 52.203125 31.203125 
z
" id="DejaVuSans-97"/>
      <path d="M 48.6875 27.296875 
Q 48.6875 37.203125 44.609375 42.84375 
Q 40.53125 48.484375 33.40625 48.484375 
Q 26.265625 48.484375 22.1875 42.84375 
Q 18.109375 37.203125 18.109375 27.296875 
Q 18.109375 17.390625 22.1875 11.75 
Q 26.265625 6.109375 33.40625 6.109375 
Q 40.53125 6.109375 44.609375 11.75 
Q 48.6875 17.390625 48.6875 27.296875 
z
M 18.109375 46.390625 
Q 20.953125 51.265625 25.265625 53.625 
Q 29.59375 56 35.59375 56 
Q 45.5625 56 51.78125 48.09375 
Q 58.015625 40.1875 58.015625 27.296875 
Q 58.015625 14.40625 51.78125 6.484375 
Q 45.5625 -1.421875 35.59375 -1.421875 
Q 29.59375 -1.421875 25.265625 0.953125 
Q 20.953125 3.328125 18.109375 8.203125 
L 18.109375 0 
L 9.078125 0 
L 9.078125 75.984375 
L 18.109375 75.984375 
z
" id="DejaVuSans-98"/>
      <path d="M 9.421875 75.984375 
L 18.40625 75.984375 
L 18.40625 0 
L 9.421875 0 
z
" id="DejaVuSans-108"/>
      <path d="M 4.203125 54.6875 
L 13.1875 54.6875 
L 24.421875 12.015625 
L 35.59375 54.6875 
L 46.1875 54.6875 
L 57.421875 12.015625 
L 68.609375 54.6875 
L 77.59375 54.6875 
L 63.28125 0 
L 52.6875 0 
L 40.921875 44.828125 
L 29.109375 0 
L 18.5 0 
z
" id="DejaVuSans-119"/>
      <path d="M 8.5 21.578125 
L 8.5 54.6875 
L 17.484375 54.6875 
L 17.484375 21.921875 
Q 17.484375 14.15625 20.5 10.265625 
Q 23.53125 6.390625 29.59375 6.390625 
Q 36.859375 6.390625 41.078125 11.03125 
Q 45.3125 15.671875 45.3125 23.6875 
L 45.3125 54.6875 
L 54.296875 54.6875 
L 54.296875 0 
L 45.3125 0 
L 45.3125 8.40625 
Q 42.046875 3.421875 37.71875 1 
Q 33.40625 -1.421875 27.6875 -1.421875 
Q 18.265625 -1.421875 13.375 4.4375 
Q 8.5 10.296875 8.5 21.578125 
z
M 31.109375 56 
z
" id="DejaVuSans-117"/>
     </defs>
     <use xlink:href="#DejaVuSans-80"/>
     <use x="58.552734" xlink:href="#DejaVuSans-114"/>
     <use x="99.666016" xlink:href="#DejaVuSans-105"/>
     <use x="127.449219" xlink:href="#DejaVuSans-111"/>
     <use x="188.630859" xlink:href="#DejaVuSans-114"/>
     <use x="229.744141" xlink:href="#DejaVuSans-32"/>
     <use x="261.53125" xlink:href="#DejaVuSans-112"/>
     <use x="325.007812" xlink:href="#DejaVuSans-114"/>
     <use x="363.871094" xlink:href="#DejaVuSans-101"/>
     <use x="425.394531" xlink:href="#DejaVuSans-100"/>
     <use x="488.871094" xlink:href="#DejaVuSans-105"/>
     <use x="516.654297" xlink:href="#DejaVuSans-99"/>
     <use x="571.634766" xlink:href="#DejaVuSans-116"/>
     <use x="610.84375" xlink:href="#DejaVuSans-105"/>
     <use x="638.626953" xlink:href="#DejaVuSans-118"/>
     <use x="697.806641" xlink:href="#DejaVuSans-101"/>
     <use x="759.330078" xlink:href="#DejaVuSans-32"/>
     <use x="791.117188" xlink:href="#DejaVuSans-99"/>
     <use x="846.097656" xlink:href="#DejaVuSans-104"/>
     <use x="909.476562" xlink:href="#DejaVuSans-101"/>
     <use x="971" xlink:href="#DejaVuSans-99"/>
     <use x="1025.980469" xlink:href="#DejaVuSans-107"/>
     <use x="1083.890625" xlink:href="#DejaVuSans-115"/>
     <use x="1135.990234" xlink:href="#DejaVuSans-32"/>
     <use x="1167.777344" xlink:href="#DejaVuSans-45"/>
     <use x="1203.861328" xlink:href="#DejaVuSans-45"/>
     <use x="1239.945312" xlink:href="#DejaVuSans-32"/>
     <use x="1271.732422" xlink:href="#DejaVuSans-85"/>
     <use x="1344.925781" xlink:href="#DejaVuSans-110"/>
     <use x="1408.304688" xlink:href="#DejaVuSans-105"/>
     <use x="1436.087891" xlink:href="#DejaVuSans-110"/>
     <use x="1499.466797" xlink:href="#DejaVuSans-102"/>
     <use x="1534.671875" xlink:href="#DejaVuSans-111"/>
     <use x="1595.853516" xlink:href="#DejaVuSans-114"/>
     <use x="1635.216797" xlink:href="#DejaVuSans-109"/>
     <use x="1732.628906" xlink:href="#DejaVuSans-97"/>
     <use x="1793.908203" xlink:href="#DejaVuSans-116"/>
     <use x="1833.117188" xlink:href="#DejaVuSans-105"/>
     <use x="1860.900391" xlink:href="#DejaVuSans-118"/>
     <use x="1920.080078" xlink:href="#DejaVuSans-101"/>
     <use x="1981.603516" xlink:href="#DejaVuSans-32"/>
     <use x="2013.390625" xlink:href="#DejaVuSans-40"/>
     <use x="2052.404297" xlink:href="#DejaVuSans-98"/>
     <use x="2115.880859" xlink:href="#DejaVuSans-108"/>
     <use x="2143.664062" xlink:href="#DejaVuSans-97"/>
     <use x="2204.943359" xlink:href="#DejaVuSans-99"/>
     <use x="2259.923828" xlink:href="#DejaVuSans-107"/>
     <use x="2317.833984" xlink:href="#DejaVuSans-41"/>
     <use x="2356.847656" xlink:href="#DejaVuSans-32"/>
     <use x="2388.634766" xlink:href="#DejaVuSans-118"/>
     <use x="2447.814453" xlink:href="#DejaVuSans-115"/>
     <use x="2499.914062" xlink:href="#DejaVuSans-32"/>
     <use x="2531.701172" xlink:href="#DejaVuSans-119"/>
     <use x="2613.488281" xlink:href="#DejaVuSans-101"/>
     <use x="2675.011719" xlink:href="#DejaVuSans-97"/>
     <use x="2736.291016" xlink:href="#DejaVuSans-107"/>
     <use x="2794.201172" xlink:href="#DejaVuSans-108"/>
     <use x="2821.984375" xlink:href="#DejaVuSans-121"/>
     <use x="2881.164062" xlink:href="#DejaVuSans-32"/>
     <use x="2912.951172" xlink:href="#DejaVuSans-105"/>
     <use x="2940.734375" xlink:href="#DejaVuSans-110"/>
     <use x="3004.113281" xlink:href="#DejaVuSans-102"/>
     <use x="3039.318359" xlink:href="#DejaVuSans-111"/>
     <use x="3100.5" xlink:href="#DejaVuSans-114"/>
     <use x="3139.863281" xlink:href="#DejaVuSans-109"/>
     <use x="3237.275391" xlink:href="#DejaVuSans-97"/>
     <use x="3298.554688" xlink:href="#DejaVuSans-116"/>
     <use x="3337.763672" xlink:href="#DejaVuSans-105"/>
     <use x="3365.546875" xlink:href="#DejaVuSans-118"/>
     <use x="3424.726562" xlink:href="#DejaVuSans-101"/>
     <use x="3486.25" xlink:href="#DejaVuSans-32"/>
     <use x="3518.037109" xlink:href="#DejaVuSans-40"/>
     <use x="3557.050781" xlink:href="#DejaVuSans-98"/>
     <use x="3620.527344" xlink:href="#DejaVuSans-108"/>
     <use x="3648.310547" xlink:href="#DejaVuSans-117"/>
     <use x="3711.689453" xlink:href="#DejaVuSans-101"/>
     <use x="3773.212891" xlink:href="#DejaVuSans-41"/>
    </g>
   </g>
  </g>
 </g>
 <defs>
  <clipPath id="p2bdb8153fd">
   <rect height="516.275458" width="878.43577" x="54.56399" y="21.15774"/>
  </clipPath>
 </defs>
</svg>
